{
.appVersion = "3151";
.formatVersion = 3;
DisplayStrings = (
"׃:",
"ךךּ"
);
axes = (
{
name = Weight;
tag = wght;
}
);
classes = (
{
code = "dagesh-hb";
name = hb_dagesh;
},
{
code = "shindot-hb sheva-hb hatafsegol-hb hatafpatah-hb hatafqamats-hb hiriq-hb tsere-hb segol-hb patah-hb qamats-hb holam-hb holamhaser-hb qubuts-hb rafe-hb sindot-hb qamatsqatan-hb dagesh-hb";
name = hb_diacriticMarks;
},
{
code = "shindot-hb sindot-hb";
name = hb_shinDots;
},
{
code = "alef-hb bet-hb gimel-hb dalet-hb he-hb vav-hb zayin-hb het-hb tet-hb yod-hb kaf-hb finalkaf-hb lamed-hb mem-hb finalmem-hb nun-hb finalnun-hb samekh-hb ayin-hb pe-hb finalpe-hb tsadi-hb finaltsadi-hb qof-hb resh-hb shin-hb tav-hb alefpatah-hb alefqamats-hb alefdagesh-hb betdagesh-hb gimeldagesh-hb daletdagesh-hb hedagesh-hb vavdagesh-hb vavholam-hb zayindagesh-hb tetdagesh-hb yoddagesh-hb finalkafdagesh-hb kafdagesh-hb lameddagesh-hb memdagesh-hb nundagesh-hb samekhdagesh-hb finalpedagesh-hb pedagesh-hb tsadidagesh-hb qofdagesh-hb reshdagesh-hb shinshindot-hb shinsindot-hb shindageshshindot-hb shindageshsindot-hb shindagesh-hb tavdagesh-hb vavvav-hb vavyod-hb yodyod-hb betrafe-hb kafrafe-hb perafe-hb yodhiriq-hb yodyodpatah-hb 
";
name = hb_letters;
}
);
customParameters = (
{
name = fsType;
value = (
);
},
{
name = "Use Typo Metrics";
value = 1;
},
{
name = "Axis Mappings";
value = {
wght = {
300 = 74;
400 = 92;
500 = 122;
600 = 138;
700 = 152;
800 = 162;
900 = 172;
};
};
},
{
name = "Variable Font Origin";
value = "4CDCBC45-D394-4652-82F8-278E2907A602";
}
);
date = "2022-09-29 12:46:11 +0000";
familyName = "Frank Ruhl Libre";
featurePrefixes = (
{
automatic = 1;
code = "languagesystem DFLT dflt;

languagesystem hebr dflt;
languagesystem hebr IWR;

languagesystem latn dflt;
languagesystem latn AZE;
languagesystem latn CRT;
languagesystem latn KAZ;
languagesystem latn TAT;
languagesystem latn TRK;
languagesystem latn ROM;
languagesystem latn MOL;
languagesystem latn CAT;
";
name = Languagesystems;
}
);

glyphs = (
{
glyphname = A;
kernLeft = A;
kernRight = A;
lastChange = "2022-11-03 08:56:38 +0000";
layers = (
{
anchors = (
{
name = bottom;
pos = (319,0);
},
{
name = ogonek;
pos = (561,10);
},
{
name = top;
pos = (319,660);
}
);
layerId = "A270BFC0-E682-4EED-9FF7-BE35A5492496";
shapes = (
{
closed = 1;
nodes = (
(169,0,l),
(169,27,l),
(140,27,ls),
(111,27,o),
(108,45,o),
(116,71,cs),
(299,564,l),
(302,564,l),
(482,73,ls),
(492,45,o),
(486,27,o),
(456,27,cs),
(423,27,l),
(423,0,l),
(627,0,l),
(627,27,l),
(579,27,o),
(569,35,o),
(554,85,cs),
(342,660,l),
(302,660,l),
(88,93,ls),
(70,42,o),
(62,27,o),
(9,27,c),
(9,0,l)
);
},
{
closed = 1;
nodes = (
(424,254,l),
(412,288,l),
(190,288,l),
(178,254,l)
);
}
);
width = 632;
},
{
anchors = (
{
name = bottom;
pos = (337,0);
},
{
name = ogonek;
pos = (582,10);
},
{
name = top;
pos = (337,660);
}
);
layerId = "705D5379-5CC9-457D-BF30-EC6EB9252852";
shapes = (
{
closed = 1;
nodes = (
(213,0,l),
(213,33,l),
(164,33,ls),
(138,33,o),
(133,47,o),
(140,72,cs),
(295,542,l),
(298,542,l),
(458,75,ls),
(465,53,o),
(461,33,o),
(433,33,cs),
(388,33,l),
(388,0,l),
(658,0,l),
(658,33,l),
(607,33,o),
(596,43,o),
(581,83,cs),
(379,660,l),
(294,660,l),
(86,88,ls),
(71,47,o),
(59,33,o),
(5,33,c),
(5,0,l)
);
},
{
closed = 1;
nodes = (
(406,243,l),
(394,276,l),
(203,276,l),
(188,243,l)
);
}
);
width = 669;
},
{
anchors = (
{
name = bottom;
pos = (370,0);
},
{
name = ogonek;
pos = (684,10);
},
{
name = top;
pos = (370,660);
}
);
layerId = "C3F6A16D-5E1F-403C-905F-9502D4908E23";
shapes = (
{
closed = 1;
nodes = (
(217,0,l),
(217,33,l),
(179,33,ls),
(151,33,o),
(143,44,o),
(153,72,cs),
(312,502,l),
(315,502,l),
(473,75,ls),
(483,47,o),
(477,33,o),
(451,33,cs),
(402,33,l),
(402,0,l),
(722,0,l),
(722,33,l),
(667,33,o),
(661,37,o),
(644,83,cs),
(432,660,l),
(329,660,l),
(101,88,ls),
(81,38,o),
(64,33,o),
(9,33,c),
(9,0,l)
);
},
{
closed = 1;
nodes = (
(433,228,l),
(433,267,l),
(191,267,l),
(191,228,l)
);
}
);
width = 735;
},
{
anchors = (
{
name = bottom;
pos = (326,0);
},
{
name = ogonek;
pos = (569,10);
},
{
name = top;
pos = (326,660);
}
);
layerId = "4CDCBC45-D394-4652-82F8-278E2907A602";
shapes = (
{
closed = 1;
nodes = (
(186,0,l),
(186,29,l),
(149,29,ls),
(121,29,o),
(117,46,o),
(125,71,cs),
(298,556,l),
(301,556,l),
(473,74,ls),
(482,48,o),
(477,29,o),
(447,29,cs),
(410,29,l),
(410,0,l),
(639,0,l),
(639,29,l),
(590,29,o),
(579,38,o),
(564,84,cs),
(356,660,l),
(299,660,l),
(87,91,ls),
(70,44,o),
(61,29,o),
(8,29,c),
(8,0,l)
);
},
{
closed = 1;
nodes = (
(417,250,l),
(405,284,l),
(195,284,l),
(182,250,l)
);
}
);
width = 645.875;
}
);
note = A;
unicode = 65;
},
{
glyphname = AE;
kernRight = E;
lastChange = "2022-11-03 08:56:38 +0000";
layers = (
{
anchors = (
{
name = bottom;
pos = (456,0);
},
{
name = top;
pos = (456,660);
}
);
layerId = "A270BFC0-E682-4EED-9FF7-BE35A5492496";
shapes = (
{
closed = 1;
nodes = (
(194,0,l),
(194,27,l),
(141,27,l),
(125,27,o),
(120,44,o),
(127,61,cs),
(417,622,l),
(423,622,l),
(423,91,ls),
(423,35,o),
(420,27,o),
(347,27,c),
(347,0,l),
(820,0,l),
(831,165,l),
(807,165,l),
(784,47,o),
(739,31,o),
(617,31,cs),
(522,31,o),
(494,37,o),
(494,119,cs),
(494,326,l),
(618,326,ls),
(699,326,o),
(703,303,o),
(711,243,c),
(735,243,l),
(735,442,l),
(711,442,l),
(703,382,o),
(699,360,o),
(618,360,cs),
(494,360,l),
(494,592,ls),
(494,623,o),
(499,629,o),
(530,629,cs),
(623,629,ls),
(737,629,o),
(759,605,o),
(772,504,c),
(796,504,l),
(796,660,l),
(297,660,l),
(297,633,l),
(354,633,ls),
(373,632,o),
(377,623,o),
(365,600,cs),
(86,73,ls),
(67,35,o),
(54,27,o),
(9,27,c),
(9,0,l)
);
},
{
closed = 1;
nodes = (
(432,326,l),
(432,360,l),
(267,360,l),
(249,326,l)
);
}
);
width = 872;
},
{
anchors = (
{
name = bottom;
pos = (475,0);
},
{
name = top;
pos = (475,660);
}
);
layerId = "705D5379-5CC9-457D-BF30-EC6EB9252852";
shapes = (
{
closed = 1;
nodes = (
(227,0,l),
(227,33,l),
(167,33,ls),
(142,33,o),
(134,42,o),
(148,71,cs),
(417,615,l),
(421,615,l),
(421,89,ls),
(421,43,o),
(415,33,o),
(342,33,c),
(342,0,l),
(847,0,l),
(859,184,l),
(834,184,l),
(804,78,o),
(778,40,o),
(660,39,cs),
(560,38,o),
(539,40,o),
(539,113,cs),
(539,323,l),
(638,323,ls),
(709,323,o),
(718,304,o),
(730,240,c),
(755,240,l),
(755,452,l),
(730,452,l),
(718,387,o),
(709,367,o),
(638,367,cs),
(539,367,l),
(539,587,ls),
(539,613,o),
(545,621,o),
(577,621,cs),
(655,621,ls),
(759,621,o),
(779,587,o),
(801,493,c),
(827,493,l),
(827,660,l),
(275,660,l),
(275,627,l),
(338,627,ls),
(358,627,o),
(366,608,o),
(353,583,cs),
(93,83,ls),
(74,47,o),
(58,33,o),
(5,33,c),
(5,0,l)
);
},
{
closed = 1;
nodes = (
(432,323,l),
(432,367,l),
(288,367,l),
(267,323,l)
);
}
);
width = 893;
},
{
anchors = (
{
name = bottom;
pos = (460,0);
},
{
name = top;
pos = (460,660);
}
);
layerId = "C3F6A16D-5E1F-403C-905F-9502D4908E23";
shapes = (
{
closed = 1;
nodes = (
(227,0,l),
(227,33,l),
(181,33,ls),
(153,33,o),
(140,44,o),
(155,72,cs),
(424,589,l),
(429,589,l),
(429,89,ls),
(429,40,o),
(421,33,o),
(360,33,c),
(360,0,l),
(889,0,l),
(901,174,l),
(860,174,l),
(836,54,o),
(785,37,o),
(691,37,cs),
(606,37,o),
(601,51,o),
(601,103,cs),
(601,326,l),
(700,326,ls),
(752,326,o),
(766,308,o),
(774,232,c),
(807,232,l),
(807,457,l),
(774,457,l),
(765,383,o),
(752,365,o),
(700,365,cs),
(601,365,l),
(601,589,ls),
(601,614,o),
(611,623,o),
(638,623,cs),
(687,623,ls),
(777,623,o),
(812,605,o),
(838,503,c),
(879,503,l),
(879,660,l),
(289,660,l),
(289,627,l),
(333,627,ls),
(367,627,o),
(376,603,o),
(353,559,cs),
(107,88,ls),
(80,38,o),
(68,33,o),
(9,33,c),
(9,0,l)
);
},
{
closed = 1;
nodes = (
(433,320,l),
(433,359,l),
(256,359,l),
(256,320,l)
);
}
);
width = 925;
},
{
anchors = (
{
name = bottom;
pos = (463,0);
},
{
name = top;
pos = (463,660);
}
);
layerId = "4CDCBC45-D394-4652-82F8-278E2907A602";
shapes = (
{
closed = 1;
nodes = (
(206,0,l),
(206,29,l),
(151,29,l),
(131,29,o),
(125,43,o),
(135,65,cs),
(417,619,l),
(422,619,l),
(422,90,ls),
(422,38,o),
(418,29,o),
(345,29,c),
(345,0,l),
(830,0,l),
(842,172,l),
(817,172,l),
(792,59,o),
(754,34,o),
(633,34,cs),
(536,34,o),
(511,38,o),
(511,117,cs),
(511,325,l),
(626,325,ls),
(703,325,o),
(709,303,o),
(718,242,c),
(743,242,l),
(743,446,l),
(718,446,l),
(709,384,o),
(703,363,o),
(626,363,cs),
(511,363,l),
(511,590,ls),
(511,619,o),
(516,626,o),
(548,626,cs),
(635,626,ls),
(745,626,o),
(767,598,o),
(783,500,c),
(808,500,l),
(808,660,l),
(289,660,l),
(289,631,l),
(348,631,ls),
(367,630,o),
(373,617,o),
(361,594,cs),
(89,77,ls),
(70,40,o),
(56,29,o),
(8,29,c),
(8,0,l)
);
},
{
closed = 1;
nodes = (
(432,325,l),
(432,363,l),
(275,363,l),
(256,325,l)
);
}
);
width = 879.875;
}
);
unicode = 198;
},
{
glyphname = B;
kernLeft = E;
lastChange = "2022-11-03 08:56:38 +0000";
layers = (
{
anchors = (
{
name = bottom;
pos = (314,0);
},
{
name = top;
pos = (314,660);
}
);
layerId = "A270BFC0-E682-4EED-9FF7-BE35A5492496";
shapes = (
{
closed = 1;
nodes = (
(299,0,ls),
(467,0,o),
(558,61,o),
(558,179,cs),
(558,283,o),
(485,346,o),
(400,360,c),
(400,362,l),
(480,380,o),
(527,438,o),
(527,508,cs),
(527,611,o),
(429,660,o),
(279,660,cs),
(53,660,l),
(53,633,l),
(127,633,o),
(129,625,o),
(129,571,cs),
(129,89,ls),
(129,34,o),
(127,27,o),
(53,27,c),
(53,0,l)
);
},
{
closed = 1;
nodes = (
(219,30,o),
(204,46,o),
(204,107,cs),
(204,340,l),
(292,340,ls),
(417,340,o),
(476,278,o),
(476,180,cs),
(476,63,o),
(391,30,o),
(290,30,cs)
);
},
{
closed = 1;
nodes = (
(204,579,ls),
(204,617,o),
(206,629,o),
(273,629,cs),
(362,629,o),
(447,608,o),
(447,497,cs),
(447,411,o),
(396,372,o),
(288,372,cs),
(204,372,l)
);
}
);
width = 606;
},
{
anchors = (
{
name = bottom;
pos = (326,0);
},
{
name = top;
pos = (326,660);
}
);
layerId = "705D5379-5CC9-457D-BF30-EC6EB9252852";
shapes = (
{
closed = 1;
nodes = (
(348,0,ls),
(497,0,o),
(596,43,o),
(596,177,cs),
(596,280,o),
(537,338,o),
(432,356,c),
(432,357,l),
(517,375,o),
(568,424,o),
(568,508,cs),
(568,626,o),
(469,660,o),
(337,660,cs),
(44,660,l),
(44,628,l),
(116,627,o),
(123,618,o),
(123,570,cs),
(123,89,ls),
(123,43,o),
(117,33,o),
(44,33,c),
(44,0,l)
);
},
{
closed = 1;
nodes = (
(264,39,o),
(245,57,o),
(245,104,cs),
(245,332,l),
(303,332,ls),
(402,332,o),
(461,275,o),
(461,176,cs),
(461,88,o),
(415,39,o),
(321,39,cs)
);
},
{
closed = 1;
nodes = (
(245,581,ls),
(245,611,o),
(257,621,o),
(302,621,cs),
(398,621,o),
(444,576,o),
(444,499,cs),
(444,417,o),
(393,371,o),
(301,371,cs),
(245,371,l)
);
}
);
width = 639;
},
{
anchors = (
{
name = bottom;
pos = (343,0);
},
{
name = top;
pos = (343,660);
}
);
layerId = "C3F6A16D-5E1F-403C-905F-9502D4908E23";
shapes = (
{
closed = 1;
nodes = (
(367,0,ls),
(545,0,o),
(635,59,o),
(635,177,cs),
(635,276,o),
(574,335,o),
(453,356,c),
(453,357,l),
(554,378,o),
(607,429,o),
(607,508,cs),
(607,609,o),
(520,660,o),
(356,660,cs),
(33,660,l),
(33,627,l),
(94,627,o),
(102,622,o),
(102,569,cs),
(102,89,ls),
(102,44,o),
(92,33,o),
(33,33,c),
(33,0,l)
);
},
{
closed = 1;
nodes = (
(289,38,o),
(274,52,o),
(274,102,cs),
(274,332,l),
(322,332,ls),
(411,332,o),
(460,275,o),
(460,176,cs),
(460,83,o),
(419,38,o),
(340,38,cs)
);
},
{
closed = 1;
nodes = (
(274,582,ls),
(274,618,o),
(278,622,o),
(321,622,cs),
(402,622,o),
(443,582,o),
(443,499,cs),
(443,415,o),
(402,371,o),
(320,371,cs),
(274,371,l)
);
}
);
width = 658;
},
{
anchors = (
{
name = bottom;
pos = (319,0);
},
{
name = top;
pos = (319,660);
}
);
layerId = "4CDCBC45-D394-4652-82F8-278E2907A602";
shapes = (
{
closed = 1;
nodes = (
(317,0,ls),
(478,0,o),
(572,54,o),
(572,178,cs),
(572,282,o),
(505,343,o),
(412,359,c),
(412,360,l),
(494,378,o),
(542,433,o),
(542,508,cs),
(542,617,o),
(444,660,o),
(301,660,cs),
(50,660,l),
(50,631,l),
(123,631,o),
(127,622,o),
(127,571,cs),
(127,89,ls),
(127,37,o),
(123,29,o),
(50,29,c),
(50,0,l)
);
},
{
closed = 1;
nodes = (
(236,33,o),
(219,50,o),
(219,106,cs),
(219,337,l),
(296,337,ls),
(411,337,o),
(470,277,o),
(470,179,cs),
(470,72,o),
(400,33,o),
(302,33,cs)
);
},
{
closed = 1;
nodes = (
(219,580,ls),
(219,615,o),
(225,626,o),
(284,626,cs),
(376,626,o),
(446,596,o),
(446,498,cs),
(446,413,o),
(395,372,o),
(293,372,cs),
(219,372,l)
);
}
);
width = 618.375;
}
);
note = B;
unicode = 66;
},
{
glyphname = C;
kernLeft = O;
kernRight = C;
lastChange = "2022-11-03 08:56:38 +0000";
layers = (
{
anchors = (
{
name = bottom;
pos = (336,0);
},
{
name = top;
pos = (336,660);
}
);
layerId = "A270BFC0-E682-4EED-9FF7-BE35A5492496";
shapes = (
{
closed = 1;
nodes = (
(523,-12,o),
(571,78,o),
(600,142,c),
(575,155,l),
(544,89,o),
(503,18,o),
(379,18,cs),
(213,18,o),
(145,177,o),
(145,329,cs),
(145,458,o),
(195,642,o),
(375,642,cs),
(513,642,o),
(552,546,o),
(570,486,c),
(597,486,l),
(587,660,l),
(560,660,l),
(557,649,ls),
(555,642,o),
(547,635,o),
(534,635,cs),
(506,635,o),
(471,672,o),
(370,672,cs),
(172,672,o),
(57,535,o),
(57,322,cs),
(57,122,o),
(167,-12,o),
(359,-12,cs)
);
}
);
width = 649;
},
{
anchors = (
{
name = bottom;
pos = (352,0);
},
{
name = top;
pos = (363,660);
}
);
layerId = "705D5379-5CC9-457D-BF30-EC6EB9252852";
shapes = (
{
closed = 1;
nodes = (
(540,-12,o),
(600,100,o),
(615,157,c),
(588,171,l),
(570,121,o),
(529,29,o),
(386,29,cs),
(234,29,o),
(184,179,o),
(184,335,cs),
(184,436,o),
(214,632,o),
(391,632,cs),
(517,632,o),
(567,545,o),
(582,471,c),
(607,471,l),
(597,660,l),
(572,660,l),
(567,649,ls),
(563,642,o),
(558,635,o),
(543,635,cs),
(520,635,o),
(470,672,o),
(382,672,cs),
(168,672,o),
(47,548,o),
(47,322,cs),
(47,109,o),
(159,-12,o),
(379,-12,cs)
);
}
);
width = 654;
},
{
anchors = (
{
name = bottom;
pos = (337,0);
},
{
name = top;
pos = (337,660);
}
);
layerId = "C3F6A16D-5E1F-403C-905F-9502D4908E23";
shapes = (
{
closed = 1;
nodes = (
(539,-12,o),
(609,60,o),
(645,159,c),
(615,171,l),
(585,85,o),
(515,21,o),
(414,21,cs),
(279,21,o),
(215,145,o),
(215,326,cs),
(215,437,o),
(239,639,o),
(412,639,cs),
(510,639,o),
(579,574,o),
(598,471,c),
(636,471,l),
(626,660,l),
(597,660,l),
(594,651,ls),
(590,640,o),
(578,635,o),
(567,635,cs),
(537,635,o),
(504,672,o),
(386,672,cs),
(169,672,o),
(34,546,o),
(34,323,cs),
(34,100,o),
(172,-12,o),
(378,-12,cs)
);
}
);
width = 672;
},
{
anchors = (
{
name = bottom;
pos = (342,0);
},
{
name = top;
pos = (346,660);
}
);
layerId = "4CDCBC45-D394-4652-82F8-278E2907A602";
shapes = (
{
closed = 1;
nodes = (
(529,-12,o),
(582,86,o),
(606,148,c),
(580,161,l),
(554,101,o),
(513,22,o),
(382,22,cs),
(221,22,o),
(160,178,o),
(160,331,cs),
(160,450,o),
(202,638,o),
(381,638,cs),
(515,638,o),
(558,546,o),
(575,480,c),
(601,480,l),
(591,660,l),
(565,660,l),
(561,649,ls),
(558,642,o),
(551,635,o),
(537,635,cs),
(511,635,o),
(471,672,o),
(375,672,cs),
(171,672,o),
(53,540,o),
(53,322,cs),
(53,117,o),
(164,-12,o),
(367,-12,cs)
);
}
);
width = 650.875;
}
);
note = C;
unicode = 67;
},
{
glyphname = D;
kernLeft = E;
kernRight = D;
lastChange = "2022-11-03 08:56:38 +0000";
layers = (
{
anchors = (
{
name = bottom;
pos = (355,0);
},
{
name = center;
pos = (355,330);
},
{
name = top;
pos = (355,660);
}
);
layerId = "A270BFC0-E682-4EED-9FF7-BE35A5492496";
shapes = (
{
closed = 1;
nodes = (
(320,0,ls),
(528,0,o),
(656,125,o),
(656,342,cs),
(656,543,o),
(537,658,o),
(339,660,c),
(53,660,l),
(53,633,l),
(127,633,o),
(129,625,o),
(129,571,cs),
(129,89,ls),
(129,34,o),
(127,27,o),
(53,27,c),
(53,0,l)
);
},
{
closed = 1;
nodes = (
(234,30,o),
(203,41,o),
(203,119,cs),
(203,572,ls),
(203,624,o),
(211,629,o),
(313,629,cs),
(502,625,o),
(568,500,o),
(568,338,cs),
(568,95,o),
(442,30,o),
(302,30,cs)
);
}
);
width = 713;
},
{
anchors = (
{
name = bottom;
pos = (376,0);
},
{
name = center;
pos = (376,330);
},
{
name = top;
pos = (343,660);
}
);
layerId = "705D5379-5CC9-457D-BF30-EC6EB9252852";
shapes = (
{
closed = 1;
nodes = (
(327,0,ls),
(567,0,o),
(697,95,o),
(697,339,cs),
(697,561,o),
(582,658,o),
(360,660,cs),
(44,660,l),
(44,627,l),
(116,627,o),
(123,619,o),
(123,570,cs),
(123,89,ls),
(123,43,o),
(117,33,o),
(44,33,c),
(44,0,l)
);
},
{
closed = 1;
nodes = (
(263,39,o),
(245,51,o),
(245,96,cs),
(245,585,ls),
(245,615,o),
(267,621,o),
(338,621,cs),
(486,621,o),
(559,526,o),
(559,336,cs),
(559,132,o),
(489,39,o),
(332,39,cs)
);
}
);
width = 744;
},
{
anchors = (
{
name = bottom;
pos = (386,0);
},
{
name = center;
pos = (386,330);
},
{
name = top;
pos = (386,660);
}
);
layerId = "C3F6A16D-5E1F-403C-905F-9502D4908E23";
shapes = (
{
closed = 1;
nodes = (
(336,0,ls),
(583,0,o),
(726,94,o),
(726,339,cs),
(726,561,o),
(600,658,o),
(369,660,cs),
(33,660,l),
(33,627,l),
(105,627,o),
(112,620,o),
(112,570,cs),
(112,89,ls),
(112,39,o),
(111,33,o),
(33,33,c),
(33,0,l)
);
},
{
closed = 1;
nodes = (
(300,37,o),
(284,43,o),
(284,96,cs),
(284,585,ls),
(284,622,o),
(304,623,o),
(347,623,cs),
(478,623,o),
(545,527,o),
(545,336,cs),
(545,130,o),
(481,37,o),
(341,37,cs)
);
}
);
width = 760;
},
{
anchors = (
{
name = bottom;
pos = (363,0);
},
{
name = center;
pos = (363,330);
},
{
name = top;
pos = (351,660);
}
);
layerId = "4CDCBC45-D394-4652-82F8-278E2907A602";
shapes = (
{
closed = 1;
nodes = (
(323,0,ls),
(543,0,o),
(671,114,o),
(671,341,cs),
(671,550,o),
(554,658,o),
(347,660,c),
(50,660,l),
(50,631,l),
(123,631,o),
(127,623,o),
(127,571,cs),
(127,89,ls),
(127,37,o),
(123,29,o),
(50,29,c),
(50,0,l)
);
},
{
closed = 1;
nodes = (
(245,33,o),
(219,45,o),
(219,110,cs),
(219,577,ls),
(219,621,o),
(232,626,o),
(322,626,cs),
(496,624,o),
(565,510,o),
(565,337,cs),
(565,109,o),
(460,33,o),
(313,33,cs)
);
}
);
width = 724.625;
}
);
note = D;
unicode = 68;
},
{
glyphname = Eth;
kernLeft = E;
kernRight = D;
lastChange = "2022-11-03 08:56:38 +0000";
layers = (
{
layerId = "A270BFC0-E682-4EED-9FF7-BE35A5492496";
shapes = (
{
closed = 1;
nodes = (
(418,315,l),
(418,351,l),
(53,351,l),
(53,315,l)
);
},
{
pos = (5,0);
ref = D;
}
);
width = 718;
},
{
layerId = "705D5379-5CC9-457D-BF30-EC6EB9252852";
shapes = (
{
closed = 1;
nodes = (
(413,313,l),
(413,353,l),
(48,353,l),
(48,313,l)
);
},
{
ref = D;
}
);
width = 744;
},
{
layerId = "C3F6A16D-5E1F-403C-905F-9502D4908E23";
shapes = (
{
closed = 1;
nodes = (
(432,306,l),
(432,366,l),
(33,366,l),
(33,306,l)
);
},
{
pos = (19,0);
ref = D;
}
);
width = 779;
},
{
layerId = "4CDCBC45-D394-4652-82F8-278E2907A602";
shapes = (
{
closed = 1;
nodes = (
(416,314,l),
(416,352,l),
(51,352,l),
(51,314,l)
);
},
{
alignment = -1;
pos = (3,0);
ref = D;
}
);
width = 727.75;
}
);
note = Eth;
unicode = 208;
},
{
glyphname = E;
kernLeft = E;
kernRight = E;
lastChange = "2022-11-03 08:56:38 +0000";
layers = (
{
anchors = (
{
name = bottom;
pos = (301,0);
},
{
name = ogonek;
pos = (538,10);
},
{
name = top;
pos = (301,660);
},
{
name = topleft;
pos = (25,660);
}
);
layerId = "A270BFC0-E682-4EED-9FF7-BE35A5492496";
shapes = (
{
closed = 1;
nodes = (
(528,0,l),
(539,165,l),
(512,165,l),
(490,46,o),
(449,30,o),
(326,30,cs),
(224,30,o),
(203,42,o),
(203,114,cs),
(203,326,l),
(325,326,ls),
(406,326,o),
(410,303,o),
(419,243,c),
(443,243,l),
(443,442,l),
(419,442,l),
(410,382,o),
(406,360,o),
(325,360,cs),
(203,360,l),
(203,592,ls),
(203,625,o),
(207,629,o),
(238,629,cs),
(331,629,ls),
(444,629,o),
(463,605,o),
(477,504,c),
(504,504,l),
(504,660,l),
(53,660,l),
(53,633,l),
(127,633,o),
(129,625,o),
(129,571,cs),
(129,89,ls),
(129,34,o),
(127,27,o),
(53,27,c),
(53,0,l)
);
}
);
width = 580;
},
{
anchors = (
{
name = bottom;
pos = (302,0);
},
{
name = ogonek;
pos = (549,10);
},
{
name = top;
pos = (302,660);
},
{
name = topleft;
pos = (28,660);
}
);
layerId = "705D5379-5CC9-457D-BF30-EC6EB9252852";
shapes = (
{
closed = 1;
nodes = (
(553,0,l),
(565,184,l),
(540,184,l),
(511,79,o),
(482,39,o),
(366,39,cs),
(254,39,o),
(245,50,o),
(245,105,cs),
(245,323,l),
(344,323,ls),
(415,323,o),
(424,304,o),
(436,240,c),
(461,240,l),
(461,452,l),
(436,452,l),
(424,387,o),
(415,367,o),
(344,367,cs),
(245,367,l),
(245,587,ls),
(245,613,o),
(251,621,o),
(283,621,cs),
(361,621,ls),
(465,621,o),
(485,587,o),
(507,493,c),
(533,493,l),
(533,660,l),
(44,660,l),
(44,627,l),
(116,627,o),
(123,619,o),
(123,570,cs),
(123,89,ls),
(123,43,o),
(117,33,o),
(44,33,c),
(44,0,l)
);
}
);
width = 599;
},
{
anchors = (
{
name = bottom;
pos = (324,0);
},
{
name = ogonek;
pos = (577,10);
},
{
name = top;
pos = (324,660);
},
{
name = topleft;
pos = (27,660);
}
);
layerId = "C3F6A16D-5E1F-403C-905F-9502D4908E23";
shapes = (
{
closed = 1;
nodes = (
(582,0,l),
(594,174,l),
(553,174,l),
(531,60,o),
(470,37,o),
(375,37,cs),
(279,37,o),
(274,47,o),
(274,103,cs),
(274,323,l),
(393,323,ls),
(445,323,o),
(459,308,o),
(467,230,c),
(500,230,l),
(500,459,l),
(467,459,l),
(458,383,o),
(445,367,o),
(393,367,cs),
(274,367,l),
(274,589,ls),
(274,614,o),
(284,623,o),
(311,623,cs),
(380,623,ls),
(470,623,o),
(505,605,o),
(531,503,c),
(572,503,l),
(572,660,l),
(33,660,l),
(33,627,l),
(94,627,o),
(102,620,o),
(102,570,cs),
(102,89,ls),
(102,40,o),
(94,33,o),
(33,33,c),
(33,0,l)
);
}
);
width = 619;
},
{
anchors = (
{
name = bottom;
pos = (301,0);
},
{
name = ogonek;
pos = (542,10);
},
{
name = top;
pos = (301,660);
},
{
name = topleft;
pos = (26,660);
}
);
layerId = "4CDCBC45-D394-4652-82F8-278E2907A602";
shapes = (
{
closed = 1;
nodes = (
(537,0,l),
(549,172,l),
(523,172,l),
(498,58,o),
(461,33,o),
(341,33,cs),
(235,33,o),
(219,45,o),
(219,111,cs),
(219,325,l),
(332,325,ls),
(409,325,o),
(415,303,o),
(425,242,c),
(450,242,l),
(450,446,l),
(425,446,l),
(415,384,o),
(409,363,o),
(332,363,cs),
(219,363,l),
(219,590,ls),
(219,621,o),
(224,626,o),
(255,626,cs),
(342,626,ls),
(452,626,o),
(471,598,o),
(488,500,c),
(515,500,l),
(515,660,l),
(50,660,l),
(50,631,l),
(123,631,o),
(127,623,o),
(127,571,cs),
(127,89,ls),
(127,37,o),
(123,29,o),
(50,29,c),
(50,0,l)
);
}
);
width = 587.125;
}
);
note = E;
unicode = 69;
},
{
glyphname = F;
kernLeft = E;
lastChange = "2022-11-03 08:56:38 +0000";
layers = (
{
anchors = (
{
name = bottom;
pos = (268,0);
},
{
name = top;
pos = (268,660);
}
);
layerId = "A270BFC0-E682-4EED-9FF7-BE35A5492496";
shapes = (
{
closed = 1;
nodes = (
(295,0,l),
(295,27,l),
(207,27,o),
(204,35,o),
(204,89,cs),
(204,310,l),
(327,310,ls),
(408,310,o),
(412,287,o),
(421,226,c),
(444,226,l),
(444,430,l),
(421,430,l),
(412,369,o),
(408,346,o),
(327,346,cs),
(204,346,l),
(204,592,ls),
(204,626,o),
(208,629,o),
(239,629,cs),
(333,629,ls),
(448,629,o),
(468,607,o),
(481,508,c),
(508,508,l),
(508,660,l),
(53,660,l),
(53,633,l),
(127,633,o),
(129,625,o),
(129,571,cs),
(129,89,ls),
(129,35,o),
(127,27,o),
(53,27,c),
(53,0,l)
);
}
);
width = 541;
},
{
anchors = (
{
name = bottom;
pos = (286,0);
},
{
name = top;
pos = (286,660);
}
);
layerId = "705D5379-5CC9-457D-BF30-EC6EB9252852";
shapes = (
{
closed = 1;
nodes = (
(339,0,l),
(339,33,l),
(254,33,o),
(245,42,o),
(245,90,cs),
(245,307,l),
(355,307,ls),
(427,307,o),
(436,288,o),
(449,223,c),
(473,223,l),
(473,436,l),
(449,436,l),
(436,371,o),
(427,351,o),
(355,351,cs),
(245,351,l),
(245,587,ls),
(245,614,o),
(253,621,o),
(283,621,cs),
(357,621,ls),
(461,621,o),
(481,587,o),
(505,494,c),
(530,494,l),
(530,660,l),
(44,660,l),
(44,627,l),
(116,627,o),
(123,618,o),
(123,570,cs),
(123,89,ls),
(123,43,o),
(117,33,o),
(44,33,c),
(44,0,l)
);
}
);
width = 560;
},
{
anchors = (
{
name = bottom;
pos = (294,0);
},
{
name = top;
pos = (294,660);
}
);
layerId = "C3F6A16D-5E1F-403C-905F-9502D4908E23";
shapes = (
{
closed = 1;
nodes = (
(343,0,l),
(343,33,l),
(281,33,o),
(274,43,o),
(274,89,cs),
(274,313,l),
(378,313,ls),
(430,313,o),
(444,298,o),
(452,220,c),
(485,220,l),
(485,449,l),
(452,449,l),
(443,373,o),
(430,357,o),
(378,357,cs),
(274,357,l),
(274,589,ls),
(274,614,o),
(284,623,o),
(311,623,cs),
(360,623,ls),
(450,623,o),
(485,605,o),
(511,503,c),
(552,503,l),
(552,660,l),
(33,660,l),
(33,627,l),
(94,627,o),
(102,620,o),
(102,570,cs),
(102,89,ls),
(102,40,o),
(94,33,o),
(33,33,c),
(33,0,l)
);
}
);
width = 575;
},
{
anchors = (
{
name = bottom;
pos = (275,0);
},
{
name = top;
pos = (275,660);
}
);
layerId = "4CDCBC45-D394-4652-82F8-278E2907A602";
shapes = (
{
closed = 1;
nodes = (
(312,0,l),
(312,29,l),
(225,29,o),
(219,38,o),
(219,89,cs),
(219,309,l),
(338,309,ls),
(415,309,o),
(421,287,o),
(432,225,c),
(455,225,l),
(455,432,l),
(432,432,l),
(421,370,o),
(415,348,o),
(338,348,cs),
(219,348,l),
(219,590,ls),
(219,622,o),
(225,626,o),
(256,626,cs),
(342,626,ls),
(453,626,o),
(473,600,o),
(490,503,c),
(516,503,l),
(516,660,l),
(50,660,l),
(50,631,l),
(123,631,o),
(127,622,o),
(127,571,cs),
(127,89,ls),
(127,38,o),
(123,29,o),
(50,29,c),
(50,0,l)
);
}
);
width = 548.125;
}
);
note = F;
unicode = 70;
},
{
glyphname = G;
kernLeft = O;
kernRight = G;
lastChange = "2022-11-03 08:56:38 +0000";
layers = (
{
anchors = (
{
name = bottom;
pos = (334,0);
},
{
name = top;
pos = (334,660);
}
);
layerId = "A270BFC0-E682-4EED-9FF7-BE35A5492496";
shapes = (
{
closed = 1;
nodes = (
(446,-12,o),
(510,21,o),
(545,21,cs),
(563,21,o),
(571,12,o),
(577,-3,c),
(593,-3,l),
(593,241,ls),
(593,266,o),
(608,274,o),
(628,274,cs),
(639,274,l),
(639,301,l),
(455,301,l),
(455,274,l),
(471,274,ls),
(503,274,o),
(519,259,o),
(519,230,cs),
(519,116,ls),
(519,35,o),
(447,18,o),
(388,18,cs),
(209,18,o),
(145,177,o),
(145,326,cs),
(145,461,o),
(197,642,o),
(376,642,cs),
(506,642,o),
(552,546,o),
(570,486,c),
(597,486,l),
(587,660,l),
(565,660,l),
(560,649,ls),
(557,641,o),
(548,635,o),
(535,635,cs),
(503,635,o),
(471,672,o),
(369,672,cs),
(172,672,o),
(57,533,o),
(57,326,cs),
(57,124,o),
(167,-12,o),
(354,-12,cs)
);
}
);
width = 650;
},
{
anchors = (
{
name = bottom;
pos = (346,0);
},
{
name = top;
pos = (346,660);
}
);
layerId = "705D5379-5CC9-457D-BF30-EC6EB9252852";
shapes = (
{
closed = 1;
nodes = (
(490,-12,o),
(518,30,o),
(554,30,cs),
(571,30,o),
(582,20,o),
(587,0,c),
(613,0,l),
(613,211,ls),
(613,253,o),
(618,269,o),
(653,269,cs),
(672,269,l),
(672,300,l),
(403,300,l),
(403,269,l),
(421,269,ls),
(481,269,o),
(491,255,o),
(491,211,cs),
(491,50,l),
(465,38,o),
(427,29,o),
(391,29,cs),
(246,29,o),
(184,179,o),
(184,331,cs),
(184,435,o),
(213,632,o),
(394,632,cs),
(516,632,o),
(568,542,o),
(582,469,c),
(607,469,l),
(597,660,l),
(572,660,l),
(567,649,ls),
(564,642,o),
(559,635,o),
(545,635,cs),
(514,635,o),
(480,672,o),
(374,672,cs),
(170,672,o),
(47,536,o),
(47,320,cs),
(47,109,o),
(165,-12,o),
(370,-12,cs)
);
}
);
width = 687;
},
{
anchors = (
{
name = bottom;
pos = (366,0);
},
{
name = top;
pos = (366,660);
}
);
layerId = "C3F6A16D-5E1F-403C-905F-9502D4908E23";
shapes = (
{
closed = 1;
nodes = (
(497,-12,o),
(563,18,o),
(588,18,cs),
(611,18,o),
(619,11,o),
(627,0,c),
(660,0,l),
(660,208,ls),
(660,256,o),
(679,266,o),
(704,266,cs),
(722,266,l),
(722,299,l),
(432,299,l),
(432,266,l),
(447,266,ls),
(480,266,o),
(493,261,o),
(493,208,cs),
(493,42,l),
(475,33,o),
(455,21,o),
(414,21,cs),
(278,21,o),
(215,145,o),
(215,326,cs),
(215,437,o),
(239,639,o),
(412,639,cs),
(510,639,o),
(579,574,o),
(598,471,c),
(636,471,l),
(630,660,l),
(597,660,l),
(594,651,ls),
(590,640,o),
(578,635,o),
(567,635,cs),
(537,635,o),
(504,672,o),
(386,672,cs),
(169,672,o),
(34,546,o),
(34,323,cs),
(34,100,o),
(172,-12,o),
(378,-12,cs)
);
}
);
width = 737;
},
{
anchors = (
{
name = bottom;
pos = (339,0);
},
{
name = top;
pos = (339,660);
}
);
layerId = "4CDCBC45-D394-4652-82F8-278E2907A602";
shapes = (
{
closed = 1;
nodes = (
(463,-12,o),
(513,24,o),
(548,24,cs),
(566,24,o),
(575,15,o),
(581,-2,c),
(601,-2,l),
(601,230,ls),
(601,261,o),
(612,272,o),
(637,272,cs),
(651,272,l),
(651,301,l),
(436,301,l),
(436,272,l),
(452,272,ls),
(495,272,o),
(509,258,o),
(509,223,cs),
(509,91,ls),
(499,36,o),
(440,22,o),
(389,22,cs),
(223,22,o),
(160,178,o),
(160,328,cs),
(160,451,o),
(203,638,o),
(383,638,cs),
(510,638,o),
(558,545,o),
(575,480,c),
(601,480,l),
(591,660,l),
(568,660,l),
(563,649,ls),
(560,641,o),
(552,635,o),
(539,635,cs),
(507,635,o),
(474,672,o),
(371,672,cs),
(171,672,o),
(53,534,o),
(53,324,cs),
(53,118,o),
(166,-12,o),
(360,-12,cs)
);
}
);
width = 663.875;
}
);
note = G;
unicode = 71;
},
{
glyphname = H;
kernLeft = E;
kernRight = H;
lastChange = "2022-11-03 08:56:38 +0000";
layers = (
{
anchors = (
{
name = bottom;
pos = (370,0);
},
{
name = center;
pos = (370,330);
},
{
name = top;
pos = (370,660);
},
{
name = topleft;
pos = (28,660);
}
);
layerId = "A270BFC0-E682-4EED-9FF7-BE35A5492496";
shapes = (
{
closed = 1;
nodes = (
(279,0,l),
(279,27,l),
(206,27,o),
(203,34,o),
(203,83,cs),
(203,325,l),
(547,325,l),
(547,83,ls),
(547,34,o),
(545,27,o),
(471,27,c),
(471,0,l),
(697,0,l),
(697,27,l),
(624,27,o),
(621,34,o),
(621,83,cs),
(621,577,ls),
(621,623,o),
(624,632,o),
(697,633,c),
(697,660,l),
(471,660,l),
(471,633,l),
(545,633,o),
(547,623,o),
(547,577,cs),
(547,361,l),
(203,361,l),
(203,577,ls),
(203,623,o),
(206,633,o),
(279,633,c),
(279,660,l),
(53,660,l),
(53,633,l),
(127,632,o),
(129,623,o),
(129,577,cs),
(129,83,ls),
(129,34,o),
(127,27,o),
(53,27,c),
(53,0,l)
);
}
);
width = 750;
},
{
anchors = (
{
name = bottom;
pos = (388,0);
},
{
name = center;
pos = (388,330);
},
{
name = top;
pos = (388,660);
},
{
name = topleft;
pos = (28,660);
}
);
layerId = "705D5379-5CC9-457D-BF30-EC6EB9252852";
shapes = (
{
closed = 1;
nodes = (
(323,0,l),
(323,33,l),
(252,33,o),
(245,42,o),
(245,89,cs),
(245,324,l),
(530,324,l),
(530,89,ls),
(530,43,o),
(525,33,o),
(452,33,c),
(452,0,l),
(731,0,l),
(731,33,l),
(661,33,o),
(653,42,o),
(653,89,cs),
(653,569,ls),
(653,617,o),
(659,627,o),
(731,627,c),
(731,660,l),
(452,660,l),
(452,627,l),
(523,627,o),
(530,618,o),
(530,569,cs),
(530,366,l),
(245,366,l),
(245,569,ls),
(245,617,o),
(250,627,o),
(323,627,c),
(323,660,l),
(44,660,l),
(44,627,l),
(116,627,o),
(123,618,o),
(123,569,cs),
(123,89,ls),
(123,43,o),
(117,33,o),
(44,33,c),
(44,0,l)
);
}
);
width = 775;
},
{
anchors = (
{
name = bottom;
pos = (396,0);
},
{
name = center;
pos = (396,330);
},
{
name = top;
pos = (396,660);
},
{
name = topleft;
pos = (27,660);
}
);
layerId = "C3F6A16D-5E1F-403C-905F-9502D4908E23";
shapes = (
{
closed = 1;
nodes = (
(341,0,l),
(341,33,l),
(275,33,o),
(273,42,o),
(273,89,cs),
(273,326,l),
(519,326,l),
(519,89,ls),
(519,43,o),
(520,33,o),
(451,33,c),
(451,0,l),
(758,0,l),
(758,33,l),
(693,33,o),
(691,42,o),
(691,89,cs),
(691,569,ls),
(691,616,o),
(690,627,o),
(758,627,c),
(758,660,l),
(451,660,l),
(451,627,l),
(518,627,o),
(519,618,o),
(519,569,cs),
(519,365,l),
(273,365,l),
(273,569,ls),
(273,617,o),
(273,627,o),
(341,627,c),
(341,660,l),
(33,660,l),
(33,627,l),
(100,627,o),
(101,618,o),
(101,569,cs),
(101,89,ls),
(101,44,o),
(102,33,o),
(33,33,c),
(33,0,l)
);
}
);
width = 791;
},
{
anchors = (
{
name = bottom;
pos = (377,0);
},
{
name = center;
pos = (377,330);
},
{
name = top;
pos = (377,660);
},
{
name = topleft;
pos = (28,660);
}
);
layerId = "4CDCBC45-D394-4652-82F8-278E2907A602";
shapes = (
{
closed = 1;
nodes = (
(296,0,l),
(296,29,l),
(223,29,o),
(219,37,o),
(219,85,cs),
(219,325,l),
(541,325,l),
(541,85,ls),
(541,37,o),
(538,29,o),
(464,29,c),
(464,0,l),
(710,0,l),
(710,29,l),
(638,29,o),
(633,37,o),
(633,85,cs),
(633,574,ls),
(633,621,o),
(637,630,o),
(710,631,c),
(710,660,l),
(464,660,l),
(464,631,l),
(537,631,o),
(541,621,o),
(541,574,cs),
(541,363,l),
(219,363,l),
(219,574,ls),
(219,621,o),
(223,631,o),
(296,631,c),
(296,660,l),
(50,660,l),
(50,631,l),
(123,630,o),
(127,621,o),
(127,574,cs),
(127,85,ls),
(127,37,o),
(123,29,o),
(50,29,c),
(50,0,l)
);
}
);
width = 759.375;
}
);
note = H;
unicode = 72;
},
{
glyphname = Hbar;
lastChange = "2022-11-03 08:56:38 +0000";
layers = (
{
layerId = "A270BFC0-E682-4EED-9FF7-BE35A5492496";
shapes = (
{
ref = H;
},
{
closed = 1;
nodes = (
(63,465,l),
(687,465,l),
(687,501,l),
(63,501,l)
);
}
);
width = 750;
},
{
layerId = "705D5379-5CC9-457D-BF30-EC6EB9252852";
shapes = (
{
ref = H;
},
{
closed = 1;
nodes = (
(56,464,l),
(720,464,l),
(720,506,l),
(56,506,l)
);
}
);
width = 775;
},
{
layerId = "C3F6A16D-5E1F-403C-905F-9502D4908E23";
shapes = (
{
ref = H;
},
{
closed = 1;
nodes = (
(44,467,l),
(748,467,l),
(748,506,l),
(44,506,l)
);
}
);
width = 791;
},
{
layerId = "4CDCBC45-D394-4652-82F8-278E2907A602";
shapes = (
{
alignment = -1;
ref = H;
},
{
closed = 1;
nodes = (
(60,465,l),
(699,465,l),
(699,503,l),
(60,503,l)
);
}
);
width = 759.375;
}
);
unicode = 294;
},
{
glyphname = I;
kernLeft = E;
kernRight = H;
lastChange = "2022-11-03 08:56:38 +0000";
layers = (
{
anchors = (
{
name = bottom;
pos = (166,0);
},
{
name = ogonek;
pos = (283,10);
},
{
name = top;
pos = (166,660);
},
{
name = topleft;
pos = (40,660);
}
);
layerId = "A270BFC0-E682-4EED-9FF7-BE35A5492496";
shapes = (
{
closed = 1;
nodes = (
(279,0,l),
(279,27,l),
(206,27,o),
(203,35,o),
(203,89,cs),
(203,571,ls),
(203,625,o),
(206,633,o),
(279,633,c),
(279,660,l),
(53,660,l),
(53,633,l),
(127,633,o),
(129,625,o),
(129,571,cs),
(129,89,ls),
(129,35,o),
(127,27,o),
(53,27,c),
(53,0,l)
);
}
);
width = 331;
},
{
anchors = (
{
name = bottom;
pos = (184,0);
},
{
name = ogonek;
pos = (318,10);
},
{
name = top;
pos = (184,660);
},
{
name = topleft;
pos = (27,660);
}
);
layerId = "705D5379-5CC9-457D-BF30-EC6EB9252852";
shapes = (
{
closed = 1;
nodes = (
(323,0,l),
(323,33,l),
(253,33,o),
(245,42,o),
(245,89,cs),
(245,569,ls),
(245,617,o),
(251,627,o),
(323,627,c),
(323,660,l),
(44,660,l),
(44,627,l),
(116,627,o),
(123,618,o),
(123,569,cs),
(123,89,ls),
(123,43,o),
(117,33,o),
(44,33,c),
(44,0,l)
);
}
);
width = 367;
},
{
anchors = (
{
name = bottom;
pos = (188,0);
},
{
name = ogonek;
pos = (341,10);
},
{
name = top;
pos = (188,660);
},
{
name = topleft;
pos = (16,660);
}
);
layerId = "C3F6A16D-5E1F-403C-905F-9502D4908E23";
shapes = (
{
closed = 1;
nodes = (
(342,0,l),
(342,33,l),
(281,33,o),
(274,37,o),
(274,89,cs),
(274,569,ls),
(274,620,o),
(281,627,o),
(342,627,c),
(342,660,l),
(33,660,l),
(33,627,l),
(93,627,o),
(102,620,o),
(102,569,cs),
(102,89,ls),
(102,40,o),
(98,33,o),
(33,33,c),
(33,0,l)
);
}
);
width = 375;
},
{
anchors = (
{
name = bottom;
pos = (173,0);
},
{
name = ogonek;
pos = (296,10);
},
{
name = top;
pos = (173,660);
},
{
name = topleft;
pos = (35,660);
}
);
layerId = "4CDCBC45-D394-4652-82F8-278E2907A602";
shapes = (
{
closed = 1;
nodes = (
(296,0,l),
(296,29,l),
(224,29,o),
(219,38,o),
(219,89,cs),
(219,570,ls),
(219,622,o),
(223,631,o),
(296,631,c),
(296,660,l),
(50,660,l),
(50,631,l),
(123,631,o),
(127,622,o),
(127,570,cs),
(127,89,ls),
(127,38,o),
(123,29,o),
(50,29,c),
(50,0,l)
);
}
);
width = 344.5;
}
);
note = I;
unicode = 73;
},
{
glyphname = J;
lastChange = "2022-11-03 08:56:38 +0000";
layers = (
{
anchors = (
{
name = bottom;
pos = (201,0);
},
{
name = top;
pos = (201,660);
}
);
layerId = "A270BFC0-E682-4EED-9FF7-BE35A5492496";
shapes = (
{
closed = 1;
nodes = (
(219,-210,o),
(243,-72,o),
(243,65,cs),
(243,571,ls),
(243,625,o),
(246,633,o),
(319,633,c),
(319,660,l),
(93,660,l),
(93,633,l),
(167,633,o),
(169,625,o),
(169,571,cs),
(169,-6,ls),
(169,-105,o),
(151,-183,o),
(82,-183,cs),
(59,-183,o),
(46,-173,o),
(46,-156,cs),
(46,-136,o),
(68,-139,o),
(68,-105,cs),
(68,-73,o),
(46,-60,o),
(19,-60,cs),
(-19,-60,o),
(-36,-87,o),
(-36,-119,cs),
(-36,-170,o),
(16,-210,o),
(86,-210,cs)
);
}
);
width = 356;
},
{
anchors = (
{
name = bottom;
pos = (234,0);
},
{
name = top;
pos = (234,660);
}
);
layerId = "705D5379-5CC9-457D-BF30-EC6EB9252852";
shapes = (
{
closed = 1;
nodes = (
(254,-210,o),
(303,-101,o),
(303,103,cs),
(303,569,ls),
(303,617,o),
(308,627,o),
(382,627,c),
(382,660,l),
(103,660,l),
(103,627,l),
(174,627,o),
(181,618,o),
(181,569,cs),
(181,-6,ls),
(181,-109,o),
(169,-168,o),
(93,-168,cs),
(83,-168,o),
(69,-163,o),
(69,-157,cs),
(69,-146,o),
(80,-141,o),
(80,-113,cs),
(80,-79,o),
(50,-57,o),
(22,-57,cs),
(-15,-57,o),
(-43,-78,o),
(-43,-130,cs),
(-43,-171,o),
(-3,-210,o),
(63,-210,cs)
);
}
);
width = 416;
},
{
anchors = (
{
name = bottom;
pos = (138,0);
},
{
name = top;
pos = (138,660);
}
);
layerId = "C3F6A16D-5E1F-403C-905F-9502D4908E23";
shapes = (
{
closed = 1;
nodes = (
(244,-212,o),
(291,-117,o),
(291,71,cs),
(291,569,ls),
(291,619,o),
(297,627,o),
(360,627,c),
(360,660,l),
(51,660,l),
(51,627,l),
(113,627,o),
(119,620,o),
(119,569,cs),
(119,-79,ls),
(119,-150,o),
(95,-178,o),
(59,-178,cs),
(41,-178,o),
(40,-171,o),
(40,-168,cs),
(40,-155,o),
(63,-142,o),
(63,-105,cs),
(63,-56,o),
(23,-32,o),
(-10,-32,cs),
(-45,-32,o),
(-85,-56,o),
(-85,-112,cs),
(-85,-170,o),
(-44,-212,o),
(71,-212,cs)
);
}
);
width = 387;
},
{
anchors = (
{
name = bottom;
pos = (213,0);
},
{
name = top;
pos = (213,660);
}
);
layerId = "4CDCBC45-D394-4652-82F8-278E2907A602";
shapes = (
{
closed = 1;
nodes = (
(232,-210,o),
(266,-83,o),
(266,79,cs),
(266,570,ls),
(266,622,o),
(269,631,o),
(343,631,c),
(343,660,l),
(97,660,l),
(97,631,l),
(170,631,o),
(174,622,o),
(174,570,cs),
(174,-6,ls),
(174,-106,o),
(158,-177,o),
(86,-177,cs),
(68,-177,o),
(55,-169,o),
(55,-156,cs),
(55,-140,o),
(73,-140,o),
(73,-108,cs),
(73,-75,o),
(48,-59,o),
(20,-59,cs),
(-17,-59,o),
(-39,-84,o),
(-39,-123,cs),
(-39,-170,o),
(9,-210,o),
(77,-210,cs)
);
}
);
width = 378.5;
}
);
note = J;
unicode = 74;
},
{
glyphname = K;
kernLeft = E;
kernRight = K;
lastChange = "2022-11-03 08:56:38 +0000";
layers = (
{
anchors = (
{
name = bottom;
pos = (336,0);
},
{
name = top;
pos = (336,660);
}
);
layerId = "A270BFC0-E682-4EED-9FF7-BE35A5492496";
shapes = (
{
closed = 1;
nodes = (
(604,0,l),
(604,27,l),
(563,27,o),
(524,68,o),
(507,89,cs),
(266,394,l),
(211,344,l),
(418,74,ls),
(437,49,o),
(426,27,o),
(407,27,cs),
(386,27,l),
(386,0,l)
);
},
{
closed = 1;
nodes = (
(279,0,l),
(279,27,l),
(206,27,o),
(203,35,o),
(203,89,cs),
(203,571,ls),
(203,625,o),
(206,633,o),
(279,633,c),
(279,660,l),
(53,660,l),
(53,633,l),
(127,633,o),
(129,625,o),
(129,571,cs),
(129,89,ls),
(129,35,o),
(127,27,o),
(53,27,c),
(53,0,l)
);
},
{
closed = 1;
nodes = (
(469,563,ls),
(529,618,o),
(541,633,o),
(580,633,c),
(580,660,l),
(420,660,l),
(420,633,l),
(448,633,ls),
(477,633,o),
(475,610,o),
(454,590,cs),
(189,341,l),
(189,305,l)
);
}
);
width = 609;
},
{
anchors = (
{
name = bottom;
pos = (342,0);
},
{
name = top;
pos = (342,660);
}
);
layerId = "705D5379-5CC9-457D-BF30-EC6EB9252852";
shapes = (
{
closed = 1;
nodes = (
(683,0,l),
(683,33,l),
(623,33,o),
(594,63,o),
(524,168,cs),
(356,419,l),
(271,339,l),
(429,84,ls),
(452,46,o),
(450,33,o),
(422,33,cs),
(409,33,l),
(409,0,l)
);
},
{
closed = 1;
nodes = (
(323,0,l),
(323,33,l),
(253,33,o),
(245,42,o),
(245,89,cs),
(245,569,ls),
(245,617,o),
(251,627,o),
(323,627,c),
(323,660,l),
(44,660,l),
(44,627,l),
(116,627,o),
(123,618,o),
(123,569,cs),
(123,89,ls),
(123,43,o),
(117,33,o),
(44,33,c),
(44,0,l)
);
},
{
closed = 1;
nodes = (
(469,518,ls),
(541,593,o),
(597,627,o),
(667,627,c),
(667,660,l),
(427,660,l),
(427,627,l),
(463,627,ls),
(482,627,o),
(482,613,o),
(462,589,cs),
(235,326,l),
(235,275,l)
);
}
);
width = 688;
},
{
anchors = (
{
name = bottom;
pos = (372,0);
},
{
name = top;
pos = (372,660);
}
);
layerId = "C3F6A16D-5E1F-403C-905F-9502D4908E23";
shapes = (
{
closed = 1;
nodes = (
(743,0,l),
(743,33,l),
(686,33,o),
(664,80,o),
(590,185,cs),
(397,458,l),
(282,339,l),
(461,87,ls),
(485,53,o),
(486,33,o),
(453,33,cs),
(419,33,l),
(419,0,l)
);
},
{
closed = 1;
nodes = (
(342,0,l),
(342,33,l),
(277,33,o),
(274,39,o),
(274,89,cs),
(274,569,ls),
(274,620,o),
(281,627,o),
(342,627,c),
(342,660,l),
(33,660,l),
(33,627,l),
(97,627,o),
(102,620,o),
(102,569,cs),
(102,89,ls),
(102,39,o),
(98,33,o),
(33,33,c),
(33,0,l)
);
},
{
closed = 1;
nodes = (
(510,518,ls),
(579,584,o),
(611,627,o),
(668,627,c),
(668,660,l),
(472,660,l),
(472,627,l),
(498,627,ls),
(533,627,o),
(536,600,o),
(514,578,cs),
(241,311,l),
(241,260,l)
);
}
);
width = 748;
},
{
anchors = (
{
name = bottom;
pos = (338,0);
},
{
name = top;
pos = (338,660);
}
);
layerId = "4CDCBC45-D394-4652-82F8-278E2907A602";
shapes = (
{
closed = 1;
nodes = (
(634,0,l),
(634,29,l),
(586,29,o),
(550,66,o),
(513,119,cs),
(300,403,l),
(234,342,l),
(422,78,ls),
(443,48,o),
(435,29,o),
(413,29,cs),
(395,29,l),
(395,0,l)
);
},
{
closed = 1;
nodes = (
(296,0,l),
(296,29,l),
(224,29,o),
(219,38,o),
(219,89,cs),
(219,570,ls),
(219,622,o),
(223,631,o),
(296,631,c),
(296,660,l),
(50,660,l),
(50,631,l),
(123,631,o),
(127,622,o),
(127,570,cs),
(127,89,ls),
(127,38,o),
(123,29,o),
(50,29,c),
(50,0,l)
);
},
{
closed = 1;
nodes = (
(469,546,ls),
(534,609,o),
(562,631,o),
(613,631,c),
(613,660,l),
(423,660,l),
(423,631,l),
(454,631,ls),
(479,631,o),
(478,611,o),
(457,590,cs),
(206,335,l),
(206,294,l)
);
}
);
width = 638.625;
}
);
note = K;
unicode = 75;
},
{
glyphname = L;
kernLeft = E;
kernRight = L;
lastChange = "2022-11-03 08:56:38 +0000";
layers = (
{
anchors = (
{
name = bottom;
pos = (277,0);
},
{
name = center;
pos = (277,330);
},
{
name = top;
pos = (224,660);
},
{
name = topright;
pos = (383,470);
}
);
layerId = "A270BFC0-E682-4EED-9FF7-BE35A5492496";
shapes = (
{
closed = 1;
nodes = (
(518,0,l),
(529,165,l),
(502,165,l),
(480,46,o),
(443,30,o),
(326,30,cs),
(224,30,o),
(203,42,o),
(203,114,cs),
(203,571,ls),
(203,625,o),
(206,633,o),
(279,633,c),
(279,660,l),
(53,660,l),
(53,633,l),
(127,633,o),
(129,625,o),
(129,571,cs),
(129,89,ls),
(129,34,o),
(127,27,o),
(53,27,c),
(53,0,l)
);
}
);
width = 565;
},
{
anchors = (
{
name = bottom;
pos = (282,0);
},
{
name = center;
pos = (282,330);
},
{
name = top;
pos = (250,627);
},
{
name = topright;
pos = (418,500);
}
);
layerId = "705D5379-5CC9-457D-BF30-EC6EB9252852";
shapes = (
{
closed = 1;
nodes = (
(539,0,l),
(550,182,l),
(524,182,l),
(496,77,o),
(467,40,o),
(360,40,cs),
(270,40,o),
(245,39,o),
(245,114,cs),
(245,570,ls),
(245,618,o),
(250,627,o),
(328,627,c),
(328,660,l),
(44,660,l),
(44,627,l),
(116,627,o),
(123,618,o),
(123,570,cs),
(123,89,ls),
(123,43,o),
(117,33,o),
(44,33,c),
(44,0,l)
);
}
);
width = 594;
},
{
anchors = (
{
name = bottom;
pos = (304,0);
},
{
name = center;
pos = (196,330);
},
{
name = top;
pos = (245,660);
},
{
name = topright;
pos = (434,470);
}
);
layerId = "C3F6A16D-5E1F-403C-905F-9502D4908E23";
shapes = (
{
closed = 1;
nodes = (
(563,0,l),
(575,174,l),
(534,174,l),
(511,64,o),
(443,37,o),
(336,37,cs),
(277,37,o),
(274,45,o),
(274,93,cs),
(274,569,ls),
(274,620,o),
(281,627,o),
(342,627,c),
(342,660,l),
(33,660,l),
(33,627,l),
(97,627,o),
(102,620,o),
(102,569,cs),
(102,89,ls),
(102,39,o),
(98,33,o),
(33,33,c),
(33,0,l)
);
}
);
width = 594;
},
{
anchors = (
{
name = bottom;
pos = (279,0);
},
{
name = center;
pos = (279,330);
},
{
name = top;
pos = (234,648);
},
{
name = topright;
pos = (396,481);
}
);
layerId = "4CDCBC45-D394-4652-82F8-278E2907A602";
shapes = (
{
closed = 1;
nodes = (
(526,0,l),
(537,171,l),
(510,171,l),
(486,58,o),
(452,34,o),
(339,34,cs),
(241,34,o),
(219,41,o),
(219,114,cs),
(219,571,ls),
(219,622,o),
(223,631,o),
(297,631,c),
(297,660,l),
(50,660,l),
(50,631,l),
(123,631,o),
(127,622,o),
(127,571,cs),
(127,89,ls),
(127,37,o),
(123,29,o),
(50,29,c),
(50,0,l)
);
}
);
width = 575.875;
}
);
note = L;
unicode = 76;
},
{
glyphname = Lslash;
kernLeft = E;
kernRight = L;
lastChange = "2022-11-03 08:56:38 +0000";
layers = (
{
layerId = "A270BFC0-E682-4EED-9FF7-BE35A5492496";
shapes = (
{
closed = 1;
nodes = (
(409,438,l),
(409,483,l),
(53,232,l),
(53,187,l)
);
},
{
pos = (27,0);
ref = L;
}
);
width = 592;
},
{
layerId = "705D5379-5CC9-457D-BF30-EC6EB9252852";
shapes = (
{
closed = 1;
nodes = (
(400,431,l),
(400,483,l),
(44,232,l),
(44,180,l)
);
},
{
pos = (18,0);
ref = L;
}
);
width = 612;
},
{
layerId = "C3F6A16D-5E1F-403C-905F-9502D4908E23";
shapes = (
{
closed = 1;
nodes = (
(407,437,l),
(407,501,l),
(31,250,l),
(31,186,l)
);
},
{
pos = (5,0);
ref = L;
}
);
width = 599;
},
{
layerId = "4CDCBC45-D394-4652-82F8-278E2907A602";
shapes = (
{
closed = 1;
nodes = (
(406,435,l),
(406,483,l),
(50,232,l),
(50,184,l)
);
},
{
alignment = -1;
pos = (24,0);
ref = L;
}
);
width = 599.5;
}
);
unicode = 321;
},
{
glyphname = M;
kernLeft = M;
kernRight = H;
lastChange = "2022-11-03 08:56:38 +0000";
layers = (
{
anchors = (
{
name = bottom;
pos = (426,0);
},
{
name = top;
pos = (426,660);
}
);
layerId = "A270BFC0-E682-4EED-9FF7-BE35A5492496";
shapes = (
{
closed = 1;
nodes = (
(228,0,l),
(228,27,l),
(196,27,ls),
(148,27,o),
(146,36,o),
(146,80,cs),
(146,570,l),
(148,570,l),
(378,42,l),
(388,42,l),
(614,570,l),
(616,570,l),
(616,83,ls),
(616,37,o),
(611,27,o),
(538,27,c),
(538,0,l),
(766,0,l),
(766,27,l),
(698,27,o),
(690,36,o),
(690,83,cs),
(690,576,ls),
(690,625,o),
(697,633,o),
(766,633,c),
(766,660,l),
(620,660,l),
(406,161,l),
(405,161,l),
(193,660,l),
(38,660,l),
(38,633,l),
(105,633,o),
(112,625,o),
(112,576,cs),
(112,80,ls),
(112,40,o),
(107,27,o),
(65,27,cs),
(38,27,l),
(38,0,l)
);
}
);
width = 819;
},
{
anchors = (
{
name = bottom;
pos = (435,0);
},
{
name = top;
pos = (435,660);
}
);
layerId = "705D5379-5CC9-457D-BF30-EC6EB9252852";
shapes = (
{
closed = 1;
nodes = (
(258,0,l),
(258,33,l),
(212,33,ls),
(164,33,o),
(162,42,o),
(162,86,cs),
(162,570,l),
(164,570,l),
(381,0,l),
(412,0,l),
(627,570,l),
(629,570,l),
(629,89,ls),
(629,43,o),
(624,33,o),
(551,33,c),
(551,0,l),
(824,0,l),
(824,33,l),
(754,33,o),
(746,42,o),
(746,89,cs),
(746,570,ls),
(746,619,o),
(753,626,o),
(824,627,c),
(824,660,l),
(619,660,l),
(437,183,l),
(434,183,l),
(251,660,l),
(39,660,l),
(39,627,l),
(110,626,o),
(117,619,o),
(117,570,cs),
(117,86,ls),
(117,46,o),
(112,33,o),
(70,33,cs),
(40,33,l),
(40,0,l)
);
}
);
width = 869;
},
{
anchors = (
{
name = bottom;
pos = (425,0);
},
{
name = top;
pos = (425,660);
}
);
layerId = "C3F6A16D-5E1F-403C-905F-9502D4908E23";
shapes = (
{
closed = 1;
nodes = (
(207,0,l),
(207,33,l),
(187,33,ls),
(139,33,o),
(130,42,o),
(130,86,cs),
(130,530,l),
(131,530,l),
(331,23,l),
(395,23,l),
(589,540,l),
(591,540,l),
(591,89,ls),
(591,43,o),
(586,33,o),
(529,33,c),
(529,0,l),
(831,0,l),
(831,33,l),
(770,33,o),
(763,42,o),
(763,89,cs),
(763,570,ls),
(763,619,o),
(769,626,o),
(831,627,c),
(831,660,l),
(599,660,l),
(433,228,l),
(432,228,l),
(261,660,l),
(18,660,l),
(18,627,l),
(82,626,o),
(89,619,o),
(89,570,cs),
(89,86,ls),
(89,46,o),
(83,33,o),
(32,33,cs),
(19,33,l),
(19,0,l)
);
}
);
width = 864;
},
{
anchors = (
{
name = bottom;
pos = (429,0);
},
{
name = top;
pos = (429,660);
}
);
layerId = "4CDCBC45-D394-4652-82F8-278E2907A602";
shapes = (
{
closed = 1;
nodes = (
(239,0,l),
(239,29,l),
(202,29,ls),
(154,29,o),
(152,38,o),
(152,82,cs),
(152,570,l),
(154,570,l),
(379,26,l),
(397,26,l),
(619,570,l),
(621,570,l),
(621,85,ls),
(621,39,o),
(616,29,o),
(543,29,c),
(543,0,l),
(788,0,l),
(788,29,l),
(719,29,o),
(711,38,o),
(711,85,cs),
(711,574,ls),
(711,623,o),
(718,630,o),
(788,631,c),
(788,660,l),
(620,660,l),
(418,169,l),
(416,169,l),
(215,660,l),
(38,660,l),
(38,631,l),
(107,630,o),
(114,623,o),
(114,574,cs),
(114,82,ls),
(114,42,o),
(109,29,o),
(67,29,cs),
(39,29,l),
(39,0,l)
);
}
);
width = 837.75;
}
);
note = M;
unicode = 77;
},
{
glyphname = N;
kernLeft = M;
kernRight = N;
lastChange = "2022-11-03 08:56:38 +0000";
layers = (
{
anchors = (
{
name = bottom;
pos = (360,0);
},
{
name = top;
pos = (360,660);
}
);
layerId = "A270BFC0-E682-4EED-9FF7-BE35A5492496";
shapes = (
{
closed = 1;
nodes = (
(576,-6,l),
(576,585,ls),
(576,617,o),
(591,633,o),
(622,633,cs),
(652,633,l),
(652,660,l),
(456,660,l),
(456,633,l),
(491,633,ls),
(525,633,o),
(542,617,o),
(542,585,cs),
(542,137,l),
(540,137,l),
(194,660,l),
(41,660,l),
(41,633,l),
(111,633,o),
(118,625,o),
(118,576,cs),
(118,79,ls),
(118,43,o),
(103,27,o),
(71,27,cs),
(42,27,l),
(42,0,l),
(238,0,l),
(238,27,l),
(202,27,ls),
(166,27,o),
(152,42,o),
(152,79,cs),
(152,570,l),
(154,570,l),
(543,-6,l)
);
}
);
width = 691;
},
{
anchors = (
{
name = bottom;
pos = (360,0);
},
{
name = top;
pos = (360,660);
}
);
layerId = "705D5379-5CC9-457D-BF30-EC6EB9252852";
shapes = (
{
closed = 1;
nodes = (
(603,-6,l),
(603,579,ls),
(603,611,o),
(618,627,o),
(649,627,cs),
(679,627,l),
(679,660,l),
(462,660,l),
(462,627,l),
(507,627,ls),
(541,627,o),
(558,611,o),
(558,579,cs),
(558,167,l),
(555,167,l),
(232,660,l),
(39,660,l),
(39,627,l),
(110,626,o),
(117,619,o),
(117,570,cs),
(117,85,ls),
(117,49,o),
(102,33,o),
(70,33,cs),
(40,33,l),
(40,0,l),
(258,0,l),
(258,33,l),
(212,33,ls),
(176,33,o),
(162,48,o),
(162,85,cs),
(162,548,l),
(165,548,l),
(527,-6,l)
);
}
);
width = 719;
},
{
anchors = (
{
name = bottom;
pos = (348,0);
},
{
name = top;
pos = (348,660);
}
);
layerId = "C3F6A16D-5E1F-403C-905F-9502D4908E23";
shapes = (
{
closed = 1;
nodes = (
(609,-7,l),
(609,579,ls),
(609,611,o),
(624,627,o),
(655,627,cs),
(674,627,l),
(674,660,l),
(489,660,l),
(489,627,l),
(517,627,ls),
(551,627,o),
(568,611,o),
(568,579,cs),
(568,190,l),
(565,190,l),
(264,660,l),
(28,660,l),
(28,627,l),
(92,626,o),
(99,619,o),
(99,570,cs),
(99,85,ls),
(99,49,o),
(84,33,o),
(52,33,cs),
(29,33,l),
(29,0,l),
(217,0,l),
(217,33,l),
(190,33,ls),
(150,33,o),
(140,48,o),
(140,85,cs),
(140,530,l),
(141,530,l),
(493,-7,l)
);
}
);
width = 703;
},
{
anchors = (
{
name = bottom;
pos = (360,0);
},
{
name = top;
pos = (360,660);
}
);
layerId = "4CDCBC45-D394-4652-82F8-278E2907A602";
shapes = (
{
closed = 1;
nodes = (
(586,-6,l),
(586,583,ls),
(586,615,o),
(601,631,o),
(632,631,cs),
(662,631,l),
(662,660,l),
(458,660,l),
(458,631,l),
(497,631,ls),
(531,631,o),
(548,615,o),
(548,583,cs),
(548,148,l),
(546,148,l),
(208,660,l),
(40,660,l),
(40,631,l),
(111,630,o),
(118,623,o),
(118,574,cs),
(118,81,ls),
(118,45,o),
(103,29,o),
(71,29,cs),
(41,29,l),
(41,0,l),
(246,0,l),
(246,29,l),
(206,29,ls),
(170,29,o),
(156,44,o),
(156,81,cs),
(156,562,l),
(158,562,l),
(537,-6,l)
);
}
);
width = 701.5;
}
);
note = N;
unicode = 78;
},
{
glyphname = Eng;
lastChange = "2022-11-03 08:56:38 +0000";
layers = (
{
anchors = (
{
name = bottom;
pos = (360,0);
},
{
name = top;
pos = (360,660);
}
);
layerId = "A270BFC0-E682-4EED-9FF7-BE35A5492496";
shapes = (
{
closed = 1;
nodes = (
(567,-212,o),
(576,-129,o),
(576,-60,cs),
(576,585,ls),
(576,617,o),
(591,633,o),
(622,633,cs),
(652,633,l),
(652,660,l),
(456,660,l),
(456,633,l),
(491,633,ls),
(525,633,o),
(542,617,o),
(542,585,cs),
(542,151,l),
(540,151,l),
(194,660,l),
(41,660,l),
(41,633,l),
(111,633,o),
(118,625,o),
(118,576,cs),
(118,79,ls),
(118,43,o),
(103,27,o),
(71,27,cs),
(42,27,l),
(42,0,l),
(238,0,l),
(238,27,l),
(202,27,ls),
(166,27,o),
(152,42,o),
(152,79,cs),
(152,570,l),
(154,570,l),
(542,1,l),
(542,-102,ls),
(542,-161,o),
(503,-185,o),
(474,-185,cs),
(460,-185,o),
(447,-179,o),
(447,-166,cs),
(447,-152,o),
(460,-148,o),
(460,-127,cs),
(460,-101,o),
(440,-85,o),
(417,-85,cs),
(394,-85,o),
(372,-102,o),
(372,-136,cs),
(372,-180,o),
(410,-212,o),
(470,-212,cs)
);
}
);
width = 691;
},
{
anchors = (
{
name = bottom;
pos = (360,0);
},
{
name = top;
pos = (360,660);
}
);
layerId = "705D5379-5CC9-457D-BF30-EC6EB9252852";
shapes = (
{
closed = 1;
nodes = (
(575,-212,o),
(603,-160,o),
(603,25,cs),
(603,579,ls),
(603,611,o),
(618,627,o),
(649,627,cs),
(679,627,l),
(679,660,l),
(462,660,l),
(462,627,l),
(507,627,ls),
(541,627,o),
(558,611,o),
(558,579,cs),
(558,208,l),
(555,208,l),
(232,660,l),
(39,660,l),
(39,627,l),
(110,626,o),
(117,619,o),
(117,570,cs),
(117,85,ls),
(117,49,o),
(102,33,o),
(70,33,cs),
(40,33,l),
(40,0,l),
(258,0,l),
(258,33,l),
(212,33,ls),
(176,33,o),
(162,48,o),
(162,85,cs),
(162,548,l),
(165,548,l),
(558,0,l),
(558,-79,ls),
(558,-144,o),
(541,-175,o),
(517,-175,cs),
(508,-175,o),
(496,-173,o),
(496,-160,cs),
(496,-153,o),
(500,-150,o),
(500,-139,cs),
(500,-113,o),
(473,-101,o),
(457,-101,cs),
(428,-101,o),
(408,-122,o),
(408,-154,cs),
(408,-187,o),
(430,-212,o),
(488,-212,cs)
);
}
);
width = 719;
},
{
anchors = (
{
name = bottom;
pos = (348,0);
},
{
name = top;
pos = (348,660);
}
);
layerId = "C3F6A16D-5E1F-403C-905F-9502D4908E23";
shapes = (
{
closed = 1;
nodes = (
(583,-212,o),
(609,-161,o),
(609,2,cs),
(609,579,ls),
(609,611,o),
(624,627,o),
(655,627,cs),
(674,627,l),
(674,660,l),
(489,660,l),
(489,627,l),
(517,627,ls),
(551,627,o),
(568,611,o),
(568,579,cs),
(568,281,l),
(565,281,l),
(264,660,l),
(28,660,l),
(28,627,l),
(92,626,o),
(99,619,o),
(99,570,cs),
(99,85,ls),
(99,49,o),
(84,33,o),
(52,33,cs),
(29,33,l),
(29,0,l),
(217,0,l),
(217,33,l),
(190,33,ls),
(150,33,o),
(140,48,o),
(140,85,cs),
(140,530,l),
(141,530,l),
(568,-7,l),
(568,-60,ls),
(568,-161,o),
(539,-182,o),
(520,-182,cs),
(496,-182,o),
(479,-177,o),
(479,-161,cs),
(479,-141,o),
(505,-132,o),
(505,-94,cs),
(505,-53,o),
(475,-34,o),
(441,-34,cs),
(400,-34,o),
(369,-63,o),
(369,-113,cs),
(369,-176,o),
(416,-212,o),
(494,-212,cs)
);
}
);
width = 703;
},
{
anchors = (
{
name = bottom;
pos = (360,0);
},
{
name = top;
pos = (360,660);
}
);
layerId = "4CDCBC45-D394-4652-82F8-278E2907A602";
shapes = (
{
closed = 1;
nodes = (
(555,-212,o),
(586,-133,o),
(586,-24,cs),
(586,583,ls),
(586,615,o),
(601,631,o),
(632,631,cs),
(662,631,l),
(662,660,l),
(458,660,l),
(458,631,l),
(497,631,ls),
(531,631,o),
(548,615,o),
(548,583,cs),
(548,164,l),
(546,164,l),
(208,660,l),
(40,660,l),
(40,631,l),
(111,630,o),
(118,623,o),
(118,574,cs),
(118,81,ls),
(118,45,o),
(103,29,o),
(71,29,cs),
(41,29,l),
(41,0,l),
(246,0,l),
(246,29,l),
(206,29,ls),
(170,29,o),
(156,44,o),
(156,81,cs),
(156,562,l),
(158,562,l),
(548,-6,l),
(548,-74,ls),
(548,-151,o),
(491,-181,o),
(464,-181,cs),
(453,-181,o),
(440,-177,o),
(440,-164,cs),
(440,-152,o),
(450,-149,o),
(450,-133,cs),
(449,-105,o),
(427,-91,o),
(406,-91,cs),
(381,-91,o),
(360,-109,o),
(360,-143,cs),
(360,-183,o),
(392,-212,o),
(452,-212,cs)
);
}
);
width = 702;
}
);
metricLeft = "=N";
metricRight = "=N";
unicode = 330;
},
{
glyphname = O;
kernLeft = O;
kernRight = O;
lastChange = "2022-11-03 08:56:38 +0000";
layers = (
{
anchors = (
{
name = bottom;
pos = (352,0);
},
{
name = center;
pos = (352,330);
},
{
name = ogonek;
pos = (613,10);
},
{
name = top;
pos = (352,660);
},
{
name = topleft;
pos = (44,660);
},
{
name = topright;
pos = (659,660);
}
);
layerId = "A270BFC0-E682-4EED-9FF7-BE35A5492496";
shapes = (
{
closed = 1;
nodes = (
(555,-12,o),
(645,137,o),
(645,327,cs),
(645,510,o),
(560,672,o),
(351,672,cs),
(142,672,o),
(57,510,o),
(57,327,cs),
(57,137,o),
(147,-12,o),
(351,-12,cs)
);
},
{
closed = 1;
nodes = (
(169,18,o),
(145,208,o),
(145,327,cs),
(145,469,o),
(167,642,o),
(351,642,cs),
(535,642,o),
(557,469,o),
(557,327,cs),
(557,208,o),
(533,18,o),
(351,18,cs)
);
}
);
width = 701;
},
{
anchors = (
{
name = bottom;
pos = (363,0);
},
{
name = center;
pos = (363,330);
},
{
name = ogonek;
pos = (652,10);
},
{
name = top;
pos = (363,660);
},
{
name = topleft;
pos = (21,660);
},
{
name = topright;
pos = (704,660);
}
);
layerId = "705D5379-5CC9-457D-BF30-EC6EB9252852";
shapes = (
{
closed = 1;
nodes = (
(585,-12,o),
(679,129,o),
(679,331,cs),
(679,533,o),
(585,672,o),
(363,672,cs),
(141,672,o),
(47,533,o),
(47,331,cs),
(47,129,o),
(141,-12,o),
(363,-12,cs)
);
},
{
closed = 1;
nodes = (
(245,29,o),
(184,134,o),
(184,331,cs),
(184,527,o),
(245,631,o),
(363,631,cs),
(481,631,o),
(542,527,o),
(542,331,cs),
(542,134,o),
(481,29,o),
(363,29,cs)
);
}
);
width = 726;
},
{
anchors = (
{
name = bottom;
pos = (374,0);
},
{
name = center;
pos = (374,330);
},
{
name = ogonek;
pos = (677,10);
},
{
name = top;
pos = (374,660);
},
{
name = topleft;
pos = (15,660);
},
{
name = topright;
pos = (733,660);
}
);
layerId = "C3F6A16D-5E1F-403C-905F-9502D4908E23";
shapes = (
{
closed = 1;
nodes = (
(591,-10,o),
(714,110,o),
(714,331,cs),
(714,552,o),
(591,672,o),
(374,672,cs),
(157,672,o),
(34,552,o),
(34,331,cs),
(34,110,o),
(157,-10,o),
(374,-10,cs)
);
},
{
closed = 1;
nodes = (
(253,23,o),
(215,128,o),
(215,331,cs),
(215,534,o),
(253,639,o),
(374,639,cs),
(485,639,o),
(533,534,o),
(533,331,cs),
(533,128,o),
(495,23,o),
(374,23,cs)
);
}
);
width = 748;
},
{
anchors = (
{
name = bottom;
pos = (356,0);
},
{
name = center;
pos = (356,330);
},
{
name = ogonek;
pos = (628,10);
},
{
name = top;
pos = (356,660);
},
{
name = topleft;
pos = (35,660);
},
{
name = topright;
pos = (676,660);
}
);
layerId = "4CDCBC45-D394-4652-82F8-278E2907A602";
shapes = (
{
closed = 1;
nodes = (
(566,-12,o),
(658,134,o),
(658,329,cs),
(658,519,o),
(569,672,o),
(356,672,cs),
(142,672,o),
(53,519,o),
(53,329,cs),
(53,134,o),
(145,-12,o),
(356,-12,cs)
);
},
{
closed = 1;
nodes = (
(198,22,o),
(160,180,o),
(160,329,cs),
(160,491,o),
(196,638,o),
(356,638,cs),
(515,638,o),
(551,491,o),
(551,329,cs),
(551,180,o),
(514,22,o),
(356,22,cs)
);
}
);
width = 710.375;
}
);
note = O;
unicode = 79;
},
{
glyphname = Oslash;
kernLeft = O;
kernRight = O;
lastChange = "2022-11-03 08:56:38 +0000";
layers = (
{
anchors = (
{
name = bottom;
pos = (332,0);
},
{
name = top;
pos = (332,660);
}
);
layerId = "A270BFC0-E682-4EED-9FF7-BE35A5492496";
shapes = (
{
closed = 1;
nodes = (
(98,-6,l),
(613,666,l),
(573,666,l),
(57,-6,l)
);
},
{
pos = (4,0);
ref = O;
}
);
width = 705;
},
{
anchors = (
{
name = bottom;
pos = (362,0);
},
{
name = top;
pos = (362,660);
}
);
layerId = "705D5379-5CC9-457D-BF30-EC6EB9252852";
shapes = (
{
closed = 1;
nodes = (
(103,-6,l),
(672,666,l),
(622,666,l),
(52,-6,l)
);
},
{
ref = O;
}
);
width = 726;
},
{
anchors = (
{
name = bottom;
pos = (379,0);
},
{
name = top;
pos = (379,660);
}
);
layerId = "C3F6A16D-5E1F-403C-905F-9502D4908E23";
shapes = (
{
closed = 1;
nodes = (
(113,-6,l),
(682,666,l),
(620,666,l),
(50,-6,l)
);
},
{
ref = O;
}
);
width = 748;
},
{
anchors = (
{
name = bottom;
pos = (343,0);
},
{
name = top;
pos = (343,660);
}
);
layerId = "4CDCBC45-D394-4652-82F8-278E2907A602";
shapes = (
{
closed = 1;
nodes = (
(100,-6,l),
(635,666,l),
(591,666,l),
(55,-6,l)
);
},
{
alignment = -1;
pos = (3,0);
ref = O;
}
);
width = 712.875;
}
);
note = Oslash;
unicode = 216;
},
{
glyphname = OE;
kernLeft = O;
kernRight = E;
lastChange = "2022-11-03 08:56:38 +0000";
layers = (
{
anchors = (
{
name = bottom;
pos = (481,0);
},
{
name = top;
pos = (481,660);
}
);
layerId = "A270BFC0-E682-4EED-9FF7-BE35A5492496";
shapes = (
{
closed = 1;
nodes = (
(909,0,l),
(920,165,l),
(893,165,l),
(871,46,o),
(830,30,o),
(709,30,cs),
(605,30,o),
(584,42,o),
(584,114,cs),
(584,326,l),
(706,326,ls),
(787,326,o),
(791,303,o),
(800,243,c),
(824,243,l),
(824,442,l),
(800,442,l),
(791,382,o),
(787,360,o),
(706,360,cs),
(584,360,l),
(584,592,ls),
(584,625,o),
(588,629,o),
(619,629,cs),
(712,629,ls),
(825,629,o),
(844,605,o),
(858,504,c),
(885,504,l),
(885,660,l),
(374,660,ls),
(176,660,o),
(57,544,o),
(57,339,cs),
(57,126,o),
(185,0,o),
(393,0,cs)
);
},
{
closed = 1;
nodes = (
(270,30,o),
(145,91,o),
(145,342,cs),
(145,525,o),
(211,629,o),
(421,629,cs),
(508,629,o),
(510,611,o),
(510,568,cs),
(510,122,ls),
(510,42,o),
(479,30,o),
(415,30,cs)
);
}
);
width = 961;
},
{
anchors = (
{
name = bottom;
pos = (492,0);
},
{
name = top;
pos = (492,660);
}
);
layerId = "705D5379-5CC9-457D-BF30-EC6EB9252852";
shapes = (
{
closed = 1;
nodes = (
(941,0,l),
(953,184,l),
(928,184,l),
(895,67,o),
(868,39,o),
(739,39,cs),
(647,39,o),
(633,53,o),
(633,113,cs),
(633,323,l),
(732,323,ls),
(803,323,o),
(812,304,o),
(824,240,c),
(849,240,l),
(849,452,l),
(824,452,l),
(812,387,o),
(803,367,o),
(732,367,cs),
(633,367,l),
(633,587,ls),
(633,613,o),
(639,621,o),
(671,621,cs),
(749,621,ls),
(853,621,o),
(873,587,o),
(895,493,c),
(921,493,l),
(921,660,l),
(393,660,ls),
(165,660,o),
(47,527,o),
(47,329,cs),
(47,137,o),
(159,0,o),
(381,0,cs)
);
},
{
closed = 1;
nodes = (
(245,39,o),
(184,188,o),
(184,340,cs),
(184,490,o),
(244,621,o),
(429,621,cs),
(497,621,o),
(511,603,o),
(511,564,cs),
(511,95,ls),
(511,59,o),
(491,39,o),
(425,39,cs)
);
}
);
width = 988;
},
{
anchors = (
{
name = bottom;
pos = (510,0);
},
{
name = top;
pos = (510,660);
}
);
layerId = "C3F6A16D-5E1F-403C-905F-9502D4908E23";
shapes = (
{
closed = 1;
nodes = (
(960,0,l),
(972,174,l),
(931,174,l),
(910,60,o),
(850,37,o),
(758,37,cs),
(676,37,o),
(662,47,o),
(662,103,cs),
(662,323,l),
(771,323,ls),
(823,323,o),
(837,308,o),
(845,230,c),
(878,230,l),
(878,459,l),
(845,459,l),
(836,383,o),
(823,367,o),
(771,367,cs),
(662,367,l),
(662,589,ls),
(662,614,o),
(672,623,o),
(699,623,cs),
(758,623,ls),
(848,623,o),
(883,605,o),
(909,503,c),
(950,503,l),
(950,660,l),
(404,660,ls),
(168,660,o),
(34,552,o),
(34,331,cs),
(34,110,o),
(168,0,o),
(404,0,cs)
);
},
{
closed = 1;
nodes = (
(274,39,o),
(214,184,o),
(214,340,cs),
(214,494,o),
(272,621,o),
(439,621,cs),
(491,621,o),
(501,613,o),
(501,564,cs),
(501,95,ls),
(501,50,o),
(486,39,o),
(435,39,cs)
);
}
);
width = 996;
},
{
anchors = (
{
name = bottom;
pos = (485,0);
},
{
name = top;
pos = (485,660);
}
);
layerId = "4CDCBC45-D394-4652-82F8-278E2907A602";
shapes = (
{
closed = 1;
nodes = (
(921,0,l),
(932,172,l),
(906,172,l),
(880,54,o),
(844,33,o),
(720,33,cs),
(621,33,o),
(602,46,o),
(602,114,cs),
(602,325,l),
(716,325,ls),
(793,325,o),
(799,303,o),
(809,242,c),
(833,242,l),
(833,446,l),
(809,446,l),
(799,384,o),
(793,363,o),
(716,363,cs),
(602,363,l),
(602,590,ls),
(602,621,o),
(607,626,o),
(639,626,cs),
(726,626,ls),
(836,626,o),
(855,598,o),
(872,500,c),
(899,500,l),
(899,660,l),
(381,660,ls),
(172,660,o),
(53,538,o),
(53,335,cs),
(53,130,o),
(175,0,o),
(389,0,cs)
);
},
{
closed = 1;
nodes = (
(261,33,o),
(160,127,o),
(160,341,cs),
(160,512,o),
(223,626,o),
(424,626,cs),
(504,626,o),
(510,608,o),
(510,567,cs),
(510,112,ls),
(510,48,o),
(484,33,o),
(419,33,cs)
);
}
);
width = 971.125;
}
);
unicode = 338;
},
{
glyphname = P;
kernLeft = E;
lastChange = "2022-11-03 08:56:38 +0000";
layers = (
{
anchors = (
{
name = bottom;
pos = (280,0);
},
{
name = top;
pos = (280,660);
}
);
layerId = "A270BFC0-E682-4EED-9FF7-BE35A5492496";
shapes = (
{
closed = 1;
nodes = (
(287,0,l),
(287,27,l),
(210,27,o),
(203,35,o),
(203,83,cs),
(203,272,l),
(278,272,ls),
(413,272,o),
(515,336,o),
(515,473,cs),
(515,608,o),
(416,660,o),
(278,660,cs),
(53,660,l),
(53,633,l),
(122,633,o),
(129,624,o),
(129,576,cs),
(129,83,ls),
(129,37,o),
(123,27,o),
(53,27,c),
(53,0,l)
);
},
{
closed = 1;
nodes = (
(203,592,ls),
(203,615,o),
(210,627,o),
(265,627,cs),
(379,627,o),
(433,579,o),
(433,466,cs),
(433,353,o),
(379,306,o),
(267,306,cs),
(203,306,l)
);
}
);
width = 553;
},
{
anchors = (
{
name = bottom;
pos = (334,0);
},
{
name = top;
pos = (334,660);
}
);
layerId = "705D5379-5CC9-457D-BF30-EC6EB9252852";
shapes = (
{
closed = 1;
nodes = (
(339,0,l),
(339,33,l),
(253,33,o),
(245,41,o),
(245,89,cs),
(245,262,l),
(303,262,ls),
(542,262,o),
(575,391,o),
(575,470,cs),
(575,536,o),
(552,660,o),
(331,660,cs),
(44,660,l),
(44,627,l),
(116,627,o),
(123,618,o),
(123,570,cs),
(123,89,ls),
(123,43,o),
(117,33,o),
(44,33,c),
(44,0,l)
);
},
{
closed = 1;
nodes = (
(245,586,ls),
(245,606,o),
(251,621,o),
(301,621,cs),
(399,621,o),
(445,564,o),
(445,467,cs),
(445,363,o),
(392,302,o),
(305,302,cs),
(245,302,l)
);
}
);
width = 597;
},
{
anchors = (
{
name = bottom;
pos = (325,0);
},
{
name = top;
pos = (325,660);
}
);
layerId = "C3F6A16D-5E1F-403C-905F-9502D4908E23";
shapes = (
{
closed = 1;
nodes = (
(339,0,l),
(339,33,l),
(282,33,o),
(274,40,o),
(274,89,cs),
(274,262,l),
(301,262,ls),
(489,262,o),
(607,318,o),
(607,470,cs),
(607,593,o),
(510,660,o),
(340,660,cs),
(33,660,l),
(33,627,l),
(94,627,o),
(102,620,o),
(102,570,cs),
(102,89,ls),
(102,40,o),
(98,33,o),
(33,33,c),
(33,0,l)
);
},
{
closed = 1;
nodes = (
(274,588,ls),
(274,620,o),
(280,623,o),
(310,623,cs),
(392,623,o),
(434,569,o),
(434,467,cs),
(434,349,o),
(376,302,o),
(302,302,cs),
(274,302,l)
);
}
);
width = 624;
},
{
anchors = (
{
name = bottom;
pos = (300,0);
},
{
name = top;
pos = (300,660);
}
);
layerId = "4CDCBC45-D394-4652-82F8-278E2907A602";
shapes = (
{
closed = 1;
nodes = (
(307,0,l),
(307,29,l),
(226,29,o),
(219,37,o),
(219,85,cs),
(219,268,l),
(287,268,ls),
(461,268,o),
(538,357,o),
(538,472,cs),
(538,581,o),
(467,660,o),
(298,660,cs),
(50,660,l),
(50,631,l),
(120,631,o),
(127,622,o),
(127,574,cs),
(127,85,ls),
(127,39,o),
(121,29,o),
(50,29,c),
(50,0,l)
);
},
{
closed = 1;
nodes = (
(219,590,ls),
(219,612,o),
(225,625,o),
(279,625,cs),
(387,625,o),
(438,573,o),
(438,466,cs),
(438,357,o),
(384,305,o),
(281,305,cs),
(219,305,l)
);
}
);
width = 569.5;
}
);
note = P;
unicode = 80;
},
{
glyphname = Thorn;
kernLeft = E;
lastChange = "2022-11-03 08:56:38 +0000";
layers = (
{
anchors = (
{
name = bottom;
pos = (280,0);
},
{
name = top;
pos = (280,660);
}
);
layerId = "A270BFC0-E682-4EED-9FF7-BE35A5492496";
shapes = (
{
closed = 1;
nodes = (
(287,0,l),
(287,27,l),
(210,27,o),
(203,35,o),
(203,83,cs),
(203,162,l),
(278,162,ls),
(425,162,o),
(515,213,o),
(515,358,cs),
(515,500,o),
(429,550,o),
(278,550,cs),
(203,550,l),
(203,571,ls),
(203,625,o),
(206,633,o),
(279,633,c),
(279,660,l),
(53,660,l),
(53,633,l),
(127,633,o),
(129,625,o),
(129,571,cs),
(129,83,ls),
(129,37,o),
(123,27,o),
(53,27,c),
(53,0,l)
);
},
{
closed = 1;
nodes = (
(203,482,ls),
(203,506,o),
(212,517,o),
(265,517,cs),
(379,517,o),
(433,469,o),
(433,356,cs),
(433,244,o),
(379,196,o),
(265,196,cs),
(203,196,l)
);
}
);
width = 554;
},
{
anchors = (
{
name = bottom;
pos = (312,0);
},
{
name = top;
pos = (312,660);
}
);
layerId = "705D5379-5CC9-457D-BF30-EC6EB9252852";
shapes = (
{
closed = 1;
nodes = (
(332,0,l),
(332,33,l),
(253,33,o),
(245,41,o),
(245,91,cs),
(245,167,l),
(300,167,ls),
(424,167,o),
(573,193,o),
(573,349,cs),
(573,477,o),
(473,522,o),
(329,522,cs),
(245,522,l),
(245,569,ls),
(245,617,o),
(251,627,o),
(324,627,c),
(324,660,l),
(44,660,l),
(44,627,l),
(116,627,o),
(123,618,o),
(123,569,cs),
(123,91,ls),
(123,43,o),
(117,33,o),
(44,33,c),
(44,0,l)
);
},
{
closed = 1;
nodes = (
(245,445,ls),
(245,467,o),
(251,482,o),
(303,482,cs),
(399,482,o),
(442,432,o),
(442,345,cs),
(442,253,o),
(395,207,o),
(305,207,cs),
(245,207,l)
);
}
);
width = 598;
},
{
anchors = (
{
name = bottom;
pos = (318,0);
},
{
name = top;
pos = (318,660);
}
);
layerId = "C3F6A16D-5E1F-403C-905F-9502D4908E23";
shapes = (
{
closed = 1;
nodes = (
(341,0,l),
(341,33,l),
(276,33,o),
(274,42,o),
(274,91,cs),
(274,167,l),
(299,167,ls),
(426,167,o),
(592,196,o),
(592,349,cs),
(592,463,o),
(499,522,o),
(328,522,cs),
(274,522,l),
(274,569,ls),
(274,621,o),
(284,627,o),
(343,627,c),
(343,660,l),
(33,660,l),
(33,627,l),
(101,627,o),
(102,618,o),
(102,569,cs),
(102,91,ls),
(102,39,o),
(98,33,o),
(33,33,c),
(33,0,l)
);
},
{
closed = 1;
nodes = (
(274,451,ls),
(274,477,o),
(281,482,o),
(312,482,cs),
(378,482,o),
(421,438,o),
(421,345,cs),
(421,252,o),
(378,207,o),
(294,207,cs),
(274,207,l)
);
}
);
width = 610;
},
{
anchors = (
{
name = bottom;
pos = (292,0);
},
{
name = top;
pos = (292,660);
}
);
layerId = "4CDCBC45-D394-4652-82F8-278E2907A602";
shapes = (
{
closed = 1;
nodes = (
(304,0,l),
(304,29,l),
(226,29,o),
(219,37,o),
(219,86,cs),
(219,164,l),
(286,164,ls),
(425,164,o),
(537,206,o),
(537,355,cs),
(537,491,o),
(446,540,o),
(297,540,cs),
(219,540,l),
(219,570,ls),
(219,622,o),
(223,631,o),
(296,631,c),
(296,660,l),
(50,660,l),
(50,631,l),
(123,631,o),
(127,622,o),
(127,570,cs),
(127,86,ls),
(127,39,o),
(121,29,o),
(50,29,c),
(50,0,l)
);
},
{
closed = 1;
nodes = (
(219,468,ls),
(219,491,o),
(227,504,o),
(279,504,cs),
(387,504,o),
(436,455,o),
(436,352,cs),
(436,247,o),
(385,200,o),
(280,200,cs),
(219,200,l)
);
}
);
width = 570.5;
}
);
note = Thorn;
unicode = 222;
},
{
glyphname = Q;
kernLeft = O;
kernRight = O;
lastChange = "2022-11-03 08:56:38 +0000";
layers = (
{
anchors = (
{
name = bottom;
pos = (351,0);
},
{
name = top;
pos = (351,660);
}
);
layerId = "A270BFC0-E682-4EED-9FF7-BE35A5492496";
shapes = (
{
closed = 1;
nodes = (
(555,-12,o),
(645,137,o),
(645,326,cs),
(645,510,o),
(560,672,o),
(351,672,cs),
(142,672,o),
(57,510,o),
(57,326,cs),
(57,137,o),
(147,-12,o),
(351,-12,cs)
);
},
{
closed = 1;
nodes = (
(514,-153,o),
(546,-134,o),
(574,-109,c),
(557,-90,l),
(539,-105,o),
(519,-115,o),
(497,-115,cs),
(443,-115,o),
(414,-55,o),
(414,-2,c),
(328,-2,l),
(328,-79,o),
(374,-153,o),
(467,-153,cs)
);
},
{
closed = 1;
nodes = (
(167,18,o),
(145,209,o),
(145,336,cs),
(145,469,o),
(169,642,o),
(351,642,cs),
(533,642,o),
(557,469,o),
(557,336,cs),
(557,209,o),
(535,18,o),
(351,18,cs)
);
}
);
width = 701;
},
{
anchors = (
{
name = bottom;
pos = (363,0);
},
{
name = top;
pos = (363,660);
}
);
layerId = "705D5379-5CC9-457D-BF30-EC6EB9252852";
shapes = (
{
closed = 1;
nodes = (
(585,-12,o),
(679,129,o),
(679,331,cs),
(679,533,o),
(585,672,o),
(363,672,cs),
(141,672,o),
(47,533,o),
(47,331,cs),
(47,129,o),
(141,-12,o),
(363,-12,cs)
);
},
{
closed = 1;
nodes = (
(541,-171,o),
(579,-137,o),
(599,-118,c),
(587,-96,l),
(572,-108,o),
(546,-116,o),
(522,-116,cs),
(454,-116,o),
(433,-50,o),
(433,5,c),
(299,5,l),
(299,-66,o),
(345,-171,o),
(470,-171,cs)
);
},
{
closed = 1;
nodes = (
(245,29,o),
(184,134,o),
(184,331,cs),
(184,527,o),
(245,631,o),
(363,631,cs),
(481,631,o),
(542,527,o),
(542,331,cs),
(542,134,o),
(481,29,o),
(363,29,cs)
);
}
);
width = 726;
},
{
anchors = (
{
name = bottom;
pos = (374,0);
},
{
name = top;
pos = (374,660);
}
);
layerId = "C3F6A16D-5E1F-403C-905F-9502D4908E23";
shapes = (
{
closed = 1;
nodes = (
(591,-10,o),
(714,110,o),
(714,331,cs),
(714,552,o),
(591,672,o),
(374,672,cs),
(157,672,o),
(34,552,o),
(34,331,cs),
(34,110,o),
(157,-10,o),
(374,-10,cs)
);
},
{
closed = 1;
nodes = (
(542,-171,o),
(593,-134,o),
(606,-122,c),
(584,-81,l),
(563,-96,o),
(540,-109,o),
(514,-109,cs),
(487,-109,o),
(458,-80,o),
(458,5,c),
(288,5,l),
(288,-108,o),
(349,-171,o),
(471,-171,cs)
);
},
{
closed = 1;
nodes = (
(253,23,o),
(215,128,o),
(215,331,cs),
(215,534,o),
(253,639,o),
(374,639,cs),
(485,639,o),
(533,534,o),
(533,331,cs),
(533,128,o),
(495,23,o),
(374,23,cs)
);
}
);
width = 748;
},
{
anchors = (
{
name = bottom;
pos = (356,0);
},
{
name = top;
pos = (356,660);
}
);
layerId = "4CDCBC45-D394-4652-82F8-278E2907A602";
shapes = (
{
closed = 1;
nodes = (
(566,-12,o),
(658,134,o),
(658,328,cs),
(658,519,o),
(569,672,o),
(356,672,cs),
(142,672,o),
(53,519,o),
(53,328,cs),
(53,134,o),
(145,-12,o),
(356,-12,cs)
);
},
{
closed = 1;
nodes = (
(524,-160,o),
(558,-135,o),
(583,-112,c),
(568,-92,l),
(551,-106,o),
(529,-115,o),
(506,-115,cs),
(447,-115,o),
(421,-53,o),
(421,1,c),
(317,1,l),
(317,-74,o),
(363,-160,o),
(468,-160,cs)
);
},
{
closed = 1;
nodes = (
(196,22,o),
(160,181,o),
(160,334,cs),
(160,491,o),
(198,638,o),
(356,638,cs),
(514,638,o),
(551,491,o),
(551,334,cs),
(551,181,o),
(515,22,o),
(356,22,cs)
);
}
);
width = 710.375;
}
);
note = Q;
unicode = 81;
},
{
glyphname = R;
kernLeft = E;
kernRight = R;
lastChange = "2022-11-03 08:56:38 +0000";
layers = (
{
anchors = (
{
name = bottom;
pos = (293,0);
},
{
name = top;
pos = (293,660);
}
);
layerId = "A270BFC0-E682-4EED-9FF7-BE35A5492496";
shapes = (
{
closed = 1;
nodes = (
(287,0,l),
(287,27,l),
(210,27,o),
(203,35,o),
(203,83,cs),
(203,311,l),
(268,311,ls),
(344,311,o),
(377,281,o),
(391,206,cs),
(412,92,ls),
(421,44,o),
(432,19,o),
(450,0,c),
(560,0,l),
(560,27,l),
(509,27,o),
(494,61,o),
(481,138,cs),
(473,185,ls),
(457,281,o),
(425,308,o),
(370,327,c),
(370,328,l),
(448,350,o),
(504,404,o),
(504,496,cs),
(504,611,o),
(418,660,o),
(298,660,cs),
(53,660,l),
(53,633,l),
(122,633,o),
(129,624,o),
(129,576,cs),
(129,83,ls),
(129,37,o),
(123,27,o),
(53,27,c),
(53,0,l)
);
},
{
closed = 1;
nodes = (
(203,592,ls),
(203,616,o),
(211,627,o),
(265,627,cs),
(371,627,o),
(423,585,o),
(423,485,cs),
(423,387,o),
(373,345,o),
(267,345,cs),
(203,345,l)
);
}
);
width = 578;
},
{
anchors = (
{
name = bottom;
pos = (327,0);
},
{
name = top;
pos = (327,660);
}
);
layerId = "705D5379-5CC9-457D-BF30-EC6EB9252852";
shapes = (
{
closed = 1;
nodes = (
(323,0,l),
(323,33,l),
(252,33,o),
(245,42,o),
(245,89,cs),
(245,307,l),
(300,307,ls),
(360,307,o),
(389,282,o),
(400,230,cs),
(430,92,ls),
(440,46,o),
(455,14,o),
(473,0,c),
(636,0,l),
(636,33,l),
(580,33,o),
(554,81,o),
(545,139,cs),
(542,159,ls),
(529,247,o),
(507,308,o),
(416,330,c),
(416,332,l),
(508,346,o),
(571,402,o),
(571,498,cs),
(571,601,o),
(498,660,o),
(353,660,cs),
(44,660,l),
(44,627,l),
(116,627,o),
(123,618,o),
(123,570,cs),
(123,89,ls),
(123,43,o),
(117,33,o),
(44,33,c),
(44,0,l)
);
},
{
closed = 1;
nodes = (
(245,580,ls),
(245,607,o),
(253,621,o),
(305,621,cs),
(397,621,o),
(442,577,o),
(442,484,cs),
(442,392,o),
(398,347,o),
(305,347,cs),
(245,347,l)
);
}
);
width = 650;
},
{
anchors = (
{
name = bottom;
pos = (344,0);
},
{
name = top;
pos = (344,660);
}
);
layerId = "C3F6A16D-5E1F-403C-905F-9502D4908E23";
shapes = (
{
closed = 1;
nodes = (
(339,0,l),
(339,33,l),
(282,33,o),
(274,40,o),
(274,89,cs),
(274,306,l),
(315,306,ls),
(363,306,o),
(379,276,o),
(389,230,cs),
(419,92,ls),
(428,52,o),
(447,14,o),
(466,0,c),
(663,0,l),
(663,33,l),
(601,33,o),
(589,62,o),
(572,139,cs),
(560,195,ls),
(541,285,o),
(512,316,o),
(430,330,c),
(430,332,l),
(522,347,o),
(600,395,o),
(600,498,cs),
(600,601,o),
(523,660,o),
(340,660,cs),
(33,660,l),
(33,627,l),
(94,627,o),
(102,620,o),
(102,570,cs),
(102,89,ls),
(102,40,o),
(98,33,o),
(33,33,c),
(33,0,l)
);
},
{
closed = 1;
nodes = (
(274,588,ls),
(274,617,o),
(280,623,o),
(311,623,cs),
(397,623,o),
(431,577,o),
(431,486,cs),
(431,387,o),
(391,346,o),
(302,346,cs),
(274,346,l)
);
}
);
width = 667;
},
{
anchors = (
{
name = bottom;
pos = (306,0);
},
{
name = top;
pos = (306,660);
}
);
layerId = "4CDCBC45-D394-4652-82F8-278E2907A602";
shapes = (
{
closed = 1;
nodes = (
(301,0,l),
(301,29,l),
(226,29,o),
(219,38,o),
(219,85,cs),
(219,310,l),
(280,310,ls),
(350,310,o),
(382,281,o),
(394,215,cs),
(419,92,ls),
(428,45,o),
(441,17,o),
(459,0,c),
(589,0,l),
(589,29,l),
(536,29,o),
(517,69,o),
(505,138,cs),
(499,175,ls),
(484,268,o),
(456,308,o),
(387,328,c),
(387,330,l),
(471,349,o),
(529,403,o),
(529,497,cs),
(529,607,o),
(448,660,o),
(319,660,cs),
(50,660,l),
(50,631,l),
(120,631,o),
(127,622,o),
(127,574,cs),
(127,85,ls),
(127,39,o),
(121,29,o),
(50,29,c),
(50,0,l)
);
},
{
closed = 1;
nodes = (
(219,588,ls),
(219,613,o),
(227,625,o),
(280,625,cs),
(381,625,o),
(430,582,o),
(430,485,cs),
(430,389,o),
(382,346,o),
(281,346,cs),
(219,346,l)
);
}
);
width = 605;
}
);
note = R;
unicode = 82;
},
{
glyphname = S;
kernLeft = S;
kernRight = S;
lastChange = "2022-11-03 08:56:38 +0000";
layers = (
{
anchors = (
{
name = bottom;
pos = (248,0);
},
{
name = top;
pos = (248,660);
}
);
layerId = "A270BFC0-E682-4EED-9FF7-BE35A5492496";
shapes = (
{
closed = 1;
nodes = (
(367,-12,o),
(470,43,o),
(470,171,cs),
(470,291,o),
(379,332,o),
(294,369,cs),
(236,394,ls),
(160,426,o),
(132,457,o),
(132,522,cs),
(132,610,o),
(183,642,o),
(251,642,cs),
(352,642,o),
(396,570,o),
(403,498,c),
(430,498,l),
(420,672,l),
(396,672,l),
(394,660,o),
(391,643,o),
(377,643,cs),
(357,643,o),
(337,672,o),
(255,672,cs),
(157,672,o),
(56,633,o),
(56,509,cs),
(56,408,o),
(124,361,o),
(218,320,cs),
(278,294,ls),
(354,261,o),
(394,224,o),
(394,159,cs),
(394,88,o),
(347,18,o),
(250,18,cs),
(152,18,o),
(83,89,o),
(76,182,c),
(49,182,l),
(61,-12,l),
(88,-12,l),
(89,2,o),
(93,17,o),
(109,17,cs),
(131,17,o),
(168,-12,o),
(252,-12,cs)
);
}
);
width = 519;
},
{
anchors = (
{
name = bottom;
pos = (265,0);
},
{
name = top;
pos = (265,660);
}
);
layerId = "705D5379-5CC9-457D-BF30-EC6EB9252852";
shapes = (
{
closed = 1;
nodes = (
(423,-12,o),
(483,88,o),
(483,189,cs),
(483,299,o),
(411,350,o),
(321,387,cs),
(292,399,ls),
(230,425,o),
(159,456,o),
(159,530,cs),
(159,589,o),
(203,632,o),
(271,632,cs),
(346,632,o),
(396,580,o),
(416,483,c),
(440,483,l),
(430,664,l),
(410,664,l),
(406,649,o),
(401,645,o),
(392,645,cs),
(368,645,o),
(336,672,o),
(258,672,cs),
(123,672,o),
(49,590,o),
(49,485,cs),
(49,369,o),
(137,321,o),
(230,283,cs),
(252,274,ls),
(328,243,o),
(366,204,o),
(366,141,cs),
(366,70,o),
(319,29,o),
(248,29,cs),
(135,29,o),
(88,133,o),
(65,209,c),
(40,209,l),
(54,0,l),
(75,0,l),
(77,9,o),
(88,18,o),
(102,18,cs),
(128,18,o),
(152,-12,o),
(248,-12,cs)
);
}
);
width = 523;
},
{
anchors = (
{
name = bottom;
pos = (267,0);
},
{
name = top;
pos = (267,660);
}
);
layerId = "C3F6A16D-5E1F-403C-905F-9502D4908E23";
shapes = (
{
closed = 1;
nodes = (
(378,-12,o),
(501,57,o),
(501,212,cs),
(501,312,o),
(441,373,o),
(350,406,cs),
(261,438,ls),
(222,452,o),
(142,474,o),
(142,545,cs),
(142,604,o),
(195,645,o),
(264,645,cs),
(346,645,o),
(413,586,o),
(433,493,c),
(474,493,l),
(464,664,l),
(431,664,l),
(428,654,o),
(424,645,o),
(403,645,cs),
(366,645,o),
(336,672,o),
(268,672,cs),
(135,672,o),
(40,595,o),
(40,466,cs),
(40,360,o),
(99,304,o),
(210,265,cs),
(281,240,ls),
(350,216,o),
(389,185,o),
(389,127,cs),
(389,46,o),
(323,15,o),
(261,15,cs),
(160,15,o),
(86,109,o),
(75,179,c),
(34,179,l),
(46,0,l),
(79,0,l),
(84,11,o),
(93,18,o),
(109,18,cs),
(139,18,o),
(192,-12,o),
(266,-12,cs)
);
}
);
width = 530;
},
{
anchors = (
{
name = bottom;
pos = (254,0);
},
{
name = top;
pos = (254,660);
}
);
layerId = "4CDCBC45-D394-4652-82F8-278E2907A602";
shapes = (
{
closed = 1;
nodes = (
(388,-12,o),
(475,60,o),
(475,178,cs),
(475,294,o),
(391,339,o),
(304,376,cs),
(257,396,ls),
(186,426,o),
(142,457,o),
(142,525,cs),
(142,602,o),
(191,638,o),
(259,638,cs),
(350,638,o),
(396,574,o),
(408,492,c),
(434,492,l),
(424,669,l),
(401,669,l),
(399,656,o),
(395,644,o),
(383,644,cs),
(361,644,o),
(337,672,o),
(256,672,cs),
(144,672,o),
(53,617,o),
(53,500,cs),
(53,393,o),
(129,346,o),
(223,306,cs),
(268,287,ls),
(344,254,o),
(384,217,o),
(384,152,cs),
(384,81,o),
(337,22,o),
(249,22,cs),
(146,22,o),
(85,106,o),
(72,192,c),
(46,192,l),
(58,-7,l),
(83,-7,l),
(85,5,o),
(91,17,o),
(106,17,cs),
(130,17,o),
(162,-12,o),
(251,-12,cs)
);
}
);
width = 520.5;
}
);
note = S;
unicode = 83;
},
{
glyphname = Germandbls;
lastChange = "2022-11-03 08:56:38 +0000";
layers = (
{
anchors = (
{
name = bottom;
pos = (323,0);
},
{
name = top;
pos = (323,660);
}
);
layerId = "A270BFC0-E682-4EED-9FF7-BE35A5492496";
shapes = (
{
closed = 1;
nodes = (
(489,-16,o),
(595,42,o),
(595,187,cs),
(595,329,o),
(494,387,o),
(382,387,c),
(563,629,l),
(563,660,l),
(339,660,ls),
(164,660,o),
(122,520,o),
(122,383,cs),
(122,89,ls),
(122,35,o),
(119,27,o),
(46,27,c),
(46,0,l),
(192,-1,l),
(195,26,o),
(196,51,o),
(196,89,cs),
(196,428,ls),
(196,580,o),
(279,624,o),
(359,624,cs),
(499,624,l),
(479,606,o),
(473,599,o),
(445,562,cs),
(314,388,l),
(314,347,l),
(359,347,ls),
(398,347,o),
(519,340,o),
(519,193,cs),
(519,138,o),
(502,22,o),
(386,22,cs),
(335,22,o),
(297,44,o),
(279,59,c),
(255,43,l),
(296,2,o),
(348,-16,o),
(400,-16,cs)
);
}
);
width = 644;
},
{
anchors = (
{
name = bottom;
pos = (312,0);
},
{
name = top;
pos = (312,660);
}
);
layerId = "705D5379-5CC9-457D-BF30-EC6EB9252852";
shapes = (
{
closed = 1;
nodes = (
(535,-12,o),
(659,33,o),
(659,191,cs),
(659,327,o),
(569,387,o),
(457,387,c),
(624,607,l),
(624,660,l),
(358,660,ls),
(167,660,o),
(118,551,o),
(118,347,cs),
(118,91,ls),
(118,43,o),
(113,33,o),
(39,33,c),
(39,0,l),
(231,0,l),
(237,22,o),
(240,41,o),
(240,91,cs),
(240,456,ls),
(240,559,o),
(284,618,o),
(360,618,cs),
(529,618,l),
(504,596,o),
(489,583,o),
(464,549,cs),
(345,388,l),
(345,340,l),
(385,340,ls),
(412,340,o),
(534,340,o),
(534,195,cs),
(534,125,o),
(506,54,o),
(413,54,cs),
(367,54,o),
(335,71,o),
(314,93,c),
(274,58,l),
(324,5,o),
(386,-12,o),
(443,-12,cs)
);
}
);
width = 699;
},
{
anchors = (
{
name = bottom;
pos = (278,0);
},
{
name = top;
pos = (278,660);
}
);
layerId = "C3F6A16D-5E1F-403C-905F-9502D4908E23";
shapes = (
{
closed = 1;
nodes = (
(617,-12,o),
(740,50,o),
(740,191,cs),
(740,327,o),
(625,397,o),
(513,397,c),
(690,608,l),
(690,660,l),
(356,660,ls),
(172,660,o),
(98,565,o),
(98,377,cs),
(98,91,ls),
(98,41,o),
(92,33,o),
(29,33,c),
(29,0,l),
(262,0,l),
(267,22,o),
(270,40,o),
(270,91,cs),
(270,522,ls),
(270,593,o),
(309,621,o),
(356,621,cs),
(561,621,l),
(541,603,o),
(522,583,o),
(494,549,cs),
(355,380,l),
(355,340,l),
(421,340,ls),
(441,340,o),
(564,340,o),
(564,201,cs),
(564,123,o),
(529,62,o),
(459,62,cs),
(422,62,o),
(381,79,o),
(360,101,c),
(320,54,l),
(369,5,o),
(448,-12,o),
(495,-12,cs)
);
}
);
width = 770;
},
{
anchors = (
{
name = bottom;
pos = (293,0);
},
{
name = top;
pos = (293,660);
}
);
layerId = "4CDCBC45-D394-4652-82F8-278E2907A602";
shapes = (
{
closed = 1;
nodes = (
(485,-16,o),
(609,40,o),
(609,191,cs),
(609,327,o),
(509,387,o),
(397,387,c),
(577,629,l),
(577,660,l),
(353,660,ls),
(168,660,o),
(120,533,o),
(120,371,cs),
(120,90,ls),
(120,38,o),
(117,29,o),
(43,29,c),
(43,0,l),
(200,0,l),
(208,20,o),
(212,49,o),
(212,90,cs),
(212,446,ls),
(212,546,o),
(251,622,o),
(353,622,cs),
(489,622,l),
(469,604,o),
(454,589,o),
(428,553,cs),
(310,388,l),
(310,344,l),
(355,344,ls),
(387,344,o),
(515,340,o),
(515,190,cs),
(515,138,o),
(499,29,o),
(380,29,cs),
(331,29,o),
(293,47,o),
(275,62,c),
(251,43,l),
(292,4,o),
(344,-16,o),
(397,-16,cs)
);
}
);
width = 655;
}
);
unicode = 7838;
},
{
glyphname = T;
kernLeft = T;
kernRight = T;
lastChange = "2022-11-03 08:56:38 +0000";
layers = (
{
anchors = (
{
name = bottom;
pos = (279,0);
},
{
name = center;
pos = (279,330);
},
{
name = top;
pos = (279,660);
}
);
layerId = "A270BFC0-E682-4EED-9FF7-BE35A5492496";
shapes = (
{
closed = 1;
nodes = (
(417,0,l),
(417,27,l),
(324,27,o),
(322,35,o),
(322,89,cs),
(322,630,l),
(380,630,ls),
(491,630,o),
(511,609,o),
(523,502,c),
(550,502,l),
(550,660,l),
(20,660,l),
(20,502,l),
(47,502,l),
(58,609,o),
(78,630,o),
(190,630,cs),
(248,630,l),
(248,89,ls),
(248,35,o),
(245,27,o),
(153,27,c),
(153,0,l)
);
}
);
width = 570;
},
{
anchors = (
{
name = bottom;
pos = (294,0);
},
{
name = center;
pos = (294,330);
},
{
name = top;
pos = (294,660);
}
);
layerId = "705D5379-5CC9-457D-BF30-EC6EB9252852";
shapes = (
{
closed = 1;
nodes = (
(450,0,l),
(450,33,l),
(367,33,o),
(354,38,o),
(354,88,cs),
(354,621,l),
(404,621,ls),
(503,621,o),
(517,587,o),
(542,491,c),
(567,491,l),
(567,660,l),
(20,660,l),
(20,491,l),
(45,491,l),
(69,587,o),
(84,621,o),
(184,621,cs),
(232,621,l),
(232,88,ls),
(232,38,o),
(229,33,o),
(137,33,c),
(137,0,l)
);
}
);
width = 587;
},
{
anchors = (
{
name = bottom;
pos = (324,0);
},
{
name = center;
pos = (324,330);
},
{
name = top;
pos = (324,660);
}
);
layerId = "C3F6A16D-5E1F-403C-905F-9502D4908E23";
shapes = (
{
closed = 1;
nodes = (
(476,0,l),
(476,33,l),
(416,33,o),
(411,40,o),
(411,88,cs),
(411,628,l),
(448,628,ls),
(511,628,o),
(571,598,o),
(587,481,c),
(627,481,l),
(627,660,l),
(21,660,l),
(20,481,l),
(62,481,l),
(70,581,o),
(127,628,o),
(193,628,cs),
(238,628,l),
(238,88,ls),
(238,40,o),
(233,33,o),
(172,33,c),
(172,0,l)
);
}
);
width = 647;
},
{
anchors = (
{
name = bottom;
pos = (285,0);
},
{
name = center;
pos = (285,330);
},
{
name = top;
pos = (285,660);
}
);
layerId = "4CDCBC45-D394-4652-82F8-278E2907A602";
shapes = (
{
closed = 1;
nodes = (
(429,0,l),
(429,29,l),
(340,29,o),
(334,36,o),
(334,89,cs),
(334,627,l),
(389,627,ls),
(496,627,o),
(513,601,o),
(530,498,c),
(556,498,l),
(556,660,l),
(20,660,l),
(20,498,l),
(46,498,l),
(62,601,o),
(80,627,o),
(188,627,cs),
(242,627,l),
(242,89,ls),
(242,36,o),
(239,29,o),
(147,29,c),
(147,0,l)
);
}
);
width = 576.375;
}
);
note = T;
unicode = 84;
},
{
glyphname = U;
kernLeft = U;
kernRight = U;
lastChange = "2022-11-03 08:56:38 +0000";
layers = (
{
anchors = (
{
name = bottom;
pos = (361,0);
},
{
name = ogonek;
pos = (484,10);
},
{
name = top;
pos = (361,660);
},
{
name = topright;
pos = (684,660);
}
);
layerId = "A270BFC0-E682-4EED-9FF7-BE35A5492496";
shapes = (
{
closed = 1;
nodes = (
(521,-12,o),
(600,68,o),
(600,235,cs),
(600,571,ls),
(600,625,o),
(602,633,o),
(676,633,c),
(676,660,l),
(450,660,l),
(450,633,l),
(523,633,o),
(526,625,o),
(526,571,cs),
(526,226,ls),
(526,106,o),
(475,18,o),
(361,18,cs),
(247,18,o),
(196,106,o),
(196,226,cs),
(196,571,ls),
(196,625,o),
(199,633,o),
(272,633,c),
(272,660,l),
(46,660,l),
(46,633,l),
(120,633,o),
(122,625,o),
(122,571,cs),
(122,235,ls),
(122,68,o),
(201,-12,o),
(361,-12,cs)
);
}
);
width = 719;
},
{
anchors = (
{
name = bottom;
pos = (382,0);
},
{
name = ogonek;
pos = (518,10);
},
{
name = top;
pos = (382,660);
},
{
name = topright;
pos = (734,660);
}
);
layerId = "705D5379-5CC9-457D-BF30-EC6EB9252852";
shapes = (
{
closed = 1;
nodes = (
(562,-12,o),
(645,61,o),
(645,228,cs),
(645,570,ls),
(645,618,o),
(650,627,o),
(724,627,c),
(724,660,l),
(445,660,l),
(445,627,l),
(516,627,o),
(523,618,o),
(523,570,cs),
(523,226,ls),
(523,96,o),
(476,29,o),
(382,29,cs),
(288,29,o),
(239,97,o),
(239,226,cs),
(239,570,ls),
(239,618,o),
(245,627,o),
(318,627,c),
(318,660,l),
(39,660,l),
(39,627,l),
(110,627,o),
(117,618,o),
(117,570,cs),
(117,228,ls),
(117,59,o),
(195,-12,o),
(377,-12,cs)
);
}
);
width = 758;
},
{
anchors = (
{
name = bottom;
pos = (386,0);
},
{
name = ogonek;
pos = (544,10);
},
{
name = top;
pos = (386,660);
},
{
name = topright;
pos = (743,660);
}
);
layerId = "C3F6A16D-5E1F-403C-905F-9502D4908E23";
shapes = (
{
closed = 1;
nodes = (
(590,-12,o),
(675,61,o),
(675,221,cs),
(675,570,ls),
(675,620,o),
(679,627,o),
(743,627,c),
(743,660,l),
(437,660,l),
(437,627,l),
(499,627,o),
(506,621,o),
(506,570,cs),
(506,215,ls),
(506,91,o),
(476,33,o),
(386,33,cs),
(296,33,o),
(269,91,o),
(269,215,cs),
(269,570,ls),
(269,621,o),
(276,627,o),
(338,627,c),
(338,660,l),
(29,660,l),
(29,627,l),
(93,627,o),
(97,620,o),
(97,570,cs),
(97,221,ls),
(97,61,o),
(182,-12,o),
(386,-12,cs)
);
}
);
width = 769;
},
{
anchors = (
{
name = bottom;
pos = (369,0);
},
{
name = ogonek;
pos = (499,10);
},
{
name = top;
pos = (369,660);
},
{
name = topright;
pos = (703,660);
}
);
layerId = "4CDCBC45-D394-4652-82F8-278E2907A602";
shapes = (
{
closed = 1;
nodes = (
(536,-12,o),
(617,65,o),
(617,232,cs),
(617,571,ls),
(617,622,o),
(620,631,o),
(694,631,c),
(694,660,l),
(448,660,l),
(448,631,l),
(520,631,o),
(525,622,o),
(525,571,cs),
(525,226,ls),
(525,102,o),
(475,22,o),
(369,22,cs),
(262,22,o),
(212,103,o),
(212,226,cs),
(212,571,ls),
(212,622,o),
(216,631,o),
(289,631,c),
(289,660,l),
(43,660,l),
(43,631,l),
(116,631,o),
(120,622,o),
(120,571,cs),
(120,232,ls),
(120,65,o),
(199,-12,o),
(367,-12,cs)
);
}
);
width = 733.625;
}
);
note = U;
unicode = 85;
},
{
glyphname = V;
lastChange = "2022-11-03 08:56:38 +0000";
layers = (
{
anchors = (
{
name = bottom;
pos = (305,0);
},
{
name = top;
pos = (305,660);
}
);
layerId = "A270BFC0-E682-4EED-9FF7-BE35A5492496";
shapes = (
{
closed = 1;
nodes = (
(335,0,l),
(557,583,ls),
(575,628,o),
(586,633,o),
(630,633,c),
(630,660,l),
(449,660,l),
(449,633,l),
(496,633,ls),
(521,633,o),
(522,621,o),
(517,603,cs),
(339,103,l),
(337,105,l),
(162,598,ls),
(154,622,o),
(157,633,o),
(180,633,cs),
(232,633,l),
(232,660,l),
(6,660,l),
(6,633,l),
(59,633,o),
(71,627,o),
(90,576,cs),
(297,0,l)
);
}
);
width = 640;
},
{
anchors = (
{
name = bottom;
pos = (329,0);
},
{
name = top;
pos = (329,660);
}
);
layerId = "705D5379-5CC9-457D-BF30-EC6EB9252852";
shapes = (
{
closed = 1;
nodes = (
(372,0,l),
(575,573,ls),
(589,613,o),
(610,627,o),
(657,627,c),
(657,660,l),
(450,660,l),
(450,627,l),
(498,627,ls),
(523,627,o),
(528,615,o),
(517,580,cs),
(371,127,l),
(366,127,l),
(212,593,ls),
(204,616,o),
(210,627,o),
(233,627,cs),
(277,627,l),
(277,660,l),
(15,660,l),
(15,627,l),
(68,627,o),
(77,614,o),
(90,577,cs),
(285,0,l)
);
}
);
width = 666;
},
{
anchors = (
{
name = bottom;
pos = (343,0);
},
{
name = top;
pos = (343,660);
}
);
layerId = "C3F6A16D-5E1F-403C-905F-9502D4908E23";
shapes = (
{
closed = 1;
nodes = (
(394,0,l),
(600,561,ls),
(618,611,o),
(637,627,o),
(677,627,c),
(677,660,l),
(483,660,l),
(483,627,l),
(526,627,ls),
(560,627,o),
(563,607,o),
(554,580,cs),
(414,166,l),
(412,166,l),
(263,578,ls),
(251,611,o),
(263,627,o),
(291,627,cs),
(334,627,l),
(334,660,l),
(8,660,l),
(8,627,l),
(49,627,o),
(70,619,o),
(85,577,cs),
(293,0,l)
);
}
);
width = 679;
},
{
anchors = (
{
name = bottom;
pos = (314,0);
},
{
name = top;
pos = (314,660);
}
);
layerId = "4CDCBC45-D394-4652-82F8-278E2907A602";
shapes = (
{
closed = 1;
nodes = (
(349,0,l),
(564,579,ls),
(580,622,o),
(595,631,o),
(640,631,c),
(640,660,l),
(449,660,l),
(449,631,l),
(497,631,ls),
(522,631,o),
(524,619,o),
(517,594,cs),
(351,112,l),
(348,113,l),
(181,596,ls),
(173,620,o),
(177,631,o),
(200,631,cs),
(249,631,l),
(249,660,l),
(9,660,l),
(9,631,l),
(62,631,o),
(73,622,o),
(90,576,cs),
(293,0,l)
);
}
);
width = 649.75;
}
);
note = V;
unicode = 86;
},
{
glyphname = W;
lastChange = "2022-11-03 08:56:38 +0000";
layers = (
{
anchors = (
{
name = bottom;
pos = (457,0);
},
{
name = top;
pos = (457,660);
}
);
layerId = "A270BFC0-E682-4EED-9FF7-BE35A5492496";
shapes = (
{
closed = 1;
nodes = (
(294,0,l),
(443,529,l),
(445,529,l),
(605,0,l),
(647,0,l),
(808,569,ls),
(827,624,o),
(838,633,o),
(897,633,c),
(897,660,l),
(709,660,l),
(709,633,l),
(749,633,ls),
(772,633,o),
(775,617,o),
(770,597,cs),
(648,114,l),
(645,114,l),
(483,643,l),
(442,643,l),
(296,114,l),
(294,114,l),
(162,594,ls),
(154,625,o),
(159,633,o),
(182,633,cs),
(222,633,l),
(222,660,l),
(13,660,l),
(13,633,l),
(69,633,o),
(77,627,o),
(94,570,cs),
(250,0,l)
);
}
);
width = 907;
},
{
anchors = (
{
name = bottom;
pos = (458,0);
},
{
name = top;
pos = (458,660);
}
);
layerId = "705D5379-5CC9-457D-BF30-EC6EB9252852";
shapes = (
{
closed = 1;
nodes = (
(328,0,l),
(452,478,l),
(456,478,l),
(587,0,l),
(676,0,l),
(823,544,ls),
(839,606,o),
(855,627,o),
(912,627,c),
(912,660,l),
(702,660,l),
(702,627,l),
(759,627,ls),
(792,627,o),
(785,611,o),
(778,580,cs),
(669,136,l),
(664,136,l),
(527,646,l),
(448,646,l),
(321,137,l),
(317,137,l),
(200,593,ls),
(193,621,o),
(198,627,o),
(221,627,cs),
(266,627,l),
(266,660,l),
(15,660,l),
(15,627,l),
(63,627,o),
(76,615,o),
(86,577,cs),
(239,0,l)
);
}
);
width = 921;
},
{
anchors = (
{
name = bottom;
pos = (472,0);
},
{
name = top;
pos = (472,660);
}
);
layerId = "C3F6A16D-5E1F-403C-905F-9502D4908E23";
shapes = (
{
closed = 1;
nodes = (
(320,0,l),
(476,487,l),
(478,487,l),
(632,0,l),
(712,0,l),
(861,544,ls),
(881,618,o),
(897,627,o),
(937,627,c),
(937,660,l),
(753,660,l),
(753,627,l),
(789,627,ls),
(825,627,o),
(834,614,o),
(825,580,cs),
(735,238,l),
(733,238,l),
(605,646,l),
(491,646,l),
(357,230,l),
(355,230,l),
(256,582,ls),
(247,614,o),
(255,627,o),
(285,627,cs),
(323,627,l),
(323,660,l),
(8,660,l),
(8,627,l),
(54,627,o),
(66,613,o),
(77,577,cs),
(245,0,l)
);
}
);
width = 940;
},
{
anchors = (
{
name = bottom;
pos = (457,0);
},
{
name = top;
pos = (457,660);
}
);
layerId = "4CDCBC45-D394-4652-82F8-278E2907A602";
shapes = (
{
closed = 1;
nodes = (
(307,0,l),
(446,510,l),
(449,510,l),
(598,0,l),
(658,0,l),
(814,560,ls),
(832,617,o),
(844,631,o),
(903,631,c),
(903,660,l),
(706,660,l),
(706,631,l),
(753,631,ls),
(780,631,o),
(779,615,o),
(773,591,cs),
(656,122,l),
(652,122,l),
(500,644,l),
(444,644,l),
(305,123,l),
(303,123,l),
(176,594,ls),
(169,624,o),
(174,631,o),
(197,631,cs),
(239,631,l),
(239,660,l),
(14,660,l),
(14,631,l),
(67,631,o),
(77,623,o),
(91,573,cs),
(246,0,l)
);
}
);
width = 912.25;
}
);
note = W;
unicode = 87;
},
{
glyphname = X;
lastChange = "2022-11-03 08:56:38 +0000";
layers = (
{
anchors = (
{
name = bottom;
pos = (331,0);
},
{
name = top;
pos = (331,660);
}
);
layerId = "A270BFC0-E682-4EED-9FF7-BE35A5492496";
shapes = (
{
closed = 1;
nodes = (
(642,0,l),
(642,27,l),
(573,27,o),
(562,38,o),
(534,82,cs),
(350,369,l),
(350,389,l),
(336,389,l),
(202,600,ls),
(190,619,o),
(192,633,o),
(210,633,cs),
(259,633,l),
(259,660,l),
(33,660,l),
(33,633,l),
(93,633,o),
(105,624,o),
(137,572,cs),
(291,327,l),
(291,304,l),
(308,304,l),
(459,61,ls),
(470,43,o),
(466,27,o),
(443,27,cs),
(391,27,l),
(391,0,l)
);
},
{
closed = 1;
nodes = (
(229,0,l),
(229,27,l),
(168,27,ls),
(149,27,o),
(148,45,o),
(157,60,cs),
(306,304,l),
(299,351,l),
(121,79,ls),
(91,33,o),
(75,27,o),
(19,27,c),
(19,0,l)
);
},
{
closed = 1;
nodes = (
(505,574,ls),
(543,628,o),
(558,633,o),
(615,633,c),
(615,660,l),
(422,660,l),
(422,633,l),
(470,633,ls),
(491,633,o),
(491,620,o),
(479,601,cs),
(338,389,l),
(343,342,l)
);
}
);
width = 660;
},
{
anchors = (
{
name = bottom;
pos = (319,0);
},
{
name = top;
pos = (319,660);
}
);
layerId = "705D5379-5CC9-457D-BF30-EC6EB9252852";
shapes = (
{
closed = 1;
nodes = (
(645,0,l),
(645,33,l),
(587,33,o),
(573,43,o),
(545,88,cs),
(358,389,l),
(349,420,l),
(336,420,l),
(233,595,ls),
(220,617,o),
(225,627,o),
(246,627,cs),
(283,627,l),
(283,660,l),
(19,660,l),
(19,627,l),
(69,627,o),
(82,618,o),
(109,576,cs),
(272,310,l),
(273,273,l),
(293,273,l),
(415,68,ls),
(430,48,o),
(420,33,o),
(399,33,cs),
(353,33,l),
(353,0,l)
);
},
{
closed = 1;
nodes = (
(240,0,l),
(240,33,l),
(192,33,ls),
(174,33,o),
(160,45,o),
(170,69,cs),
(295,285,l),
(273,327,l),
(108,83,ls),
(83,46,o),
(68,33,o),
(10,33,c),
(10,0,l)
);
},
{
closed = 1;
nodes = (
(504,579,ls),
(533,617,o),
(555,627,o),
(604,627,c),
(604,660,l),
(395,660,l),
(395,627,l),
(434,627,ls),
(456,627,o),
(458,617,o),
(445,598,cs),
(334,409,l),
(357,373,l)
);
}
);
width = 655;
},
{
anchors = (
{
name = bottom;
pos = (353,0);
},
{
name = top;
pos = (353,660);
}
);
layerId = "C3F6A16D-5E1F-403C-905F-9502D4908E23";
shapes = (
{
closed = 1;
nodes = (
(692,0,l),
(692,33,l),
(638,33,o),
(615,51,o),
(572,122,cs),
(410,389,l),
(412,420,l),
(392,420,l),
(297,584,ls),
(282,609,o),
(292,627,o),
(320,627,cs),
(346,627,l),
(346,660,l),
(18,660,l),
(18,627,l),
(64,627,o),
(71,621,o),
(98,576,cs),
(261,306,l),
(261,274,l),
(282,274,l),
(395,87,ls),
(415,54,o),
(414,33,o),
(381,33,cs),
(346,33,l),
(346,0,l)
);
},
{
closed = 1;
nodes = (
(206,0,l),
(206,33,l),
(168,33,ls),
(140,33,o),
(133,53,o),
(149,78,cs),
(304,310,l),
(287,341,l),
(107,89,ls),
(79,50,o),
(63,33,o),
(13,33,c),
(13,0,l)
);
},
{
closed = 1;
nodes = (
(529,560,ls),
(566,614,o),
(583,627,o),
(638,627,c),
(638,660,l),
(445,660,l),
(445,627,l),
(464,627,ls),
(501,627,o),
(503,592,o),
(485,563,cs),
(387,409,l),
(382,345,l)
);
}
);
width = 704;
},
{
anchors = (
{
name = bottom;
pos = (327,0);
},
{
name = top;
pos = (327,660);
}
);
layerId = "4CDCBC45-D394-4652-82F8-278E2907A602";
shapes = (
{
closed = 1;
nodes = (
(643,0,l),
(643,29,l),
(578,29,o),
(566,40,o),
(538,84,cs),
(353,377,l),
(350,401,l),
(336,401,l),
(214,598,ls),
(201,618,o),
(204,631,o),
(224,631,cs),
(268,631,l),
(268,660,l),
(28,660,l),
(28,631,l),
(84,631,o),
(96,622,o),
(127,574,cs),
(284,321,l),
(284,292,l),
(302,292,l),
(443,64,ls),
(455,45,o),
(449,29,o),
(427,29,cs),
(377,29,l),
(377,0,l)
);
},
{
closed = 1;
nodes = (
(233,0,l),
(233,29,l),
(177,29,ls),
(158,29,o),
(153,45,o),
(162,63,cs),
(302,297,l),
(289,342,l),
(116,81,ls),
(88,38,o),
(72,29,o),
(16,29,c),
(16,0,l)
);
},
{
closed = 1;
nodes = (
(505,576,ls),
(539,624,o),
(557,631,o),
(611,631,c),
(611,660,l),
(412,660,l),
(412,631,l),
(457,631,ls),
(478,631,o),
(479,619,o),
(466,600,cs),
(337,397,l),
(348,354,l)
);
}
);
width = 658.125;
}
);
note = X;
unicode = 88;
},
{
glyphname = Y;
kernLeft = Y;
kernRight = Y;
lastChange = "2022-11-03 08:56:38 +0000";
layers = (
{
anchors = (
{
name = bottom;
pos = (309,0);
},
{
name = top;
pos = (309,660);
},
{
name = topleft;
pos = (47,660);
}
);
layerId = "A270BFC0-E682-4EED-9FF7-BE35A5492496";
shapes = (
{
closed = 1;
nodes = (
(444,0,l),
(444,27,l),
(356,27,o),
(353,36,o),
(353,89,cs),
(353,271,l),
(500,570,ls),
(529,622,o),
(534,633,o),
(592,633,c),
(592,660,l),
(408,660,l),
(408,633,l),
(463,633,ls),
(480,633,o),
(483,620,o),
(474,602,cs),
(332,310,l),
(330,310,l),
(180,604,ls),
(171,621,o),
(176,633,o),
(190,633,cs),
(240,633,l),
(240,660,l),
(24,660,l),
(24,633,l),
(74,633,o),
(87,625,o),
(108,585,cs),
(279,257,l),
(279,89,ls),
(279,36,o),
(276,27,o),
(188,27,c),
(188,0,l)
);
}
);
width = 611;
},
{
anchors = (
{
name = bottom;
pos = (305,0);
},
{
name = top;
pos = (305,660);
},
{
name = topleft;
pos = (40,660);
}
);
layerId = "705D5379-5CC9-457D-BF30-EC6EB9252852";
shapes = (
{
closed = 1;
nodes = (
(467,0,l),
(467,33,l),
(382,33,o),
(372,42,o),
(372,90,cs),
(372,269,l),
(529,578,ls),
(550,619,o),
(568,627,o),
(623,627,c),
(623,660,l),
(411,660,l),
(411,627,l),
(456,627,ls),
(480,627,o),
(481,613,o),
(472,592,cs),
(352,322,l),
(349,322,l),
(223,596,ls),
(215,614,o),
(214,627,o),
(239,627,cs),
(287,627,l),
(287,660,l),
(15,660,l),
(15,627,l),
(63,627,o),
(77,616,o),
(97,577,cs),
(257,259,l),
(257,90,ls),
(257,43,o),
(252,33,o),
(165,33,c),
(165,0,l)
);
}
);
width = 633;
},
{
anchors = (
{
name = bottom;
pos = (336,0);
},
{
name = top;
pos = (336,660);
},
{
name = topleft;
pos = (29,660);
}
);
layerId = "C3F6A16D-5E1F-403C-905F-9502D4908E23";
shapes = (
{
closed = 1;
nodes = (
(497,0,l),
(497,33,l),
(435,33,o),
(426,39,o),
(426,90,cs),
(426,262,l),
(574,553,ls),
(600,604,o),
(613,627,o),
(663,627,c),
(663,660,l),
(465,660,l),
(465,627,l),
(497,627,ls),
(521,627,o),
(552,607,o),
(526,552,cs),
(412,314,l),
(411,314,l),
(290,565,ls),
(266,614,o),
(284,627,o),
(307,627,cs),
(346,627,l),
(346,660,l),
(8,660,l),
(8,627,l),
(65,627,o),
(74,613,o),
(92,577,cs),
(254,251,l),
(254,90,ls),
(254,41,o),
(248,33,o),
(187,33,c),
(187,0,l)
);
}
);
width = 665;
},
{
anchors = (
{
name = bottom;
pos = (308,0);
},
{
name = top;
pos = (308,660);
},
{
name = topleft;
pos = (44,660);
}
);
layerId = "4CDCBC45-D394-4652-82F8-278E2907A602";
shapes = (
{
closed = 1;
nodes = (
(453,0,l),
(453,29,l),
(366,29,o),
(360,38,o),
(360,89,cs),
(360,270,l),
(511,573,ls),
(537,621,o),
(547,631,o),
(604,631,c),
(604,660,l),
(409,660,l),
(409,631,l),
(460,631,ls),
(480,631,o),
(482,617,o),
(473,598,cs),
(340,315,l),
(337,315,l),
(196,601,ls),
(188,618,o),
(190,631,o),
(208,631,cs),
(258,631,l),
(258,660,l),
(21,660,l),
(21,631,l),
(70,631,o),
(83,622,o),
(104,582,cs),
(271,258,l),
(271,89,ls),
(271,39,o),
(267,29,o),
(179,29,c),
(179,0,l)
);
}
);
width = 619.25;
}
);
note = Y;
unicode = 89;
},
{
glyphname = Z;
kernLeft = Z;
kernRight = Z;
lastChange = "2022-11-03 08:56:38 +0000";
layers = (
{
anchors = (
{
name = bottom;
pos = (290,0);
},
{
name = top;
pos = (290,660);
}
);
layerId = "A270BFC0-E682-4EED-9FF7-BE35A5492496";
shapes = (
{
closed = 1;
nodes = (
(530,0,l),
(540,170,l),
(512,170,l),
(495,48,o),
(450,30,o),
(303,30,cs),
(106,30,l),
(534,633,l),
(534,660,l),
(81,660,l),
(81,496,l),
(108,496,l),
(120,609,o),
(144,630,o),
(274,630,cs),
(454,630,l),
(26,27,l),
(26,0,l)
);
}
);
width = 566;
},
{
anchors = (
{
name = bottom;
pos = (291,0);
},
{
name = top;
pos = (291,660);
}
);
layerId = "705D5379-5CC9-457D-BF30-EC6EB9252852";
shapes = (
{
closed = 1;
nodes = (
(553,0,l),
(565,187,l),
(539,187,l),
(509,77,o),
(477,39,o),
(332,39,cs),
(163,39,l),
(557,630,l),
(557,660,l),
(68,660,l),
(68,484,l),
(94,484,l),
(112,592,o),
(146,621,o),
(269,621,cs),
(408,621,l),
(20,32,l),
(20,0,l)
);
}
);
width = 585;
},
{
anchors = (
{
name = bottom;
pos = (302,0);
},
{
name = top;
pos = (302,660);
}
);
layerId = "C3F6A16D-5E1F-403C-905F-9502D4908E23";
shapes = (
{
closed = 1;
nodes = (
(572,0,l),
(584,187,l),
(543,187,l),
(502,45,o),
(458,34,o),
(331,33,cs),
(214,32,l),
(562,627,l),
(563,660,l),
(47,660,l),
(47,484,l),
(88,484,l),
(100,586,o),
(139,627,o),
(253,627,cs),
(368,627,l),
(20,33,l),
(20,0,l)
);
}
);
width = 604;
},
{
anchors = (
{
name = bottom;
pos = (290,0);
},
{
name = top;
pos = (290,660);
}
);
layerId = "4CDCBC45-D394-4652-82F8-278E2907A602";
shapes = (
{
closed = 1;
nodes = (
(539,0,l),
(549,176,l),
(522,176,l),
(500,59,o),
(460,33,o),
(314,33,cs),
(127,33,l),
(543,632,l),
(543,660,l),
(76,660,l),
(76,492,l),
(103,492,l),
(117,603,o),
(145,627,o),
(272,627,cs),
(437,627,l),
(24,29,l),
(24,0,l)
);
}
);
width = 573.125;
}
);
note = Z;
unicode = 90;
},
{
glyphname = a;
kernLeft = a;
kernRight = a;
lastChange = "2022-11-03 08:56:38 +0000";
layers = (
{
anchors = (
{
name = bottom;
pos = (247,0);
},
{
name = ogonek;
pos = (469,10);
},
{
name = top;
pos = (247,467);
}
);
layerId = "A270BFC0-E682-4EED-9FF7-BE35A5492496";
shapes = (
{
closed = 1;
nodes = (
(428,-10,o),
(451,6,o),
(463,13,c),
(457,36,l),
(448,33,o),
(441,30,o),
(429,30,cs),
(404,30,o),
(393,44,o),
(393,98,cs),
(393,345,ls),
(393,446,o),
(342,479,o),
(250,479,cs),
(126,479,o),
(78,419,o),
(78,364,cs),
(78,332,o),
(95,313,o),
(123,313,cs),
(150,313,o),
(164,330,o),
(164,355,cs),
(164,391,o),
(133,390,o),
(133,405,cs),
(133,423,o),
(181,452,o),
(237,452,cs),
(304,452,o),
(327,411,o),
(327,340,cs),
(327,77,ls),
(327,-3,o),
(354,-10,o),
(383,-10,cs)
);
},
{
closed = 1;
nodes = (
(246,-12,o),
(291,18,o),
(353,74,c),
(353,101,l),
(311,66,o),
(267,32,o),
(209,32,cs),
(160,32,o),
(129,55,o),
(129,106,cs),
(129,184,o),
(203,236,o),
(354,261,c),
(354,287,l),
(152,264,o),
(53,185,o),
(53,89,cs),
(53,20,o),
(105,-12,o),
(177,-12,cs)
);
}
);
width = 477;
},
{
anchors = (
{
name = bottom;
pos = (257,0);
},
{
name = ogonek;
pos = (493,10);
},
{
name = top;
pos = (257,470);
}
);
layerId = "705D5379-5CC9-457D-BF30-EC6EB9252852";
shapes = (
{
closed = 1;
nodes = (
(453,-10,o),
(486,9,o),
(506,21,c),
(496,48,l),
(487,44,o),
(480,40,o),
(468,40,cs),
(443,40,o),
(432,54,o),
(432,108,cs),
(432,330,ls),
(432,442,o),
(380,477,o),
(277,477,cs),
(145,477,o),
(72,416,o),
(72,351,cs),
(72,316,o),
(95,293,o),
(130,293,cs),
(164,293,o),
(185,314,o),
(185,347,cs),
(185,380,o),
(157,382,o),
(157,403,cs),
(157,414,o),
(187,429,o),
(226,429,cs),
(297,429,o),
(318,397,o),
(319,345,cs),
(319,57,ls),
(319,-2,o),
(346,-10,o),
(395,-10,cs)
);
},
{
closed = 1;
nodes = (
(246,-10,o),
(299,38,o),
(338,74,c),
(338,115,l),
(316,97,o),
(281,62,o),
(232,62,cs),
(181,62,o),
(158,85,o),
(158,125,cs),
(158,189,o),
(215,225,o),
(339,249,c),
(339,287,l),
(156,259,o),
(45,184,o),
(45,90,cs),
(45,23,o),
(101,-10,o),
(169,-10,cs)
);
}
);
width = 512;
},
{
anchors = (
{
name = bottom;
pos = (271,0);
},
{
name = ogonek;
pos = (491,10);
},
{
name = top;
pos = (271,470);
}
);
layerId = "C3F6A16D-5E1F-403C-905F-9502D4908E23";
shapes = (
{
closed = 1;
nodes = (
(458,-12,o),
(500,-6,o),
(541,21,c),
(529,52,l),
(520,47,o),
(510,40,o),
(491,40,cs),
(476,40,o),
(469,48,o),
(469,95,cs),
(469,314,ls),
(469,424,o),
(419,482,o),
(297,482,cs),
(121,482,o),
(64,411,o),
(64,360,cs),
(64,329,o),
(90,294,o),
(140,294,cs),
(190,294,o),
(218,330,o),
(218,363,cs),
(218,397,o),
(196,404,o),
(196,421,cs),
(196,439,o),
(219,447,o),
(246,447,cs),
(295,447,o),
(309,419,o),
(309,361,cs),
(309,60,ls),
(309,33,o),
(339,-12,o),
(415,-12,cs)
);
},
{
closed = 1;
nodes = (
(279,-12,o),
(330,33,o),
(368,74,c),
(349,101,l),
(330,81,o),
(289,41,o),
(248,41,cs),
(211,41,o),
(191,58,o),
(191,114,cs),
(191,183,o),
(243,225,o),
(369,249,c),
(369,287,l),
(169,261,o),
(31,200,o),
(31,99,cs),
(31,27,o),
(78,-12,o),
(179,-12,cs)
);
}
);
width = 537;
},
{
anchors = (
{
name = bottom;
pos = (251,0);
},
{
name = ogonek;
pos = (478,10);
},
{
name = top;
pos = (251,468);
}
);
layerId = "4CDCBC45-D394-4652-82F8-278E2907A602";
shapes = (
{
closed = 1;
nodes = (
(437,-10,o),
(464,7,o),
(479,16,c),
(472,41,l),
(463,37,o),
(456,34,o),
(444,34,cs),
(419,34,o),
(408,48,o),
(408,102,cs),
(408,339,ls),
(408,445,o),
(356,478,o),
(260,478,cs),
(133,478,o),
(76,418,o),
(76,359,cs),
(76,326,o),
(95,306,o),
(126,306,cs),
(155,306,o),
(172,324,o),
(172,352,cs),
(172,387,o),
(142,387,o),
(142,404,cs),
(142,420,o),
(183,443,o),
(233,443,cs),
(301,443,o),
(324,406,o),
(324,342,cs),
(324,70,ls),
(324,-3,o),
(351,-10,o),
(388,-10,cs)
);
},
{
closed = 1;
nodes = (
(246,-11,o),
(294,26,o),
(347,74,c),
(347,106,l),
(313,78,o),
(272,43,o),
(218,43,cs),
(168,43,o),
(140,66,o),
(140,113,cs),
(140,186,o),
(208,232,o),
(348,257,c),
(348,287,l),
(154,262,o),
(50,185,o),
(50,89,cs),
(50,21,o),
(104,-11,o),
(174,-11,cs)
);
}
);
width = 490.125;
}
);
note = a;
unicode = 97;
},
{
glyphname = ae;
kernLeft = a;
kernRight = e;
lastChange = "2022-11-03 08:56:38 +0000";
layers = (
{
anchors = (
{
name = bottom;
pos = (375,0);
},
{
name = top;
pos = (375,467);
}
);
layerId = "A270BFC0-E682-4EED-9FF7-BE35A5492496";
shapes = (
{
closed = 1;
nodes = (
(627,-12,o),
(675,50,o),
(696,123,c),
(671,131,l),
(656,78,o),
(614,15,o),
(534,15,cs),
(429,15,o),
(397,123,o),
(397,241,cs),
(397,363,o),
(431,452,o),
(519,452,cs),
(593,452,o),
(624,388,o),
(624,267,c),
(390,267,l),
(389,240,l),
(700,240,l),
(700,247,ls),
(700,339,o),
(680,479,o),
(521,479,cs),
(377,479,o),
(317,363,o),
(317,223,cs),
(317,84,o),
(376,-12,o),
(515,-12,cs)
);
},
{
closed = 1;
nodes = (
(246,-12,o),
(291,18,o),
(353,74,c),
(353,101,l),
(311,66,o),
(267,32,o),
(209,32,cs),
(160,32,o),
(129,56,o),
(129,103,cs),
(129,174,o),
(199,218,o),
(354,241,c),
(354,267,l),
(148,245,o),
(53,175,o),
(53,86,cs),
(53,21,o),
(105,-12,o),
(177,-12,cs)
);
},
{
closed = 1;
nodes = (
(383,250,l),
(383,345,ls),
(383,445,o),
(332,479,o),
(242,479,cs),
(122,479,o),
(78,419,o),
(78,365,cs),
(78,331,o),
(95,313,o),
(123,313,cs),
(151,313,o),
(164,331,o),
(164,355,cs),
(164,391,o),
(133,390,o),
(133,405,cs),
(133,423,o),
(175,452,o),
(229,452,cs),
(294,452,o),
(317,410,o),
(317,340,cs),
(317,250,l)
);
}
);
width = 746;
},
{
anchors = (
{
name = bottom;
pos = (389,0);
},
{
name = top;
pos = (389,470);
}
);
layerId = "705D5379-5CC9-457D-BF30-EC6EB9252852";
shapes = (
{
closed = 1;
nodes = (
(669,-10,o),
(711,70,o),
(736,125,c),
(709,143,l),
(679,88,o),
(649,53,o),
(576,53,cs),
(466,53,o),
(440,134,o),
(440,257,cs),
(440,386,o),
(469,440,o),
(537,440,cs),
(598,440,o),
(619,398,o),
(619,269,c),
(435,269,l),
(435,229,l),
(741,229,l),
(741,237,ls),
(741,402,o),
(685,480,o),
(540,480,cs),
(393,480,o),
(318,400,o),
(318,237,cs),
(318,71,o),
(396,-10,o),
(533,-10,cs)
);
},
{
closed = 1;
nodes = (
(258,-10,o),
(324,36,o),
(368,70,c),
(368,121,l),
(340,100,o),
(303,62,o),
(234,62,cs),
(181,62,o),
(158,84,o),
(158,125,cs),
(158,189,o),
(215,225,o),
(339,249,c),
(339,287,l),
(151,258,o),
(45,182,o),
(45,90,cs),
(45,23,o),
(100,-10,o),
(172,-10,cs)
);
},
{
closed = 1;
nodes = (
(432,258,l),
(432,330,ls),
(432,441,o),
(381,477,o),
(278,477,cs),
(145,477,o),
(72,416,o),
(72,352,cs),
(72,316,o),
(95,293,o),
(130,293,cs),
(164,293,o),
(185,314,o),
(185,347,cs),
(185,385,o),
(157,392,o),
(157,403,cs),
(157,414,o),
(181,429,o),
(227,429,cs),
(295,429,o),
(319,397,o),
(319,345,cs),
(319,258,l)
);
}
);
width = 787;
},
{
anchors = (
{
name = bottom;
pos = (401,0);
},
{
name = top;
pos = (401,470);
}
);
layerId = "C3F6A16D-5E1F-403C-905F-9502D4908E23";
shapes = (
{
closed = 1;
nodes = (
(678,-12,o),
(724,64,o),
(752,127,c),
(716,144,l),
(691,89,o),
(648,50,o),
(579,50,cs),
(499,50,o),
(469,103,o),
(469,265,cs),
(469,416,o),
(495,449,o),
(535,449,cs),
(585,449,o),
(600,398,o),
(600,266,c),
(387,266,l),
(387,233,l),
(767,233,l),
(767,239,ls),
(767,398,o),
(691,482,o),
(546,482,cs),
(385,482,o),
(309,378,o),
(309,225,cs),
(309,75,o),
(383,-12,o),
(535,-12,cs)
);
},
{
closed = 1;
nodes = (
(280,-12,o),
(341,33,o),
(388,74,c),
(391,124,l),
(371,108,o),
(314,41,o),
(247,41,cs),
(214,41,o),
(191,57,o),
(191,109,cs),
(191,186,o),
(242,220,o),
(369,233,c),
(369,266,l),
(182,262,o),
(31,205,o),
(31,93,cs),
(31,30,o),
(79,-12,o),
(178,-12,cs)
);
},
{
closed = 1;
nodes = (
(459,253,l),
(459,314,ls),
(459,393,o),
(421,482,o),
(272,482,cs),
(151,482,o),
(64,423,o),
(64,362,cs),
(64,328,o),
(90,294,o),
(140,294,cs),
(190,294,o),
(218,329,o),
(218,365,cs),
(218,396,o),
(196,404,o),
(196,421,cs),
(196,439,o),
(219,447,o),
(246,447,cs),
(295,447,o),
(309,419,o),
(309,361,cs),
(309,253,l)
);
}
);
width = 795;
},
{
anchors = (
{
name = bottom;
pos = (380,0);
},
{
name = top;
pos = (380,468);
}
);
layerId = "4CDCBC45-D394-4652-82F8-278E2907A602";
shapes = (
{
closed = 1;
nodes = (
(643,-11,o),
(689,58,o),
(711,124,c),
(685,136,l),
(665,82,o),
(627,29,o),
(550,29,cs),
(443,29,o),
(413,127,o),
(413,247,cs),
(413,372,o),
(445,448,o),
(526,448,cs),
(595,448,o),
(622,392,o),
(622,268,c),
(407,268,l),
(406,236,l),
(715,236,l),
(715,243,ls),
(715,363,o),
(682,479,o),
(528,479,cs),
(383,479,o),
(317,377,o),
(317,228,cs),
(317,79,o),
(384,-11,o),
(522,-11,cs)
);
},
{
closed = 1;
nodes = (
(251,-11,o),
(303,25,o),
(359,73,c),
(359,109,l),
(322,79,o),
(281,43,o),
(218,43,cs),
(168,43,o),
(140,67,o),
(140,111,cs),
(140,180,o),
(205,221,o),
(348,244,c),
(348,275,l),
(149,250,o),
(50,178,o),
(50,88,cs),
(50,22,o),
(103,-11,o),
(175,-11,cs)
);
},
{
closed = 1;
nodes = (
(401,253,l),
(401,339,ls),
(401,444,o),
(350,478,o),
(256,478,cs),
(131,478,o),
(76,418,o),
(76,360,cs),
(76,325,o),
(95,306,o),
(126,306,cs),
(156,306,o),
(172,325,o),
(172,352,cs),
(172,389,o),
(142,391,o),
(142,404,cs),
(142,420,o),
(177,443,o),
(228,443,cs),
(294,443,o),
(318,405,o),
(318,342,cs),
(318,253,l)
);
}
);
width = 761.375;
}
);
note = ae;
unicode = 230;
},
{
glyphname = b;
kernLeft = h;
kernRight = b;
lastChange = "2022-11-03 08:56:38 +0000";
layers = (
{
anchors = (
{
name = bottom;
pos = (278,0);
},
{
name = top;
pos = (278,470);
}
);
layerId = "A270BFC0-E682-4EED-9FF7-BE35A5492496";
shapes = (
{
closed = 1;
nodes = (
(421,-12,o),
(504,60,o),
(504,241,cs),
(504,398,o),
(442,479,o),
(323,479,cs),
(217,479,o),
(167,423,o),
(150,406,c),
(150,370,l),
(171,391,o),
(226,452,o),
(305,452,cs),
(395,452,o),
(428,367,o),
(428,235,cs),
(428,75,o),
(379,14,o),
(296,14,cs),
(216,14,o),
(162,80,o),
(136,129,c),
(136,81,l),
(158,53,o),
(204,-12,o),
(306,-12,cs)
);
},
{
closed = 1;
nodes = (
(136,0,l),
(170,41,l),
(175,41,l),
(175,693,l),
(148,693,l),
(39,672,l),
(39,645,l),
(78,645,ls),
(103,645,o),
(109,638,o),
(109,601,cs),
(109,0,l)
);
},
{
closed = 1;
nodes = (
(182,418,l),
(182,431,l),
(173,431,l),
(173,418,l)
);
}
);
width = 554;
},
{
anchors = (
{
name = bottom;
pos = (293,0);
},
{
name = top;
pos = (293,470);
}
);
layerId = "705D5379-5CC9-457D-BF30-EC6EB9252852";
shapes = (
{
closed = 1;
nodes = (
(444,-11,o),
(533,68,o),
(533,248,cs),
(533,404,o),
(466,480,o),
(352,480,cs),
(283,480,o),
(225,452,o),
(193,419,c),
(185,365,l),
(232,401,o),
(254,415,o),
(290,415,cs),
(368,415,o),
(410,350,o),
(410,221,cs),
(410,91,o),
(367,29,o),
(287,29,cs),
(251,29,o),
(216,41,o),
(187,74,c),
(131,32,l),
(183,11,o),
(228,-11,o),
(303,-11,cs)
);
},
{
closed = 1;
nodes = (
(123,0,l),
(145,26,l),
(200,26,l),
(200,690,l),
(172,690,l),
(25,668,l),
(25,634,l),
(43,634,ls),
(80,634,o),
(85,627,o),
(85,584,cs),
(85,0,l)
);
},
{
closed = 1;
nodes = (
(206,414,l),
(206,427,l),
(197,427,l),
(197,414,l)
);
}
);
width = 578;
},
{
anchors = (
{
name = bottom;
pos = (309,0);
},
{
name = top;
pos = (309,470);
}
);
layerId = "C3F6A16D-5E1F-403C-905F-9502D4908E23";
shapes = (
{
closed = 1;
nodes = (
(482,-12,o),
(577,80,o),
(577,246,cs),
(577,401,o),
(501,482,o),
(378,482,cs),
(297,482,o),
(257,447,o),
(217,406,c),
(217,352,l),
(229,369,o),
(268,431,o),
(321,431,cs),
(386,431,o),
(410,355,o),
(410,233,cs),
(410,75,o),
(385,21,o),
(320,21,cs),
(241,21,o),
(199,113,o),
(173,161,c),
(173,33,l),
(217,7,o),
(261,-12,o),
(325,-12,cs)
);
},
{
closed = 1;
nodes = (
(140,0,l),
(173,33,l),
(244,33,l),
(244,690,l),
(189,690,l),
(21,665,l),
(21,631,l),
(56,631,ls),
(80,631,o),
(85,624,o),
(85,598,cs),
(85,0,l)
);
},
{
closed = 1;
nodes = (
(257,420,l),
(257,433,l),
(208,433,l),
(208,420,l)
);
}
);
width = 606;
},
{
anchors = (
{
name = bottom;
pos = (284,0);
},
{
name = top;
pos = (284,470);
}
);
layerId = "4CDCBC45-D394-4652-82F8-278E2907A602";
shapes = (
{
closed = 1;
nodes = (
(430,-12,o),
(515,63,o),
(515,244,cs),
(515,400,o),
(451,479,o),
(334,479,cs),
(242,479,o),
(189,434,o),
(166,411,c),
(163,368,l),
(194,395,o),
(237,438,o),
(299,438,cs),
(385,438,o),
(421,361,o),
(421,230,cs),
(421,81,o),
(375,20,o),
(293,20,cs),
(229,20,o),
(182,65,o),
(155,108,c),
(134,63,l),
(167,37,o),
(213,-12,o),
(305,-12,cs)
);
},
{
closed = 1;
nodes = (
(131,0,l),
(161,35,l),
(184,35,l),
(184,692,l),
(157,692,l),
(34,671,l),
(34,641,l),
(65,641,ls),
(94,641,o),
(100,634,o),
(100,595,cs),
(100,0,l)
);
},
{
closed = 1;
nodes = (
(191,417,l),
(191,430,l),
(182,430,l),
(182,417,l)
);
}
);
width = 563;
}
);
note = b;
unicode = 98;
},
{
glyphname = c;
kernLeft = o;
kernRight = c;
lastChange = "2022-11-03 08:56:38 +0000";
layers = (
{
anchors = (
{
name = bottom;
pos = (230,0);
},
{
name = top;
pos = (230,467);
}
);
layerId = "A270BFC0-E682-4EED-9FF7-BE35A5492496";
shapes = (
{
closed = 1;
nodes = (
(401,-12,o),
(435,86,o),
(437,89,c),
(413,102,l),
(402,76,o),
(365,15,o),
(276,15,cs),
(191,15,o),
(126,70,o),
(126,233,cs),
(126,399,o),
(194,452,o),
(284,452,cs),
(323,452,o),
(359,442,o),
(359,424,cs),
(359,409,o),
(335,405,o),
(335,373,cs),
(335,346,o),
(352,328,o),
(383,328,cs),
(418,328,o),
(430,352,o),
(430,380,cs),
(430,452,o),
(347,479,o),
(272,479,cs),
(110,479,o),
(50,353,o),
(50,230,cs),
(50,95,o),
(122,-12,o),
(265,-12,cs)
);
}
);
width = 476;
},
{
anchors = (
{
name = bottom;
pos = (244,0);
},
{
name = top;
pos = (244,470);
}
);
layerId = "705D5379-5CC9-457D-BF30-EC6EB9252852";
shapes = (
{
closed = 1;
nodes = (
(384,-10,o),
(436,44,o),
(464,129,c),
(439,144,l),
(422,110,o),
(393,52,o),
(305,52,cs),
(212,52,o),
(170,118,o),
(170,255,cs),
(170,404,o),
(219,440,o),
(291,440,cs),
(339,440,o),
(361,424,o),
(361,404,cs),
(361,387,o),
(344,377,o),
(344,347,cs),
(344,316,o),
(362,290,o),
(400,290,cs),
(435,290,o),
(458,313,o),
(458,354,cs),
(458,416,o),
(406,480,o),
(276,480,cs),
(131,480,o),
(47,400,o),
(47,230,cs),
(47,65,o),
(127,-10,o),
(266,-10,cs)
);
}
);
width = 494;
},
{
anchors = (
{
name = bottom;
pos = (248,0);
},
{
name = top;
pos = (248,470);
}
);
layerId = "C3F6A16D-5E1F-403C-905F-9502D4908E23";
shapes = (
{
closed = 1;
nodes = (
(407,-12,o),
(444,68,o),
(470,127,c),
(434,144,l),
(408,88,o),
(379,50,o),
(307,50,cs),
(229,50,o),
(196,95,o),
(196,263,cs),
(196,412,o),
(222,449,o),
(273,449,cs),
(309,449,o),
(324,430,o),
(324,407,cs),
(324,386,o),
(310,377,o),
(310,349,cs),
(310,308,o),
(340,288,o),
(382,288,cs),
(435,288,o),
(456,320,o),
(456,360,cs),
(456,430,o),
(393,482,o),
(277,482,cs),
(128,482,o),
(29,395,o),
(29,229,cs),
(29,74,o),
(115,-12,o),
(264,-12,cs)
);
}
);
width = 497;
},
{
anchors = (
{
name = bottom;
pos = (235,0);
},
{
name = top;
pos = (235,468);
}
);
layerId = "4CDCBC45-D394-4652-82F8-278E2907A602";
shapes = (
{
closed = 1;
nodes = (
(395,-11,o),
(435,70,o),
(447,104,c),
(423,118,l),
(410,89,o),
(376,29,o),
(287,29,cs),
(199,29,o),
(143,88,o),
(143,241,cs),
(143,401,o),
(203,448,o),
(287,448,cs),
(329,448,o),
(360,435,o),
(360,417,cs),
(360,401,o),
(338,395,o),
(338,363,cs),
(338,335,o),
(356,314,o),
(389,314,cs),
(424,314,o),
(441,337,o),
(441,370,cs),
(441,439,o),
(369,479,o),
(274,479,cs),
(118,479,o),
(49,371,o),
(49,230,cs),
(49,84,o),
(124,-11,o),
(265,-11,cs)
);
}
);
width = 482.75;
}
);
note = c;
unicode = 99;
},
{
glyphname = d;
kernLeft = o;
kernRight = l;
lastChange = "2022-11-03 08:56:38 +0000";
layers = (
{
anchors = (
{
name = bottom;
pos = (270,0);
},
{
name = center;
pos = (270,234);
},
{
name = top;
pos = (270,467);
},
{
name = topright;
pos = (522,467);
}
);
layerId = "A270BFC0-E682-4EED-9FF7-BE35A5492496";
shapes = (
{
closed = 1;
nodes = (
(337,-12,o),
(387,55,o),
(404,71,c),
(404,107,l),
(383,86,o),
(328,15,o),
(249,15,cs),
(159,15,o),
(126,100,o),
(126,232,cs),
(126,392,o),
(175,453,o),
(258,453,cs),
(338,453,o),
(392,387,o),
(418,338,c),
(418,386,l),
(396,415,o),
(350,479,o),
(248,479,cs),
(133,479,o),
(50,407,o),
(50,226,cs),
(50,69,o),
(112,-12,o),
(231,-12,cs)
);
},
{
closed = 1;
nodes = (
(511,0,l),
(511,27,l),
(476,27,ls),
(451,27,o),
(445,34,o),
(445,71,cs),
(445,693,l),
(418,693,l),
(309,672,l),
(309,645,l),
(348,645,ls),
(373,645,o),
(379,638,o),
(379,601,cs),
(379,66,l),
(389,0,l)
);
},
{
closed = 1;
nodes = (
(387,417,l),
(387,432,l),
(376,432,l),
(376,417,l)
);
}
);
width = 534;
},
{
anchors = (
{
name = bottom;
pos = (294,0);
},
{
name = center;
pos = (294,235);
},
{
name = top;
pos = (294,470);
},
{
name = topright;
pos = (584,470);
}
);
layerId = "705D5379-5CC9-457D-BF30-EC6EB9252852";
shapes = (
{
closed = 1;
nodes = (
(292,-11,o),
(353,19,o),
(390,50,c),
(390,101,l),
(342,67,o),
(324,54,o),
(288,54,cs),
(210,54,o),
(168,117,o),
(168,248,cs),
(168,383,o),
(213,440,o),
(293,440,cs),
(326,440,o),
(361,430,o),
(390,405,c),
(390,460,l),
(354,471,o),
(330,480,o),
(281,480,cs),
(134,480,o),
(45,399,o),
(45,225,cs),
(45,77,o),
(110,-11,o),
(225,-11,cs)
);
},
{
closed = 1;
nodes = (
(557,0,l),
(557,33,l),
(546,33,ls),
(509,33,o),
(493,42,o),
(493,83,cs),
(493,690,l),
(464,690,l),
(319,666,l),
(319,634,l),
(349,634,ls),
(373,634,o),
(378,622,o),
(378,587,cs),
(378,69,l),
(388,0,l)
);
},
{
closed = 1;
nodes = (
(386,449,l),
(386,464,l),
(375,464,l),
(375,449,l)
);
}
);
width = 573;
},
{
anchors = (
{
name = bottom;
pos = (296,0);
},
{
name = center;
pos = (296,235);
},
{
name = top;
pos = (296,470);
},
{
name = topright;
pos = (621,470);
}
);
layerId = "C3F6A16D-5E1F-403C-905F-9502D4908E23";
shapes = (
{
closed = 1;
nodes = (
(289,-11,o),
(337,11,o),
(392,69,c),
(384,118,l),
(366,95,o),
(334,40,o),
(283,40,cs),
(225,40,o),
(192,110,o),
(192,254,cs),
(192,379,o),
(217,449,o),
(286,449,cs),
(344,449,o),
(380,401,o),
(400,379,c),
(400,453,l),
(365,467,o),
(333,482,o),
(274,482,cs),
(119,482,o),
(29,392,o),
(29,224,cs),
(29,74,o),
(103,-11,o),
(226,-11,cs)
);
},
{
closed = 1;
nodes = (
(581,0,l),
(581,33,l),
(550,33,ls),
(523,33,o),
(517,38,o),
(517,83,cs),
(517,690,l),
(465,690,l),
(295,665,l),
(295,631,l),
(332,631,ls),
(349,631,o),
(359,625,o),
(359,601,cs),
(359,77,l),
(372,0,l)
);
},
{
closed = 1;
nodes = (
(400,455,l),
(400,470,l),
(349,470,l),
(349,455,l)
);
}
);
width = 603;
},
{
anchors = (
{
name = bottom;
pos = (279,0);
},
{
name = center;
pos = (279,234);
},
{
name = top;
pos = (279,468);
},
{
name = topright;
pos = (545,468);
}
);
layerId = "4CDCBC45-D394-4652-82F8-278E2907A602";
shapes = (
{
closed = 1;
nodes = (
(320,-12,o),
(374,42,o),
(399,63,c),
(399,105,l),
(368,79,o),
(327,30,o),
(264,30,cs),
(178,30,o),
(142,106,o),
(142,238,cs),
(142,389,o),
(189,448,o),
(271,448,cs),
(334,448,o),
(380,403,o),
(408,363,c),
(408,414,l),
(380,436,o),
(343,479,o),
(260,479,cs),
(133,479,o),
(48,404,o),
(48,226,cs),
(48,72,o),
(111,-12,o),
(229,-12,cs)
);
},
{
closed = 1;
nodes = (
(528,0,l),
(528,29,l),
(502,29,ls),
(473,29,o),
(463,37,o),
(463,76,cs),
(463,692,l),
(435,692,l),
(313,670,l),
(313,641,l),
(348,641,ls),
(373,641,o),
(379,632,o),
(379,596,cs),
(379,67,l),
(389,0,l)
);
},
{
closed = 1;
nodes = (
(387,429,l),
(387,444,l),
(376,444,l),
(376,429,l)
);
}
);
width = 548.625;
}
);
note = d;
unicode = 100;
},
{
glyphname = eth;
kernLeft = o;
lastChange = "2022-11-03 08:56:38 +0000";
layers = (
{
layerId = "A270BFC0-E682-4EED-9FF7-BE35A5492496";
shapes = (
{
closed = 1;
nodes = (
(393,-11,o),
(467,72,o),
(467,241,cs),
(467,352,o),
(435,448,o),
(371,529,cs),
(314,601,o),
(232,661,o),
(136,708,c),
(115,692,l),
(209,627,o),
(281,572,o),
(333,476,c),
(333,473,l),
(308,476,o),
(287,479,o),
(262,479,cs),
(119,479,o),
(50,386,o),
(50,233,cs),
(50,81,o),
(118,-11,o),
(259,-11,cs)
);
},
{
closed = 1;
nodes = (
(160,16,o),
(126,100,o),
(126,236,cs),
(126,371,o),
(160,452,o),
(263,452,cs),
(365,452,o),
(391,371,o),
(391,243,cs),
(391,102,o),
(359,16,o),
(259,16,cs)
);
},
{
closed = 1;
nodes = (
(387,641,l),
(370,666,l),
(84,542,l),
(101,517,l)
);
}
);
width = 520;
},
{
layerId = "705D5379-5CC9-457D-BF30-EC6EB9252852";
shapes = (
{
closed = 1;
nodes = (
(443,-12,o),
(513,88,o),
(513,244,cs),
(513,352,o),
(479,431,o),
(411,507,cs),
(351,574,o),
(257,646,o),
(154,707,c),
(111,673,l),
(193,609,o),
(258,549,o),
(315,477,c),
(314,476,l),
(302,478,o),
(294,480,o),
(271,480,cs),
(125,480,o),
(45,398,o),
(45,234,cs),
(45,71,o),
(124,-12,o),
(276,-12,cs)
);
},
{
closed = 1;
nodes = (
(206,28,o),
(169,97,o),
(169,239,cs),
(169,375,o),
(203,440,o),
(281,440,cs),
(357,440,o),
(389,379,o),
(389,238,cs),
(389,93,o),
(355,28,o),
(282,28,cs)
);
},
{
closed = 1;
nodes = (
(441,646,l),
(418,679,l),
(98,540,l),
(121,507,l)
);
}
);
width = 564;
},
{
layerId = "C3F6A16D-5E1F-403C-905F-9502D4908E23";
shapes = (
{
closed = 1;
nodes = (
(453,-12,o),
(543,74,o),
(543,247,cs),
(543,355,o),
(508,423,o),
(433,507,cs),
(357,591,o),
(291,640,o),
(149,707,c),
(106,673,l),
(204,619,o),
(270,560,o),
(325,477,c),
(324,476,l),
(318,477,o),
(308,480,o),
(278,480,cs),
(117,480,o),
(29,396,o),
(29,234,cs),
(29,71,o),
(117,-12,o),
(284,-12,cs)
);
},
{
closed = 1;
nodes = (
(217,21,o),
(196,103,o),
(196,235,cs),
(196,373,o),
(219,447,o),
(288,447,cs),
(357,447,o),
(376,374,o),
(376,228,cs),
(376,99,o),
(361,21,o),
(290,21,cs)
);
},
{
closed = 1;
nodes = (
(465,645,l),
(436,687,l),
(91,537,l),
(120,495,l)
);
}
);
width = 573;
},
{
layerId = "4CDCBC45-D394-4652-82F8-278E2907A602";
shapes = (
{
closed = 1;
nodes = (
(412,-11,o),
(484,78,o),
(484,242,cs),
(484,352,o),
(452,442,o),
(386,521,cs),
(328,591,o),
(241,655,o),
(143,708,c),
(114,685,l),
(203,620,o),
(272,563,o),
(326,476,c),
(326,474,l),
(306,477,o),
(290,479,o),
(265,479,cs),
(121,479,o),
(48,391,o),
(48,233,cs),
(48,77,o),
(120,-11,o),
(265,-11,cs)
);
},
{
closed = 1;
nodes = (
(177,21,o),
(142,99,o),
(142,237,cs),
(142,373,o),
(176,448,o),
(270,448,cs),
(362,448,o),
(390,374,o),
(390,241,cs),
(390,99,o),
(358,21,o),
(268,21,cs)
);
},
{
closed = 1;
nodes = (
(407,643,l),
(388,671,l),
(89,541,l),
(109,513,l)
);
}
);
width = 536.5;
}
);
note = eth;
unicode = 240;
},
{
glyphname = dcroat;
kernLeft = o;
kernRight = l;
lastChange = "2022-11-03 08:56:38 +0000";
layers = (
{
layerId = "A270BFC0-E682-4EED-9FF7-BE35A5492496";
shapes = (
{
closed = 1;
nodes = (
(513,550,l),
(513,577,l),
(244,577,l),
(244,550,l)
);
},
{
ref = d;
}
);
width = 536;
},
{
layerId = "705D5379-5CC9-457D-BF30-EC6EB9252852";
shapes = (
{
closed = 1;
nodes = (
(567,550,l),
(567,590,l),
(244,590,l),
(244,550,l)
);
},
{
ref = d;
}
);
width = 583;
},
{
layerId = "C3F6A16D-5E1F-403C-905F-9502D4908E23";
shapes = (
{
closed = 1;
nodes = (
(569,551,l),
(569,594,l),
(234,594,l),
(234,551,l)
);
},
{
ref = d;
}
);
width = 603;
},
{
layerId = "4CDCBC45-D394-4652-82F8-278E2907A602";
shapes = (
{
closed = 1;
nodes = (
(533,550,l),
(533,582,l),
(244,582,l),
(244,550,l)
);
},
{
alignment = -1;
ref = d;
}
);
width = 553.625;
}
);
unicode = 273;
},
{
glyphname = e;
kernLeft = o;
kernRight = e;
lastChange = "2022-11-03 08:56:38 +0000";
layers = (
{
anchors = (
{
name = bottom;
pos = (248,0);
},
{
name = ogonek;
pos = (369,10);
},
{
name = top;
pos = (248,467);
}
);
layerId = "A270BFC0-E682-4EED-9FF7-BE35A5492496";
shapes = (
{
closed = 1;
nodes = (
(383,-12,o),
(430,53,o),
(450,123,c),
(425,131,l),
(411,82,o),
(372,15,o),
(276,15,cs),
(147,15,o),
(124,133,o),
(126,242,cs),
(129,372,o),
(167,452,o),
(261,452,cs),
(345,452,o),
(378,387,o),
(378,257,c),
(120,257,l),
(119,230,l),
(454,230,l),
(454,237,ls),
(454,333,o),
(436,479,o),
(262,479,cs),
(117,479,o),
(50,377,o),
(50,227,cs),
(50,82,o),
(112,-12,o),
(260,-12,cs)
);
}
);
width = 500;
},
{
anchors = (
{
name = bottom;
pos = (262,0);
},
{
name = ogonek;
pos = (368,10);
},
{
name = top;
pos = (262,470);
}
);
layerId = "705D5379-5CC9-457D-BF30-EC6EB9252852";
shapes = (
{
closed = 1;
nodes = (
(396,-10,o),
(441,61,o),
(467,125,c),
(436,143,l),
(411,85,o),
(371,53,o),
(304,53,cs),
(195,53,o),
(169,136,o),
(169,257,cs),
(169,385,o),
(198,440,o),
(265,440,cs),
(339,440,o),
(348,373,o),
(348,269,c),
(132,269,l),
(132,229,l),
(470,229,l),
(470,242,ls),
(470,377,o),
(417,480,o),
(261,480,cs),
(123,480,o),
(47,399,o),
(47,233,cs),
(47,72,o),
(119,-10,o),
(262,-10,cs)
);
}
);
width = 517;
},
{
anchors = (
{
name = bottom;
pos = (260,0);
},
{
name = ogonek;
pos = (473,10);
},
{
name = top;
pos = (260,470);
}
);
layerId = "C3F6A16D-5E1F-403C-905F-9502D4908E23";
shapes = (
{
closed = 1;
nodes = (
(406,-12,o),
(451,64,o),
(479,127,c),
(443,144,l),
(418,89,o),
(375,50,o),
(306,50,cs),
(226,50,o),
(196,103,o),
(196,265,cs),
(196,416,o),
(222,449,o),
(262,449,cs),
(312,449,o),
(327,398,o),
(327,266,c),
(114,266,l),
(114,233,l),
(494,233,l),
(494,239,ls),
(494,398,o),
(421,482,o),
(266,482,cs),
(112,482,o),
(29,399,o),
(29,234,cs),
(29,71,o),
(110,-12,o),
(261,-12,cs)
);
}
);
width = 522;
},
{
anchors = (
{
name = bottom;
pos = (253,0);
},
{
name = ogonek;
pos = (371,10);
},
{
name = top;
pos = (253,468);
}
);
layerId = "4CDCBC45-D394-4652-82F8-278E2907A602";
shapes = (
{
closed = 1;
nodes = (
(388,-11,o),
(434,56,o),
(456,124,c),
(429,136,l),
(411,83,o),
(372,29,o),
(287,29,cs),
(165,29,o),
(141,134,o),
(142,248,cs),
(144,377,o),
(179,448,o),
(263,448,cs),
(343,448,o),
(367,382,o),
(367,262,c),
(125,262,l),
(124,230,l),
(460,230,l),
(460,239,ls),
(460,350,o),
(429,479,o),
(262,479,cs),
(119,479,o),
(49,385,o),
(49,229,cs),
(49,78,o),
(115,-11,o),
(261,-11,cs)
);
}
);
width = 506.375;
}
);
note = e;
unicode = 101;
},
{
glyphname = f;
kernLeft = f;
kernRight = f;
lastChange = "2022-11-03 08:56:38 +0000";
layers = (
{
anchors = (
{
name = bottom;
pos = (176,0);
},
{
name = top;
pos = (176,500);
}
);
layerId = "A270BFC0-E682-4EED-9FF7-BE35A5492496";
shapes = (
{
closed = 1;
nodes = (
(263,0,l),
(263,27,l),
(177,27,o),
(173,32,o),
(173,82,cs),
(173,434,l),
(284,434,l),
(284,467,l),
(173,467,l),
(173,567,ls),
(173,642,o),
(206,678,o),
(251,678,cs),
(272,678,o),
(291,669,o),
(291,659,cs),
(291,643,o),
(270,641,o),
(270,613,cs),
(270,587,o),
(287,572,o),
(312,572,cs),
(337,572,o),
(355,593,o),
(355,621,cs),
(355,667,o),
(322,705,o),
(246,705,cs),
(143,705,o),
(107,632,o),
(107,532,cs),
(107,467,l),
(34,467,l),
(34,434,l),
(107,434,l),
(107,83,ls),
(107,33,o),
(104,27,o),
(36,27,c),
(36,0,l)
);
}
);
width = 301;
},
{
anchors = (
{
name = bottom;
pos = (175,0);
},
{
name = top;
pos = (175,500);
}
);
layerId = "705D5379-5CC9-457D-BF30-EC6EB9252852";
shapes = (
{
closed = 1;
nodes = (
(295,0,l),
(295,33,l),
(221,33,o),
(215,40,o),
(215,83,cs),
(215,430,l),
(328,430,l),
(328,470,l),
(215,470,l),
(215,581,ls),
(215,640,o),
(232,671,o),
(271,671,cs),
(291,671,o),
(304,660,o),
(304,651,cs),
(304,638,o),
(291,632,o),
(291,607,cs),
(291,576,o),
(310,558,o),
(343,558,cs),
(379,558,o),
(395,579,o),
(395,610,cs),
(395,660,o),
(353,704,o),
(268,704,cs),
(165,704,o),
(98,639,o),
(98,531,cs),
(98,470,l),
(34,470,l),
(34,430,l),
(98,430,l),
(98,83,ls),
(98,43,o),
(93,33,o),
(34,33,c),
(34,0,l)
);
}
);
width = 323;
},
{
anchors = (
{
name = bottom;
pos = (187,0);
},
{
name = top;
pos = (187,470);
}
);
layerId = "C3F6A16D-5E1F-403C-905F-9502D4908E23";
shapes = (
{
closed = 1;
nodes = (
(332,0,l),
(332,33,l),
(259,33,o),
(245,39,o),
(245,83,cs),
(245,437,l),
(332,437,l),
(332,470,l),
(245,470,l),
(245,565,ls),
(245,622,o),
(254,679,o),
(301,679,cs),
(318,679,o),
(331,671,o),
(331,653,cs),
(331,628,o),
(304,628,o),
(304,590,cs),
(304,553,o),
(331,527,o),
(374,527,cs),
(420,527,o),
(444,556,o),
(444,598,cs),
(444,669,o),
(377,704,o),
(293,704,cs),
(166,704,o),
(86,626,o),
(86,518,cs),
(86,470,l),
(22,470,l),
(22,437,l),
(86,437,l),
(86,83,ls),
(86,39,o),
(78,33,o),
(22,33,c),
(22,0,l)
);
}
);
width = 347;
},
{
anchors = (
{
name = bottom;
pos = (176,0);
},
{
name = top;
pos = (176,500);
}
);
layerId = "4CDCBC45-D394-4652-82F8-278E2907A602";
shapes = (
{
closed = 1;
nodes = (
(275,0,l),
(275,29,l),
(194,29,o),
(189,35,o),
(189,82,cs),
(189,433,l),
(301,433,l),
(301,468,l),
(189,468,l),
(189,572,ls),
(189,641,o),
(216,675,o),
(259,675,cs),
(279,675,o),
(296,666,o),
(296,656,cs),
(296,641,o),
(278,638,o),
(278,611,cs),
(278,583,o),
(296,567,o),
(324,567,cs),
(353,567,o),
(370,588,o),
(370,617,cs),
(370,664,o),
(334,705,o),
(254,705,cs),
(151,705,o),
(104,635,o),
(104,532,cs),
(104,468,l),
(34,468,l),
(34,433,l),
(104,433,l),
(104,83,ls),
(104,37,o),
(100,29,o),
(35,29,c),
(35,0,l)
);
}
);
width = 309.25;
}
);
note = f;
unicode = 102;
},
{
glyphname = g;
kernLeft = g;
kernRight = g;
lastChange = "2022-11-03 08:56:38 +0000";
layers = (
{
anchors = (
{
name = bottom;
pos = (259,0);
},
{
name = top;
pos = (247,467);
}
);
layerId = "A270BFC0-E682-4EED-9FF7-BE35A5492496";
shapes = (
{
closed = 1;
nodes = (
(360,-212,o),
(464,-170,o),
(464,-60,cs),
(464,14,o),
(417,56,o),
(283,56,cs),
(222,56,ls),
(137,56,o),
(117,80,o),
(117,105,cs),
(117,156,o),
(201,183,o),
(222,188,c),
(187,200,l),
(102,171,o),
(61,126,o),
(61,84,cs),
(61,43,o),
(99,0,o),
(165,0,cs),
(279,0,ls),
(373,0,o),
(400,-23,o),
(400,-71,cs),
(400,-144,o),
(339,-185,o),
(245,-185,cs),
(157,-185,o),
(104,-149,o),
(104,-87,cs),
(104,-52,o),
(121,-4,o),
(203,9,c),
(150,16,l),
(69,-9,o),
(40,-45,o),
(40,-94,cs),
(40,-178,o),
(128,-212,o),
(238,-212,cs)
);
},
{
closed = 1;
nodes = (
(336,167,o),
(429,208,o),
(429,322,cs),
(429,435,o),
(341,479,o),
(247,479,cs),
(158,479,o),
(65,435,o),
(65,322,cs),
(65,208,o),
(158,167,o),
(247,167,cs)
);
},
{
closed = 1;
nodes = (
(165,194,o),
(139,249,o),
(139,320,cs),
(139,401,o),
(171,452,o),
(247,452,cs),
(325,452,o),
(355,401,o),
(355,328,cs),
(355,243,o),
(331,194,o),
(242,194,cs)
);
},
{
closed = 1;
nodes = (
(527,371,o),
(542,390,o),
(542,416,cs),
(542,449,o),
(517,479,o),
(472,479,cs),
(434,479,o),
(401,452,o),
(378,415,c),
(397,400,l),
(417,427,o),
(434,447,o),
(447,447,cs),
(457,447,o),
(468,441,o),
(468,429,cs),
(468,422,o),
(464,416,o),
(464,406,cs),
(464,386,o),
(481,371,o),
(503,371,cs)
);
}
);
width = 567;
},
{
anchors = (
{
name = bottom;
pos = (263,0);
},
{
name = top;
pos = (245,470);
}
);
layerId = "705D5379-5CC9-457D-BF30-EC6EB9252852";
shapes = (
{
closed = 1;
nodes = (
(375,-212,o),
(487,-159,o),
(487,-36,cs),
(487,58,o),
(422,109,o),
(306,109,cs),
(215,109,ls),
(166,109,o),
(150,127,o),
(150,140,cs),
(150,168,o),
(216,200,o),
(228,202,c),
(190,210,l),
(104,177,o),
(54,141,o),
(54,92,cs),
(54,43,o),
(106,7,o),
(181,7,cs),
(254,7,ls),
(349,7,o),
(393,-18,o),
(393,-74,cs),
(393,-140,o),
(331,-173,o),
(265,-173,cs),
(190,-173,o),
(135,-130,o),
(135,-69,cs),
(135,-35,o),
(152,6,o),
(226,16,c),
(143,23,l),
(58,1,o),
(30,-29,o),
(30,-79,cs),
(30,-170,o),
(125,-212,o),
(243,-212,cs)
);
},
{
closed = 1;
nodes = (
(341,166,o),
(439,206,o),
(439,321,cs),
(439,433,o),
(345,478,o),
(244,478,cs),
(148,478,o),
(39,438,o),
(39,319,cs),
(39,206,o),
(138,166,o),
(240,166,cs)
);
},
{
closed = 1;
nodes = (
(174,206,o),
(160,252,o),
(160,321,cs),
(160,390,o),
(174,437,o),
(246,437,cs),
(317,437,o),
(329,391,o),
(329,326,cs),
(329,251,o),
(300,206,o),
(242,206,cs)
);
},
{
closed = 1;
nodes = (
(536,362,o),
(550,383,o),
(550,413,cs),
(550,460,o),
(513,480,o),
(473,480,cs),
(431,480,o),
(399,459,o),
(374,414,c),
(396,388,l),
(416,434,o),
(438,435,o),
(449,435,cs),
(467,435,o),
(469,426,o),
(469,423,cs),
(469,416,o),
(465,412,o),
(465,396,cs),
(465,380,o),
(477,362,o),
(506,362,cs)
);
}
);
width = 565;
},
{
anchors = (
{
name = bottom;
pos = (272,0);
},
{
name = top;
pos = (272,470);
}
);
layerId = "C3F6A16D-5E1F-403C-905F-9502D4908E23";
shapes = (
{
closed = 1;
nodes = (
(415,-212,o),
(504,-151,o),
(504,-36,cs),
(504,54,o),
(450,108,o),
(324,108,cs),
(213,108,ls),
(160,108,o),
(147,122,o),
(147,136,cs),
(147,160,o),
(187,172,o),
(221,181,c),
(212,204,l),
(133,188,o),
(70,144,o),
(70,79,cs),
(70,23,o),
(116,-19,o),
(153,-19,cs),
(272,-19,ls),
(368,-19,o),
(417,-37,o),
(417,-92,cs),
(417,-155,o),
(352,-185,o),
(257,-185,cs),
(153,-185,o),
(116,-149,o),
(116,-95,cs),
(116,-42,o),
(152,8,o),
(246,16,c),
(163,23,l),
(64,1,o),
(15,-46,o),
(15,-104,cs),
(15,-179,o),
(100,-212,o),
(233,-212,cs)
);
},
{
closed = 1;
nodes = (
(374,166,o),
(469,217,o),
(469,321,cs),
(469,424,o),
(376,482,o),
(249,482,cs),
(125,482,o),
(35,426,o),
(35,321,cs),
(35,219,o),
(120,166,o),
(248,166,cs)
);
},
{
closed = 1;
nodes = (
(212,193,o),
(195,219,o),
(195,321,cs),
(195,428,o),
(214,455,o),
(252,455,cs),
(290,455,o),
(309,429,o),
(309,327,cs),
(309,220,o),
(288,193,o),
(250,193,cs)
);
},
{
closed = 1;
nodes = (
(550,386,o),
(563,405,o),
(563,429,cs),
(563,459,o),
(543,482,o),
(495,482,cs),
(460,482,o),
(425,470,o),
(405,435,c),
(424,408,l),
(439,432,o),
(456,443,o),
(471,443,cs),
(479,443,o),
(485,440,o),
(485,434,cs),
(485,430,o),
(482,423,o),
(482,414,cs),
(482,395,o),
(497,386,o),
(519,386,cs)
);
}
);
width = 573;
},
{
anchors = (
{
name = bottom;
pos = (261,0);
},
{
name = top;
pos = (246,468);
}
);
layerId = "4CDCBC45-D394-4652-82F8-278E2907A602";
shapes = (
{
closed = 1;
nodes = (
(366,-212,o),
(473,-166,o),
(473,-51,cs),
(473,31,o),
(419,76,o),
(292,76,cs),
(219,76,ls),
(148,76,o),
(129,98,o),
(129,118,cs),
(129,161,o),
(207,189,o),
(224,193,c),
(188,204,l),
(103,173,o),
(58,132,o),
(58,87,cs),
(58,43,o),
(102,3,o),
(171,3,cs),
(270,3,ls),
(364,3,o),
(397,-21,o),
(397,-72,cs),
(397,-142,o),
(336,-180,o),
(253,-180,cs),
(169,-180,o),
(116,-142,o),
(116,-80,cs),
(116,-46,o),
(133,0,o),
(212,12,c),
(147,19,l),
(65,-5,o),
(36,-39,o),
(36,-88,cs),
(36,-175,o),
(127,-212,o),
(240,-212,cs)
);
},
{
closed = 1;
nodes = (
(338,167,o),
(433,207,o),
(433,322,cs),
(433,434,o),
(343,479,o),
(246,479,cs),
(154,479,o),
(55,436,o),
(55,321,cs),
(55,207,o),
(151,167,o),
(244,167,cs)
);
},
{
closed = 1;
nodes = (
(168,199,o),
(147,250,o),
(147,320,cs),
(147,397,o),
(172,446,o),
(247,446,cs),
(322,446,o),
(345,397,o),
(345,327,cs),
(345,246,o),
(319,199,o),
(242,199,cs)
);
},
{
closed = 1;
nodes = (
(530,368,o),
(545,387,o),
(545,415,cs),
(545,453,o),
(516,479,o),
(472,479,cs),
(433,479,o),
(400,455,o),
(377,415,c),
(397,396,l),
(417,430,o),
(436,443,o),
(448,443,cs),
(461,443,o),
(468,435,o),
(468,427,cs),
(468,420,o),
(464,415,o),
(464,402,cs),
(464,384,o),
(480,368,o),
(504,368,cs)
);
}
);
width = 566.25;
}
);
note = g;
unicode = 103;
},
{
glyphname = h;
kernLeft = h;
kernRight = h;
lastChange = "2022-11-03 08:56:38 +0000";
layers = (
{
anchors = (
{
name = bottom;
pos = (277,0);
},
{
name = center;
pos = (277,234);
},
{
name = top;
pos = (277,467);
}
);
layerId = "A270BFC0-E682-4EED-9FF7-BE35A5492496";
shapes = (
{
closed = 1;
nodes = (
(528,0,l),
(528,27,l),
(460,27,o),
(457,33,o),
(457,83,cs),
(457,336,ls),
(457,434,o),
(416,479,o),
(321,479,cs),
(238,479,o),
(196,445,o),
(156,381,c),
(156,338,l),
(191,394,o),
(225,441,o),
(294,441,cs),
(370,441,o),
(391,384,o),
(391,327,cs),
(391,83,ls),
(391,33,o),
(387,27,o),
(320,27,c),
(320,0,l)
);
},
{
closed = 1;
nodes = (
(238,0,l),
(238,27,l),
(171,27,o),
(167,33,o),
(167,83,cs),
(167,693,l),
(140,693,l),
(34,675,l),
(34,648,l),
(71,648,ls),
(95,648,o),
(101,640,o),
(101,606,cs),
(101,83,ls),
(101,33,o),
(98,27,o),
(30,27,c),
(30,0,l)
);
},
{
closed = 1;
nodes = (
(172,390,l),
(172,400,l),
(164,400,l),
(164,390,l)
);
}
);
width = 563;
},
{
anchors = (
{
name = bottom;
pos = (304,0);
},
{
name = center;
pos = (304,235);
},
{
name = top;
pos = (304,470);
}
);
layerId = "705D5379-5CC9-457D-BF30-EC6EB9252852";
shapes = (
{
closed = 1;
nodes = (
(576,0,l),
(576,33,l),
(518,33,o),
(510,43,o),
(510,83,cs),
(510,333,ls),
(510,427,o),
(459,480,o),
(376,480,cs),
(315,480,o),
(252,452,o),
(201,407,c),
(201,357,l),
(229,397,o),
(266,415,o),
(307,415,cs),
(365,415,o),
(395,381,o),
(395,318,cs),
(395,78,ls),
(395,43,o),
(389,33,o),
(337,33,c),
(337,0,l)
);
},
{
closed = 1;
nodes = (
(261,0,l),
(261,33,l),
(210,33,o),
(205,43,o),
(205,78,cs),
(205,690,l),
(176,690,l),
(31,667,l),
(31,633,l),
(61,633,ls),
(83,633,o),
(89,623,o),
(89,587,cs),
(89,83,ls),
(89,43,o),
(84,33,o),
(25,33,c),
(25,0,l)
);
},
{
closed = 1;
nodes = (
(210,401,l),
(210,411,l),
(202,411,l),
(202,401,l)
);
}
);
width = 606;
},
{
anchors = (
{
name = bottom;
pos = (315,0);
},
{
name = center;
pos = (315,235);
},
{
name = top;
pos = (315,470);
}
);
layerId = "C3F6A16D-5E1F-403C-905F-9502D4908E23";
shapes = (
{
closed = 1;
nodes = (
(609,0,l),
(609,33,l),
(558,33,o),
(551,41,o),
(551,83,cs),
(551,318,ls),
(551,436,o),
(492,482,o),
(400,482,cs),
(300,482,o),
(253,427,o),
(226,392,c),
(232,364,l),
(273,405,o),
(293,423,o),
(327,423,cs),
(368,423,o),
(392,398,o),
(392,318,cs),
(392,78,ls),
(392,41,o),
(387,33,o),
(344,33,c),
(344,0,l)
);
},
{
closed = 1;
nodes = (
(298,0,l),
(298,33,l),
(252,33,o),
(244,41,o),
(244,83,cs),
(244,690,l),
(191,690,l),
(21,664,l),
(21,631,l),
(56,631,ls),
(80,631,o),
(85,624,o),
(85,598,cs),
(85,83,ls),
(85,39,o),
(77,33,o),
(21,33,c),
(21,0,l)
);
},
{
closed = 1;
nodes = (
(250,407,l),
(250,415,l),
(197,415,l),
(197,407,l)
);
}
);
width = 630;
},
{
anchors = (
{
name = bottom;
pos = (287,0);
},
{
name = center;
pos = (287,234);
},
{
name = top;
pos = (287,468);
}
);
layerId = "4CDCBC45-D394-4652-82F8-278E2907A602";
shapes = (
{
closed = 1;
nodes = (
(546,0,l),
(546,29,l),
(482,29,o),
(477,37,o),
(477,83,cs),
(477,335,ls),
(477,431,o),
(432,479,o),
(342,479,cs),
(267,479,o),
(217,448,o),
(173,391,c),
(173,345,l),
(205,395,o),
(240,431,o),
(299,431,cs),
(368,431,o),
(393,383,o),
(393,324,cs),
(393,81,ls),
(393,37,o),
(388,29,o),
(326,29,c),
(326,0,l)
);
},
{
closed = 1;
nodes = (
(247,0,l),
(247,29,l),
(186,29,o),
(181,37,o),
(181,81,cs),
(181,692,l),
(154,692,l),
(33,672,l),
(33,642,l),
(67,642,ls),
(91,642,o),
(97,634,o),
(97,599,cs),
(97,83,ls),
(97,37,o),
(93,29,o),
(28,29,c),
(28,0,l)
);
},
{
closed = 1;
nodes = (
(186,394,l),
(186,404,l),
(178,404,l),
(178,394,l)
);
}
);
width = 579.125;
}
);
note = n;
unicode = 104;
},
{
glyphname = hbar;
lastChange = "2022-11-03 08:56:38 +0000";
layers = (
{
layerId = "A270BFC0-E682-4EED-9FF7-BE35A5492496";
shapes = (
{
ref = h;
},
{
closed = 1;
nodes = (
(303,541,l),
(303,571,l),
(18,571,l),
(18,541,l)
);
}
);
width = 563;
},
{
layerId = "705D5379-5CC9-457D-BF30-EC6EB9252852";
shapes = (
{
ref = h;
},
{
closed = 1;
nodes = (
(339,527,l),
(339,578,l),
(20,578,l),
(20,527,l)
);
}
);
width = 606;
},
{
layerId = "C3F6A16D-5E1F-403C-905F-9502D4908E23";
shapes = (
{
ref = h;
},
{
closed = 1;
nodes = (
(409,522,l),
(409,582,l),
(10,582,l),
(10,522,l)
);
}
);
width = 630;
},
{
layerId = "4CDCBC45-D394-4652-82F8-278E2907A602";
shapes = (
{
alignment = -1;
ref = h;
},
{
closed = 1;
nodes = (
(317,536,l),
(317,574,l),
(19,574,l),
(19,536,l)
);
}
);
width = 579.125;
}
);
unicode = 295;
},
{
glyphname = i;
kernLeft = i;
kernRight = i;
lastChange = "2022-11-03 08:56:38 +0000";
layers = (
{
anchors = (
{
name = bottom;
pos = (137,0);
}
);
layerId = "A270BFC0-E682-4EED-9FF7-BE35A5492496";
shapes = (
{
closed = 1;
nodes = (
(246,0,l),
(246,27,l),
(179,27,o),
(175,33,o),
(175,83,cs),
(175,473,l),
(148,473,l),
(42,455,l),
(42,428,l),
(79,428,ls),
(103,428,o),
(109,420,o),
(109,386,cs),
(109,83,ls),
(109,33,o),
(106,27,o),
(38,27,c),
(38,0,l)
);
},
{
closed = 1;
nodes = (
(169,574,o),
(188,595,o),
(189,622,cs),
(189,651,o),
(169,672,o),
(140,672,cs),
(111,672,o),
(91,651,o),
(91,622,cs),
(91,595,o),
(111,574,o),
(140,574,cs)
);
}
);
width = 290;
},
{
anchors = (
{
name = bottom;
pos = (144,0);
}
);
layerId = "705D5379-5CC9-457D-BF30-EC6EB9252852";
shapes = (
{
closed = 1;
nodes = (
(274,0,l),
(274,33,l),
(216,33,o),
(210,42,o),
(210,83,cs),
(210,475,l),
(182,475,l),
(35,452,l),
(35,418,l),
(65,418,ls),
(88,418,o),
(93,409,o),
(93,372,cs),
(93,83,ls),
(93,44,o),
(88,33,o),
(29,33,c),
(29,0,l)
);
},
{
closed = 1;
nodes = (
(186,542,o),
(214,570,o),
(214,607,cs),
(214,644,o),
(189,673,o),
(148,673,cs),
(109,673,o),
(83,644,o),
(83,607,cs),
(83,570,o),
(109,542,o),
(148,542,cs)
);
}
);
width = 305;
},
{
anchors = (
{
name = bottom;
pos = (160,0);
}
);
layerId = "C3F6A16D-5E1F-403C-905F-9502D4908E23";
shapes = (
{
closed = 1;
nodes = (
(298,0,l),
(298,33,l),
(252,33,o),
(244,41,o),
(244,83,cs),
(244,475,l),
(189,475,l),
(21,449,l),
(21,416,l),
(56,416,ls),
(80,416,o),
(85,409,o),
(85,383,cs),
(85,83,ls),
(85,39,o),
(77,33,o),
(21,33,c),
(21,0,l)
);
},
{
closed = 1;
nodes = (
(208,523,o),
(253,563,o),
(253,612,cs),
(253,661,o),
(207,701,o),
(160,701,cs),
(112,701,o),
(66,661,o),
(66,612,cs),
(66,562,o),
(112,523,o),
(160,523,cs)
);
}
);
width = 319;
},
{
anchors = (
{
name = bottom;
pos = (140,0);
}
);
layerId = "4CDCBC45-D394-4652-82F8-278E2907A602";
shapes = (
{
closed = 1;
nodes = (
(257,0,l),
(257,29,l),
(193,29,o),
(188,36,o),
(188,83,cs),
(188,474,l),
(161,474,l),
(39,454,l),
(39,424,l),
(74,424,ls),
(97,424,o),
(103,416,o),
(103,381,cs),
(103,83,ls),
(103,37,o),
(99,29,o),
(35,29,c),
(35,0,l)
);
},
{
closed = 1;
nodes = (
(175,562,o),
(198,586,o),
(198,616,cs),
(198,648,o),
(177,672,o),
(143,672,cs),
(110,672,o),
(88,648,o),
(88,616,cs),
(88,586,o),
(110,562,o),
(143,562,cs)
);
}
);
width = 295.625;
}
);
note = i;
unicode = 105;
},
{
glyphname = idotless;
lastChange = "2022-11-03 08:56:38 +0000";
layers = (
{
anchors = (
{
name = bottom;
pos = (126,0);
},
{
name = ogonek;
pos = (226,10);
},
{
name = top;
pos = (126,467);
}
);
layerId = "A270BFC0-E682-4EED-9FF7-BE35A5492496";
shapes = (
{
closed = 1;
nodes = (
(235,0,l),
(235,27,l),
(168,27,o),
(164,33,o),
(164,83,cs),
(164,473,l),
(141,473,l),
(31,455,l),
(31,428,l),
(68,428,ls),
(92,428,o),
(98,420,o),
(98,386,cs),
(98,83,ls),
(98,33,o),
(95,27,o),
(27,27,c),
(27,0,l)
);
}
);
width = 251;
},
{
anchors = (
{
name = bottom;
pos = (145,0);
},
{
name = ogonek;
pos = (260,10);
},
{
name = top;
pos = (145,470);
}
);
layerId = "705D5379-5CC9-457D-BF30-EC6EB9252852";
shapes = (
{
closed = 1;
nodes = (
(275,0,l),
(275,33,l),
(217,33,o),
(211,42,o),
(211,83,cs),
(211,475,l),
(182,475,l),
(36,452,l),
(36,418,l),
(66,418,ls),
(89,418,o),
(94,409,o),
(94,372,cs),
(94,83,ls),
(94,44,o),
(89,33,o),
(30,33,c),
(30,0,l)
);
}
);
width = 289;
},
{
anchors = (
{
name = bottom;
pos = (155,0);
},
{
name = ogonek;
pos = (278,10);
},
{
name = top;
pos = (155,470);
}
);
layerId = "C3F6A16D-5E1F-403C-905F-9502D4908E23";
shapes = (
{
closed = 1;
nodes = (
(293,0,l),
(293,33,l),
(247,33,o),
(239,41,o),
(239,83,cs),
(239,475,l),
(184,475,l),
(16,449,l),
(16,416,l),
(51,416,ls),
(75,416,o),
(80,409,o),
(80,383,cs),
(80,83,ls),
(80,39,o),
(72,33,o),
(16,33,c),
(16,0,l)
);
}
);
width = 309;
},
{
anchors = (
{
name = bottom;
pos = (133,0);
},
{
name = ogonek;
pos = (239,10);
},
{
name = top;
pos = (133,468);
}
);
layerId = "4CDCBC45-D394-4652-82F8-278E2907A602";
shapes = (
{
closed = 1;
nodes = (
(250,0,l),
(250,29,l),
(186,29,o),
(182,36,o),
(182,83,cs),
(182,474,l),
(156,474,l),
(33,454,l),
(33,424,l),
(67,424,ls),
(91,424,o),
(97,416,o),
(97,381,cs),
(97,83,ls),
(97,37,o),
(93,29,o),
(28,29,c),
(28,0,l)
);
}
);
width = 265.25;
}
);
note = dotlessi;
unicode = 305;
},
{
glyphname = j;
lastChange = "2022-11-03 08:56:38 +0000";
layers = (
{
layerId = "A270BFC0-E682-4EED-9FF7-BE35A5492496";
shapes = (
{
closed = 1;
nodes = (
(129,-212,o),
(144,-129,o),
(144,-27,cs),
(144,473,l),
(121,473,l),
(11,455,l),
(11,428,l),
(48,428,ls),
(72,428,o),
(78,420,o),
(78,386,cs),
(78,-115,ls),
(78,-160,o),
(65,-185,o),
(36,-185,cs),
(22,-185,o),
(9,-179,o),
(9,-166,cs),
(9,-152,o),
(22,-148,o),
(22,-127,cs),
(22,-101,o),
(2,-85,o),
(-21,-85,cs),
(-44,-85,o),
(-66,-102,o),
(-66,-136,cs),
(-66,-180,o),
(-28,-212,o),
(32,-212,cs)
);
},
{
closed = 1;
nodes = (
(138,574,o),
(158,596,o),
(158,623,cs),
(158,650,o),
(138,672,o),
(109,672,cs),
(80,672,o),
(60,651,o),
(60,623,cs),
(60,595,o),
(80,574,o),
(109,574,cs)
);
}
);
width = 243;
},
{
layerId = "705D5379-5CC9-457D-BF30-EC6EB9252852";
shapes = (
{
closed = 1;
nodes = (
(128,-212,o),
(173,-104,o),
(173,50,cs),
(173,475,l),
(144,475,l),
(-2,452,l),
(-2,418,l),
(28,418,ls),
(51,418,o),
(56,409,o),
(56,372,cs),
(56,-96,ls),
(56,-156,o),
(49,-175,o),
(26,-175,cs),
(19,-175,o),
(7,-173,o),
(7,-160,cs),
(7,-153,o),
(10,-150,o),
(10,-142,cs),
(8,-111,o),
(-16,-101,o),
(-35,-101,cs),
(-63,-101,o),
(-83,-122,o),
(-83,-154,cs),
(-83,-187,o),
(-61,-212,o),
(0,-212,cs)
);
},
{
closed = 1;
nodes = (
(149,540,o),
(177,568,o),
(177,606,cs),
(177,642,o),
(151,671,o),
(112,671,cs),
(72,671,o),
(46,642,o),
(46,605,cs),
(46,568,o),
(72,540,o),
(111,540,cs)
);
}
);
width = 234;
},
{
layerId = "C3F6A16D-5E1F-403C-905F-9502D4908E23";
shapes = (
{
closed = 1;
nodes = (
(151,-212,o),
(216,-127,o),
(216,2,cs),
(216,475,l),
(161,475,l),
(-7,449,l),
(-7,416,l),
(28,416,ls),
(52,416,o),
(57,409,o),
(57,383,cs),
(57,-60,ls),
(57,-167,o),
(56,-185,o),
(20,-185,cs),
(9,-185,o),
(-8,-177,o),
(-8,-164,cs),
(-8,-138,o),
(21,-134,o),
(21,-94,cs),
(21,-53,o),
(-13,-34,o),
(-50,-34,cs),
(-89,-34,o),
(-118,-68,o),
(-118,-105,cs),
(-118,-182,o),
(-30,-212,o),
(33,-212,cs)
);
},
{
closed = 1;
nodes = (
(180,523,o),
(225,563,o),
(225,612,cs),
(225,661,o),
(179,701,o),
(132,701,cs),
(84,701,o),
(38,661,o),
(38,612,cs),
(38,562,o),
(84,523,o),
(132,523,cs)
);
}
);
width = 287;
},
{
layerId = "4CDCBC45-D394-4652-82F8-278E2907A602";
shapes = (
{
closed = 1;
nodes = (
(129,-212,o),
(155,-120,o),
(155,2,cs),
(155,474,l),
(130,474,l),
(6,454,l),
(6,424,l),
(41,424,ls),
(64,424,o),
(70,416,o),
(70,381,cs),
(70,-108,ls),
(70,-158,o),
(59,-181,o),
(32,-181,cs),
(21,-181,o),
(8,-177,o),
(8,-164,cs),
(8,-152,o),
(18,-149,o),
(18,-133,cs),
(17,-105,o),
(-5,-91,o),
(-26,-91,cs),
(-51,-91,o),
(-72,-109,o),
(-72,-143,cs),
(-72,-183,o),
(-40,-212,o),
(20,-212,cs)
);
},
{
closed = 1;
nodes = (
(142,561,o),
(165,586,o),
(165,617,cs),
(165,647,o),
(143,672,o),
(110,672,cs),
(77,672,o),
(55,648,o),
(55,616,cs),
(55,585,o),
(77,561,o),
(110,561,cs)
);
}
);
width = 239.625;
}
);
note = j;
unicode = 106;
},
{
glyphname = jdotless;
lastChange = "2022-11-03 08:56:38 +0000";
layers = (
{
anchors = (
{
name = bottom;
pos = (115,-334);
},
{
name = top;
pos = (115,467);
}
);
layerId = "A270BFC0-E682-4EED-9FF7-BE35A5492496";
shapes = (
{
closed = 1;
nodes = (
(129,-212,o),
(144,-129,o),
(144,-27,cs),
(144,473,l),
(121,473,l),
(11,455,l),
(11,428,l),
(48,428,ls),
(72,428,o),
(78,420,o),
(78,386,cs),
(78,-115,ls),
(78,-160,o),
(65,-185,o),
(36,-185,cs),
(22,-185,o),
(9,-179,o),
(9,-166,cs),
(9,-152,o),
(22,-148,o),
(22,-127,cs),
(22,-101,o),
(2,-85,o),
(-21,-85,cs),
(-44,-85,o),
(-66,-102,o),
(-66,-136,cs),
(-66,-180,o),
(-28,-212,o),
(32,-212,cs)
);
}
);
width = 229;
},
{
anchors = (
{
name = bottom;
pos = (115,-334);
},
{
name = top;
pos = (115,470);
}
);
layerId = "705D5379-5CC9-457D-BF30-EC6EB9252852";
shapes = (
{
closed = 1;
nodes = (
(128,-212,o),
(173,-104,o),
(173,50,cs),
(173,475,l),
(144,475,l),
(-2,452,l),
(-2,418,l),
(28,418,ls),
(51,418,o),
(56,409,o),
(56,372,cs),
(56,-96,ls),
(56,-156,o),
(49,-175,o),
(26,-175,cs),
(19,-175,o),
(7,-173,o),
(7,-160,cs),
(7,-153,o),
(10,-150,o),
(10,-142,cs),
(8,-111,o),
(-16,-101,o),
(-35,-101,cs),
(-63,-101,o),
(-83,-122,o),
(-83,-154,cs),
(-83,-187,o),
(-61,-212,o),
(0,-212,cs)
);
}
);
width = 230;
},
{
anchors = (
{
name = bottom;
pos = (139,-334);
},
{
name = top;
pos = (139,470);
}
);
layerId = "C3F6A16D-5E1F-403C-905F-9502D4908E23";
shapes = (
{
closed = 1;
nodes = (
(151,-212,o),
(216,-127,o),
(216,2,cs),
(216,475,l),
(161,475,l),
(-7,449,l),
(-7,416,l),
(28,416,ls),
(52,416,o),
(57,409,o),
(57,383,cs),
(57,-60,ls),
(57,-167,o),
(56,-185,o),
(20,-185,cs),
(9,-185,o),
(-8,-177,o),
(-8,-164,cs),
(-8,-138,o),
(21,-134,o),
(21,-94,cs),
(21,-53,o),
(-13,-34,o),
(-50,-34,cs),
(-89,-34,o),
(-118,-68,o),
(-118,-105,cs),
(-118,-182,o),
(-30,-212,o),
(33,-212,cs)
);
}
);
width = 278;
},
{
anchors = (
{
name = bottom;
pos = (115,-334);
},
{
name = top;
pos = (115,468);
}
);
layerId = "4CDCBC45-D394-4652-82F8-278E2907A602";
shapes = (
{
closed = 1;
nodes = (
(129,-212,o),
(155,-120,o),
(155,2,cs),
(155,474,l),
(130,474,l),
(6,454,l),
(6,424,l),
(41,424,ls),
(64,424,o),
(70,416,o),
(70,381,cs),
(70,-108,ls),
(70,-158,o),
(59,-181,o),
(32,-181,cs),
(21,-181,o),
(8,-177,o),
(8,-164,cs),
(8,-152,o),
(18,-149,o),
(18,-133,cs),
(17,-105,o),
(-5,-91,o),
(-26,-91,cs),
(-51,-91,o),
(-72,-109,o),
(-72,-143,cs),
(-72,-183,o),
(-40,-212,o),
(20,-212,cs)
);
}
);
width = 229.375;
}
);
unicode = 567;
},
{
glyphname = k;
kernLeft = h;
kernRight = k;
lastChange = "2022-11-03 08:56:38 +0000";
layers = (
{
anchors = (
{
name = bottom;
pos = (264,0);
},
{
name = top;
pos = (264,467);
}
);
layerId = "A270BFC0-E682-4EED-9FF7-BE35A5492496";
shapes = (
{
closed = 1;
nodes = (
(247,0,l),
(247,27,l),
(180,27,o),
(176,33,o),
(176,83,cs),
(176,693,l),
(149,693,l),
(43,675,l),
(43,648,l),
(80,648,ls),
(104,648,o),
(110,640,o),
(110,606,cs),
(110,83,ls),
(110,33,o),
(107,27,o),
(39,27,c),
(39,0,l)
);
},
{
closed = 1;
nodes = (
(499,0,l),
(499,27,l),
(489,27,ls),
(465,27,o),
(448,39,o),
(397,107,cs),
(253,297,l),
(213,245,l),
(341,74,ls),
(352,58,o),
(361,45,o),
(361,38,cs),
(361,31,o),
(352,27,o),
(336,27,cs),
(316,27,l),
(316,0,l)
);
},
{
closed = 1;
nodes = (
(339,364,ls),
(379,404,o),
(408,440,o),
(465,440,cs),
(480,440,l),
(480,467,l),
(322,467,l),
(322,440,l),
(338,440,ls),
(363,440,o),
(365,423,o),
(337,396,cs),
(155,215,l),
(155,175,l)
);
}
);
width = 502;
},
{
anchors = (
{
name = bottom;
pos = (271,0);
},
{
name = top;
pos = (271,470);
}
);
layerId = "705D5379-5CC9-457D-BF30-EC6EB9252852";
shapes = (
{
closed = 1;
nodes = (
(270,0,l),
(270,33,l),
(214,33,o),
(206,43,o),
(206,83,cs),
(206,690,l),
(178,690,l),
(31,667,l),
(31,633,l),
(61,633,ls),
(84,633,o),
(90,623,o),
(90,586,cs),
(90,83,ls),
(90,44,o),
(85,33,o),
(25,33,c),
(25,0,l)
);
},
{
closed = 1;
nodes = (
(545,0,l),
(545,33,l),
(535,33,ls),
(510,33,o),
(488,53,o),
(443,115,cs),
(292,322,l),
(225,239,l),
(341,78,ls),
(352,63,o),
(361,51,o),
(361,44,cs),
(361,37,o),
(352,33,o),
(341,33,cs),
(332,33,l),
(332,0,l)
);
},
{
closed = 1;
nodes = (
(354,354,ls),
(403,412,o),
(449,437,o),
(506,437,cs),
(520,437,l),
(520,470,l),
(297,470,l),
(297,437,l),
(320,437,ls),
(344,437,o),
(347,416,o),
(308,364,cs),
(146,150,l),
(146,110,l)
);
}
);
width = 545;
},
{
anchors = (
{
name = bottom;
pos = (306,0);
},
{
name = top;
pos = (306,470);
}
);
layerId = "C3F6A16D-5E1F-403C-905F-9502D4908E23";
shapes = (
{
closed = 1;
nodes = (
(291,0,l),
(291,33,l),
(245,33,o),
(244,41,o),
(244,83,cs),
(244,690,l),
(191,690,l),
(21,664,l),
(21,631,l),
(56,631,ls),
(80,631,o),
(85,624,o),
(85,598,cs),
(85,83,ls),
(85,39,o),
(77,33,o),
(21,33,c),
(21,0,l)
);
},
{
closed = 1;
nodes = (
(605,0,l),
(605,33,l),
(595,33,ls),
(573,33,o),
(545,64,o),
(501,127,cs),
(351,341,l),
(245,238,l),
(341,83,ls),
(352,65,o),
(363,50,o),
(363,43,cs),
(363,36,o),
(359,33,o),
(346,33,cs),
(328,33,l),
(328,0,l)
);
},
{
closed = 1;
nodes = (
(392,341,ls),
(453,394,o),
(493,437,o),
(552,437,cs),
(556,437,l),
(556,470,l),
(361,471,l),
(361,438,l),
(387,438,ls),
(416,438,o),
(421,414,o),
(372,370,cs),
(135,161,l),
(135,115,l)
);
}
);
width = 606;
},
{
anchors = (
{
name = bottom;
pos = (267,0);
},
{
name = top;
pos = (267,468);
}
);
layerId = "4CDCBC45-D394-4652-82F8-278E2907A602";
shapes = (
{
closed = 1;
nodes = (
(256,0,l),
(256,29,l),
(193,29,o),
(187,37,o),
(187,83,cs),
(187,692,l),
(160,692,l),
(39,672,l),
(39,642,l),
(73,642,ls),
(97,642,o),
(103,634,o),
(103,599,cs),
(103,83,ls),
(103,37,o),
(99,29,o),
(34,29,c),
(34,0,l)
);
},
{
closed = 1;
nodes = (
(516,0,l),
(516,29,l),
(506,29,ls),
(482,29,o),
(463,44,o),
(414,110,cs),
(268,306,l),
(218,243,l),
(341,76,ls),
(352,60,o),
(361,47,o),
(361,40,cs),
(361,33,o),
(352,29,o),
(338,29,cs),
(322,29,l),
(322,0,l)
);
},
{
closed = 1;
nodes = (
(345,360,ls),
(388,407,o),
(423,439,o),
(480,439,cs),
(495,439,l),
(495,468,l),
(313,468,l),
(313,439,l),
(331,439,ls),
(356,439,o),
(358,420,o),
(326,384,cs),
(152,191,l),
(152,151,l)
);
}
);
width = 518.125;
}
);
note = k;
unicode = 107;
},
{
glyphname = l;
kernLeft = h;
kernRight = l;
lastChange = "2022-11-03 08:56:38 +0000";
layers = (
{
anchors = (
{
name = bottom;
pos = (132,0);
},
{
name = center;
pos = (132,234);
},
{
name = top;
pos = (132,633);
},
{
name = topright;
pos = (256,503);
}
);
layerId = "A270BFC0-E682-4EED-9FF7-BE35A5492496";
shapes = (
{
closed = 1;
nodes = (
(241,0,l),
(241,27,l),
(174,27,o),
(170,33,o),
(170,83,cs),
(170,693,l),
(143,693,l),
(37,675,l),
(37,648,l),
(74,648,ls),
(98,648,o),
(104,640,o),
(104,606,cs),
(104,83,ls),
(104,33,o),
(101,27,o),
(33,27,c),
(33,0,l)
);
}
);
width = 273;
},
{
anchors = (
{
name = bottom;
pos = (145,0);
},
{
name = center;
pos = (145,235);
},
{
name = top;
pos = (145,660);
},
{
name = topright;
pos = (301,531);
}
);
layerId = "705D5379-5CC9-457D-BF30-EC6EB9252852";
shapes = (
{
closed = 1;
nodes = (
(270,0,l),
(270,33,l),
(214,33,o),
(206,43,o),
(206,83,cs),
(206,690,l),
(178,690,l),
(31,667,l),
(31,633,l),
(61,633,ls),
(84,633,o),
(90,623,o),
(90,586,cs),
(90,83,ls),
(90,44,o),
(85,33,o),
(25,33,c),
(25,0,l)
);
}
);
width = 295;
},
{
anchors = (
{
name = bottom;
pos = (160,0);
},
{
name = center;
pos = (160,235);
},
{
name = top;
pos = (160,660);
},
{
name = topright;
pos = (344,470);
}
);
layerId = "C3F6A16D-5E1F-403C-905F-9502D4908E23";
shapes = (
{
closed = 1;
nodes = (
(298,0,l),
(298,33,l),
(252,33,o),
(244,41,o),
(244,83,cs),
(244,690,l),
(191,690,l),
(21,664,l),
(21,631,l),
(56,631,ls),
(80,631,o),
(85,624,o),
(85,598,cs),
(85,83,ls),
(85,39,o),
(77,33,o),
(21,33,c),
(21,0,l)
);
}
);
width = 321;
},
{
anchors = (
{
name = bottom;
pos = (137,0);
},
{
name = center;
pos = (137,234);
},
{
name = top;
pos = (137,643);
},
{
name = topright;
pos = (273,514);
}
);
layerId = "4CDCBC45-D394-4652-82F8-278E2907A602";
shapes = (
{
closed = 1;
nodes = (
(252,0,l),
(252,29,l),
(189,29,o),
(184,37,o),
(184,83,cs),
(184,692,l),
(156,692,l),
(35,672,l),
(35,642,l),
(69,642,ls),
(93,642,o),
(99,634,o),
(99,599,cs),
(99,83,ls),
(99,37,o),
(95,29,o),
(30,29,c),
(30,0,l)
);
}
);
width = 281.25;
}
);
note = l;
unicode = 108;
},
{
glyphname = lslash;
kernLeft = h;
kernRight = l;
lastChange = "2022-11-03 08:56:38 +0000";
layers = (
{
layerId = "A270BFC0-E682-4EED-9FF7-BE35A5492496";
shapes = (
{
closed = 1;
nodes = (
(280,446,l),
(280,488,l),
(31,316,l),
(31,274,l)
);
},
{
pos = (11,0);
ref = l;
}
);
width = 312;
},
{
layerId = "705D5379-5CC9-457D-BF30-EC6EB9252852";
shapes = (
{
closed = 1;
nodes = (
(274,436,l),
(274,488,l),
(25,316,l),
(25,264,l)
);
},
{
pos = (5,0);
ref = l;
}
);
width = 300;
},
{
layerId = "C3F6A16D-5E1F-403C-905F-9502D4908E23";
shapes = (
{
closed = 1;
nodes = (
(296,436,l),
(296,498,l),
(19,326,l),
(19,264,l)
);
},
{
pos = (8,0);
ref = l;
}
);
width = 320;
},
{
layerId = "4CDCBC45-D394-4652-82F8-278E2907A602";
shapes = (
{
closed = 1;
nodes = (
(278,442,l),
(278,488,l),
(29,316,l),
(29,270,l)
);
},
{
alignment = -1;
pos = (9,0);
ref = l;
}
);
width = 307.5;
}
);
unicode = 322;
},
{
glyphname = m;
kernLeft = m;
kernRight = h;
lastChange = "2022-11-03 08:56:38 +0000";
layers = (
{
anchors = (
{
name = bottom;
pos = (412,0);
},
{
name = top;
pos = (412,467);
}
);
layerId = "A270BFC0-E682-4EED-9FF7-BE35A5492496";
shapes = (
{
closed = 1;
nodes = (
(791,0,l),
(791,27,l),
(723,27,o),
(720,33,o),
(720,83,cs),
(720,336,ls),
(720,436,o),
(684,479,o),
(598,479,cs),
(517,479,o),
(473,441,o),
(436,381,c),
(436,338,l),
(466,386,o),
(503,441,o),
(570,441,cs),
(637,441,o),
(654,387,o),
(654,327,cs),
(654,83,ls),
(654,33,o),
(651,27,o),
(583,27,c),
(583,0,l)
);
},
{
closed = 1;
nodes = (
(245,0,l),
(245,27,l),
(178,27,o),
(174,33,o),
(174,83,cs),
(174,395,l),
(171,395,l),
(171,473,l),
(144,473,l),
(41,455,l),
(41,428,l),
(78,428,ls),
(102,428,o),
(108,420,o),
(108,386,cs),
(108,83,ls),
(108,33,o),
(105,27,o),
(37,27,c),
(37,0,l)
);
},
{
closed = 1;
nodes = (
(518,0,l),
(518,27,l),
(450,27,o),
(447,33,o),
(447,83,cs),
(447,361,ls),
(447,439,o),
(407,479,o),
(325,479,cs),
(244,479,o),
(200,441,o),
(163,381,c),
(163,338,l),
(193,386,o),
(230,441,o),
(297,441,cs),
(364,441,o),
(381,387,o),
(381,327,cs),
(381,83,ls),
(381,33,o),
(378,27,o),
(310,27,c),
(310,0,l)
);
}
);
width = 825;
},
{
anchors = (
{
name = bottom;
pos = (448,0);
},
{
name = top;
pos = (448,500);
}
);
layerId = "705D5379-5CC9-457D-BF30-EC6EB9252852";
shapes = (
{
closed = 1;
nodes = (
(878,0,l),
(878,33,l),
(820,33,o),
(813,42,o),
(813,83,cs),
(813,333,ls),
(813,427,o),
(763,480,o),
(680,480,cs),
(615,480,o),
(545,448,o),
(504,401,c),
(504,348,l),
(536,393,o),
(568,415,o),
(612,415,cs),
(667,415,o),
(698,381,o),
(698,318,cs),
(698,78,ls),
(698,36,o),
(690,33,o),
(641,33,c),
(641,0,l)
);
},
{
closed = 1;
nodes = (
(271,0,l),
(271,33,l),
(227,33,o),
(215,34,o),
(215,78,cs),
(215,413,l),
(212,413,l),
(212,475,l),
(184,475,l),
(40,452,l),
(40,418,l),
(70,418,ls),
(92,418,o),
(98,408,o),
(98,372,cs),
(98,83,ls),
(98,43,o),
(93,33,o),
(34,33,c),
(34,0,l)
);
},
{
closed = 1;
nodes = (
(571,0,l),
(571,33,l),
(521,33,o),
(514,43,o),
(514,83,cs),
(514,369,ls),
(514,416,o),
(467,480,o),
(379,480,cs),
(324,480,o),
(259,455,o),
(205,407,c),
(205,357,l),
(233,397,o),
(270,415,o),
(311,415,cs),
(369,415,o),
(399,381,o),
(399,318,cs),
(399,78,ls),
(399,36,o),
(390,33,o),
(341,33,c),
(341,0,l)
);
}
);
width = 907;
},
{
anchors = (
{
name = bottom;
pos = (467,0);
},
{
name = top;
pos = (467,470);
}
);
layerId = "C3F6A16D-5E1F-403C-905F-9502D4908E23";
shapes = (
{
closed = 1;
nodes = (
(914,0,l),
(914,33,l),
(863,33,o),
(856,41,o),
(856,83,cs),
(856,318,ls),
(856,438,o),
(794,482,o),
(693,482,cs),
(594,482,o),
(541,439,o),
(516,354,c),
(549,343,l),
(558,390,o),
(583,423,o),
(628,423,cs),
(670,423,o),
(697,396,o),
(697,318,cs),
(697,78,ls),
(697,41,o),
(690,33,o),
(647,33,c),
(647,0,l)
);
},
{
closed = 1;
nodes = (
(296,0,l),
(296,33,l),
(250,33,o),
(242,41,o),
(242,83,cs),
(242,409,l),
(237,409,l),
(237,475,l),
(184,475,l),
(19,449,l),
(19,416,l),
(54,416,ls),
(78,416,o),
(83,409,o),
(83,383,cs),
(83,83,ls),
(83,39,o),
(75,33,o),
(19,33,c),
(19,0,l)
);
},
{
closed = 1;
nodes = (
(601,0,l),
(601,33,l),
(555,33,o),
(549,41,o),
(549,83,cs),
(549,350,ls),
(549,425,o),
(500,482,o),
(398,482,cs),
(301,482,o),
(255,431,o),
(224,392,c),
(230,364,l),
(271,405,o),
(291,423,o),
(325,423,cs),
(366,423,o),
(390,398,o),
(390,318,cs),
(390,78,ls),
(390,41,o),
(385,33,o),
(342,33,c),
(342,0,l)
);
}
);
width = 934;
},
{
anchors = (
{
name = bottom;
pos = (426,0);
},
{
name = top;
pos = (426,479);
}
);
layerId = "4CDCBC45-D394-4652-82F8-278E2907A602";
shapes = (
{
closed = 1;
nodes = (
(824,0,l),
(824,29,l),
(759,29,o),
(755,36,o),
(755,83,cs),
(755,335,ls),
(755,433,o),
(714,479,o),
(629,479,cs),
(554,479,o),
(500,444,o),
(462,389,c),
(462,342,l),
(492,389,o),
(527,431,o),
(586,431,cs),
(648,431,o),
(671,385,o),
(671,324,cs),
(671,81,ls),
(671,34,o),
(666,29,o),
(605,29,c),
(605,0,l)
);
},
{
closed = 1;
nodes = (
(255,0,l),
(255,29,l),
(196,29,o),
(189,33,o),
(189,81,cs),
(189,402,l),
(186,402,l),
(186,474,l),
(159,474,l),
(41,454,l),
(41,424,l),
(75,424,ls),
(98,424,o),
(104,416,o),
(104,381,cs),
(104,83,ls),
(104,37,o),
(101,29,o),
(36,29,c),
(36,0,l)
);
},
{
closed = 1;
nodes = (
(538,0,l),
(538,29,l),
(477,29,o),
(472,37,o),
(472,83,cs),
(472,364,ls),
(472,430,o),
(430,479,o),
(345,479,cs),
(274,479,o),
(222,446,o),
(179,391,c),
(179,345,l),
(208,390,o),
(245,431,o),
(302,431,cs),
(366,431,o),
(388,385,o),
(388,324,cs),
(388,81,ls),
(388,34,o),
(383,29,o),
(322,29,c),
(322,0,l)
);
}
);
width = 855.75;
}
);
note = m;
unicode = 109;
},
{
glyphname = n;
kernLeft = m;
kernRight = h;
lastChange = "2022-11-03 08:56:38 +0000";
layers = (
{
anchors = (
{
name = bottom;
pos = (284,0);
},
{
name = top;
pos = (284,467);
}
);
layerId = "A270BFC0-E682-4EED-9FF7-BE35A5492496";
shapes = (
{
closed = 1;
nodes = (
(535,0,l),
(535,27,l),
(467,27,o),
(464,33,o),
(464,83,cs),
(464,336,ls),
(464,434,o),
(423,479,o),
(328,479,cs),
(245,479,o),
(203,445,o),
(163,381,c),
(163,338,l),
(198,394,o),
(232,441,o),
(301,441,cs),
(377,441,o),
(398,384,o),
(398,327,cs),
(398,83,ls),
(398,33,o),
(394,27,o),
(327,27,c),
(327,0,l)
);
},
{
closed = 1;
nodes = (
(245,0,l),
(245,27,l),
(178,27,o),
(174,33,o),
(174,83,cs),
(174,395,l),
(171,395,l),
(171,473,l),
(144,473,l),
(41,455,l),
(41,428,l),
(78,428,ls),
(102,428,o),
(108,420,o),
(108,386,cs),
(108,83,ls),
(108,33,o),
(105,27,o),
(37,27,c),
(37,0,l)
);
}
);
width = 569;
},
{
anchors = (
{
name = bottom;
pos = (302,0);
},
{
name = top;
pos = (302,470);
}
);
layerId = "705D5379-5CC9-457D-BF30-EC6EB9252852";
shapes = (
{
closed = 1;
nodes = (
(586,0,l),
(586,33,l),
(528,33,o),
(520,43,o),
(520,83,cs),
(520,333,ls),
(520,427,o),
(469,480,o),
(386,480,cs),
(332,480,o),
(269,457,o),
(211,407,c),
(211,364,l),
(236,389,o),
(270,415,o),
(319,415,cs),
(374,415,o),
(405,381,o),
(405,318,cs),
(405,78,ls),
(405,36,o),
(396,33,o),
(347,33,c),
(347,0,l)
);
},
{
closed = 1;
nodes = (
(271,0,l),
(271,33,l),
(227,33,o),
(215,34,o),
(215,78,cs),
(215,409,l),
(212,409,l),
(212,475,l),
(184,475,l),
(40,452,l),
(40,418,l),
(70,418,ls),
(92,418,o),
(98,408,o),
(98,372,cs),
(98,83,ls),
(98,43,o),
(93,33,o),
(34,33,c),
(34,0,l)
);
}
);
width = 616;
},
{
anchors = (
{
name = bottom;
pos = (313,0);
},
{
name = top;
pos = (313,470);
}
);
layerId = "C3F6A16D-5E1F-403C-905F-9502D4908E23";
shapes = (
{
closed = 1;
nodes = (
(607,0,l),
(607,33,l),
(556,33,o),
(549,41,o),
(549,83,cs),
(549,318,ls),
(549,436,o),
(490,482,o),
(398,482,cs),
(298,482,o),
(252,427,o),
(224,392,c),
(230,364,l),
(271,405,o),
(291,423,o),
(325,423,cs),
(366,423,o),
(390,398,o),
(390,318,cs),
(390,78,ls),
(390,41,o),
(385,33,o),
(342,33,c),
(342,0,l)
);
},
{
closed = 1;
nodes = (
(296,0,l),
(296,33,l),
(250,33,o),
(242,41,o),
(242,83,cs),
(242,409,l),
(237,409,l),
(237,475,l),
(184,475,l),
(19,449,l),
(19,416,l),
(54,416,ls),
(78,416,o),
(83,409,o),
(83,383,cs),
(83,83,ls),
(83,39,o),
(75,33,o),
(19,33,c),
(19,0,l)
);
}
);
width = 628;
},
{
anchors = (
{
name = bottom;
pos = (291,0);
},
{
name = top;
pos = (291,468);
}
);
layerId = "4CDCBC45-D394-4652-82F8-278E2907A602";
shapes = (
{
closed = 1;
nodes = (
(554,0,l),
(554,29,l),
(490,29,o),
(485,37,o),
(485,83,cs),
(485,335,ls),
(485,431,o),
(440,479,o),
(350,479,cs),
(278,479,o),
(228,450,o),
(181,391,c),
(181,348,l),
(212,392,o),
(246,431,o),
(308,431,cs),
(376,431,o),
(401,383,o),
(401,324,cs),
(401,81,ls),
(401,34,o),
(395,29,o),
(335,29,c),
(335,0,l)
);
},
{
closed = 1;
nodes = (
(255,0,l),
(255,29,l),
(196,29,o),
(189,33,o),
(189,81,cs),
(189,400,l),
(186,400,l),
(186,474,l),
(159,474,l),
(41,454,l),
(41,424,l),
(75,424,ls),
(98,424,o),
(104,416,o),
(104,381,cs),
(104,83,ls),
(104,37,o),
(101,29,o),
(36,29,c),
(36,0,l)
);
}
);
width = 586.625;
}
);
note = n;
unicode = 110;
},
{
glyphname = eng;
lastChange = "2022-11-03 08:56:38 +0000";
layers = (
{
anchors = (
{
name = bottom;
pos = (282,0);
},
{
name = top;
pos = (282,467);
}
);
layerId = "A270BFC0-E682-4EED-9FF7-BE35A5492496";
shapes = (
{
closed = 1;
nodes = (
(449,-212,o),
(464,-129,o),
(464,-27,cs),
(464,336,ls),
(464,434,o),
(423,479,o),
(328,479,cs),
(245,479,o),
(203,445,o),
(163,381,c),
(163,338,l),
(198,394,o),
(232,441,o),
(301,441,cs),
(377,441,o),
(398,384,o),
(398,327,cs),
(398,-115,ls),
(398,-160,o),
(385,-185,o),
(356,-185,cs),
(342,-185,o),
(329,-179,o),
(329,-166,cs),
(329,-152,o),
(342,-148,o),
(342,-127,cs),
(342,-101,o),
(322,-85,o),
(299,-85,cs),
(276,-85,o),
(254,-102,o),
(254,-136,cs),
(254,-180,o),
(292,-212,o),
(352,-212,cs)
);
},
{
closed = 1;
nodes = (
(245,0,l),
(245,27,l),
(178,27,o),
(174,33,o),
(174,83,cs),
(174,395,l),
(171,395,l),
(171,473,l),
(144,473,l),
(41,455,l),
(41,428,l),
(78,428,ls),
(102,428,o),
(108,420,o),
(108,386,cs),
(108,83,ls),
(108,33,o),
(105,27,o),
(37,27,c),
(37,0,l)
);
}
);
width = 504;
},
{
anchors = (
{
name = bottom;
pos = (302,0);
},
{
name = top;
pos = (302,470);
}
);
layerId = "705D5379-5CC9-457D-BF30-EC6EB9252852";
shapes = (
{
closed = 1;
nodes = (
(475,-212,o),
(520,-104,o),
(520,50,cs),
(520,333,ls),
(520,427,o),
(469,480,o),
(386,480,cs),
(332,480,o),
(269,457,o),
(211,407,c),
(211,364,l),
(236,389,o),
(270,415,o),
(319,415,cs),
(374,415,o),
(405,381,o),
(405,318,cs),
(403,-96,ls),
(403,-156,o),
(396,-175,o),
(373,-175,cs),
(366,-175,o),
(354,-173,o),
(354,-160,cs),
(354,-153,o),
(357,-150,o),
(357,-142,cs),
(355,-111,o),
(331,-101,o),
(312,-101,cs),
(284,-101,o),
(264,-122,o),
(264,-154,cs),
(264,-187,o),
(286,-212,o),
(347,-212,cs)
);
},
{
closed = 1;
nodes = (
(271,0,l),
(271,33,l),
(227,33,o),
(215,34,o),
(215,78,cs),
(215,409,l),
(212,409,l),
(212,475,l),
(184,475,l),
(40,452,l),
(40,418,l),
(70,418,ls),
(92,418,o),
(98,408,o),
(98,372,cs),
(98,83,ls),
(98,43,o),
(93,33,o),
(34,33,c),
(34,0,l)
);
}
);
width = 558;
},
{
anchors = (
{
name = bottom;
pos = (314,0);
},
{
name = top;
pos = (314,470);
}
);
layerId = "C3F6A16D-5E1F-403C-905F-9502D4908E23";
shapes = (
{
closed = 1;
nodes = (
(484,-212,o),
(549,-127,o),
(549,2,cs),
(549,318,ls),
(549,436,o),
(490,482,o),
(398,482,cs),
(298,482,o),
(252,427,o),
(224,392,c),
(230,364,l),
(271,405,o),
(291,423,o),
(325,423,cs),
(366,423,o),
(390,398,o),
(390,318,cs),
(390,-60,ls),
(390,-167,o),
(389,-185,o),
(353,-185,cs),
(342,-185,o),
(325,-177,o),
(325,-164,cs),
(325,-138,o),
(354,-134,o),
(354,-94,cs),
(354,-53,o),
(320,-34,o),
(283,-34,cs),
(244,-34,o),
(215,-68,o),
(215,-105,cs),
(215,-182,o),
(303,-212,o),
(366,-212,cs)
);
},
{
closed = 1;
nodes = (
(296,0,l),
(296,33,l),
(250,33,o),
(242,41,o),
(242,83,cs),
(242,409,l),
(237,409,l),
(237,475,l),
(184,475,l),
(19,449,l),
(19,416,l),
(54,416,ls),
(78,416,o),
(83,409,o),
(83,383,cs),
(83,83,ls),
(83,39,o),
(75,33,o),
(19,33,c),
(19,0,l)
);
}
);
width = 573;
},
{
anchors = (
{
name = bottom;
pos = (294,0);
},
{
name = top;
pos = (294,468);
}
);
layerId = "4CDCBC45-D394-4652-82F8-278E2907A602";
shapes = (
{
closed = 1;
nodes = (
(459,-212,o),
(485,-120,o),
(485,2,cs),
(485,335,ls),
(485,431,o),
(440,479,o),
(350,479,cs),
(278,479,o),
(228,450,o),
(181,391,c),
(181,348,l),
(212,392,o),
(246,431,o),
(308,431,cs),
(376,431,o),
(401,383,o),
(401,324,cs),
(400,-108,ls),
(400,-158,o),
(389,-181,o),
(362,-181,cs),
(351,-181,o),
(338,-177,o),
(338,-164,cs),
(338,-152,o),
(348,-149,o),
(348,-133,cs),
(347,-105,o),
(325,-91,o),
(304,-91,cs),
(279,-91,o),
(258,-109,o),
(258,-143,cs),
(258,-183,o),
(290,-212,o),
(350,-212,cs)
);
},
{
closed = 1;
nodes = (
(255,0,l),
(255,29,l),
(196,29,o),
(189,33,o),
(189,81,cs),
(189,400,l),
(186,400,l),
(186,474,l),
(159,474,l),
(41,454,l),
(41,424,l),
(75,424,ls),
(98,424,o),
(104,416,o),
(104,381,cs),
(104,83,ls),
(104,37,o),
(101,29,o),
(36,29,c),
(36,0,l)
);
}
);
width = 525;
}
);
unicode = 331;
},
{
glyphname = o;
kernLeft = o;
kernRight = b;
lastChange = "2022-11-03 08:56:38 +0000";
layers = (
{
anchors = (
{
name = bottom;
pos = (258,0);
},
{
name = center;
pos = (258,234);
},
{
name = ogonek;
pos = (466,10);
},
{
name = top;
pos = (258,467);
},
{
name = topright;
pos = (498,467);
}
);
layerId = "A270BFC0-E682-4EED-9FF7-BE35A5492496";
shapes = (
{
closed = 1;
nodes = (
(399,-12,o),
(467,78,o),
(467,234,cs),
(467,388,o),
(399,479,o),
(258,479,cs),
(118,479,o),
(50,388,o),
(50,234,cs),
(50,78,o),
(118,-12,o),
(258,-12,cs)
);
},
{
closed = 1;
nodes = (
(168,15,o),
(125,97,o),
(125,234,cs),
(125,369,o),
(168,452,o),
(258,452,cs),
(349,452,o),
(391,369,o),
(391,234,cs),
(391,97,o),
(349,15,o),
(258,15,cs)
);
}
);
width = 516;
},
{
anchors = (
{
name = bottom;
pos = (278,0);
},
{
name = center;
pos = (278,235);
},
{
name = ogonek;
pos = (496,10);
},
{
name = top;
pos = (278,470);
},
{
name = topright;
pos = (531,470);
}
);
layerId = "705D5379-5CC9-457D-BF30-EC6EB9252852";
shapes = (
{
closed = 1;
nodes = (
(438,-10,o),
(511,66,o),
(511,236,cs),
(511,405,o),
(438,481,o),
(280,481,cs),
(118,481,o),
(45,402,o),
(45,234,cs),
(45,66,o),
(118,-10,o),
(278,-10,cs)
);
},
{
closed = 1;
nodes = (
(201,30,o),
(167,93,o),
(167,235,cs),
(167,377,o),
(201,441,o),
(277,441,cs),
(351,441,o),
(387,379,o),
(388,236,cs),
(389,98,o),
(358,30,o),
(278,30,cs)
);
}
);
width = 556;
},
{
anchors = (
{
name = bottom;
pos = (287,0);
},
{
name = center;
pos = (287,235);
},
{
name = ogonek;
pos = (520,10);
},
{
name = top;
pos = (287,470);
},
{
name = topright;
pos = (559,470);
}
);
layerId = "C3F6A16D-5E1F-403C-905F-9502D4908E23";
shapes = (
{
closed = 1;
nodes = (
(461,-12,o),
(544,68,o),
(544,236,cs),
(544,403,o),
(461,482,o),
(289,482,cs),
(115,482,o),
(29,402,o),
(29,234,cs),
(29,68,o),
(113,-12,o),
(287,-12,cs)
);
},
{
closed = 1;
nodes = (
(218,20,o),
(196,83,o),
(196,231,cs),
(196,370,o),
(218,450,o),
(286,450,cs),
(353,450,o),
(376,382,o),
(377,236,cs),
(379,86,o),
(353,20,o),
(288,20,cs)
);
}
);
width = 572;
},
{
anchors = (
{
name = bottom;
pos = (266,0);
},
{
name = center;
pos = (266,234);
},
{
name = ogonek;
pos = (477,10);
},
{
name = top;
pos = (266,468);
},
{
name = topright;
pos = (510,468);
}
);
layerId = "4CDCBC45-D394-4652-82F8-278E2907A602";
shapes = (
{
closed = 1;
nodes = (
(414,-11,o),
(484,74,o),
(484,235,cs),
(484,394,o),
(414,480,o),
(266,480,cs),
(118,480,o),
(48,393,o),
(48,234,cs),
(48,74,o),
(118,-11,o),
(266,-11,cs)
);
},
{
closed = 1;
nodes = (
(180,21,o),
(141,96,o),
(141,234,cs),
(141,372,o),
(180,448,o),
(265,448,cs),
(350,448,o),
(390,373,o),
(390,235,cs),
(390,97,o),
(352,21,o),
(266,21,cs)
);
}
);
width = 531;
}
);
note = o;
unicode = 111;
},
{
glyphname = oslash;
kernLeft = o;
kernRight = b;
lastChange = "2022-11-03 08:56:38 +0000";
layers = (
{
anchors = (
{
name = top;
pos = (275,500);
}
);
layerId = "A270BFC0-E682-4EED-9FF7-BE35A5492496";
shapes = (
{
closed = 1;
nodes = (
(84,-6,l),
(473,473,l),
(439,473,l),
(50,-6,l)
);
},
{
pos = (1,0);
ref = o;
}
);
width = 522;
},
{
anchors = (
{
name = top;
pos = (282,500);
}
);
layerId = "705D5379-5CC9-457D-BF30-EC6EB9252852";
shapes = (
{
closed = 1;
nodes = (
(93,-6,l),
(493,476,l),
(446,476,l),
(45,-6,l)
);
},
{
pos = (8,0);
ref = o;
}
);
width = 564;
},
{
anchors = (
{
name = top;
pos = (291,470);
}
);
layerId = "C3F6A16D-5E1F-403C-905F-9502D4908E23";
shapes = (
{
closed = 1;
nodes = (
(89,-6,l),
(496,476,l),
(439,476,l),
(31,-6,l)
);
},
{
ref = o;
}
);
width = 572;
},
{
anchors = (
{
name = top;
pos = (278,500);
}
);
layerId = "4CDCBC45-D394-4652-82F8-278E2907A602";
shapes = (
{
closed = 1;
nodes = (
(87,-6,l),
(481,474,l),
(442,474,l),
(48,-6,l)
);
},
{
alignment = -1;
pos = (4,0);
ref = o;
}
);
width = 537.75;
}
);
note = oslash;
unicode = 248;
},
{
glyphname = oe;
kernLeft = o;
kernRight = e;
lastChange = "2022-11-03 08:56:38 +0000";
layers = (
{
anchors = (
{
name = bottom;
pos = (418,0);
},
{
name = top;
pos = (418,467);
}
);
layerId = "A270BFC0-E682-4EED-9FF7-BE35A5492496";
shapes = (
{
closed = 1;
nodes = (
(399,-12,o),
(467,79,o),
(467,234,cs),
(467,388,o),
(399,479,o),
(258,479,cs),
(118,479,o),
(50,389,o),
(50,234,cs),
(50,78,o),
(118,-12,o),
(258,-12,cs)
);
},
{
closed = 1;
nodes = (
(168,15,o),
(125,97,o),
(125,234,cs),
(125,370,o),
(168,452,o),
(258,452,cs),
(349,452,o),
(391,369,o),
(391,234,cs),
(391,98,o),
(349,15,o),
(258,15,cs)
);
},
{
closed = 1;
nodes = (
(724,-12,o),
(771,53,o),
(791,123,c),
(766,131,l),
(752,82,o),
(713,15,o),
(617,15,cs),
(488,15,o),
(465,133,o),
(467,242,cs),
(470,372,o),
(508,452,o),
(602,452,cs),
(686,452,o),
(719,387,o),
(719,257,c),
(461,257,l),
(460,230,l),
(795,230,l),
(795,237,ls),
(795,339,o),
(776,479,o),
(605,479,cs),
(457,479,o),
(391,375,o),
(391,226,cs),
(391,82,o),
(453,-12,o),
(601,-12,cs)
);
}
);
width = 842;
},
{
anchors = (
{
name = bottom;
pos = (424,0);
},
{
name = top;
pos = (424,470);
}
);
layerId = "705D5379-5CC9-457D-BF30-EC6EB9252852";
shapes = (
{
closed = 1;
nodes = (
(438,-10,o),
(507,66,o),
(507,235,cs),
(507,404,o),
(438,480,o),
(279,480,cs),
(118,480,o),
(45,402,o),
(45,234,cs),
(45,66,o),
(118,-10,o),
(278,-10,cs)
);
},
{
closed = 1;
nodes = (
(201,30,o),
(167,93,o),
(167,235,cs),
(167,376,o),
(201,440,o),
(277,440,cs),
(353,440,o),
(387,375,o),
(388,236,cs),
(389,98,o),
(358,30,o),
(278,30,cs)
);
},
{
closed = 1;
nodes = (
(740,-10,o),
(779,66,o),
(804,125,c),
(775,143,l),
(752,83,o),
(714,53,o),
(647,53,cs),
(537,53,o),
(510,133,o),
(510,256,cs),
(510,383,o),
(539,440,o),
(607,440,cs),
(668,440,o),
(689,394,o),
(689,269,c),
(473,269,l),
(473,229,l),
(811,229,l),
(811,234,ls),
(811,383,o),
(756,480,o),
(605,480,cs),
(464,480,o),
(388,395,o),
(388,231,cs),
(388,72,o),
(459,-10,o),
(602,-10,cs)
);
}
);
width = 857;
},
{
anchors = (
{
name = bottom;
pos = (433,0);
},
{
name = top;
pos = (433,470);
}
);
layerId = "C3F6A16D-5E1F-403C-905F-9502D4908E23";
shapes = (
{
closed = 1;
nodes = (
(472,-12,o),
(544,130,o),
(544,241,cs),
(544,354,o),
(470,482,o),
(276,482,cs),
(122,482,o),
(29,402,o),
(29,234,cs),
(29,68,o),
(121,-12,o),
(271,-12,cs)
);
},
{
closed = 1;
nodes = (
(218,20,o),
(196,86,o),
(196,229,cs),
(196,372,o),
(218,450,o),
(287,450,cs),
(354,450,o),
(376,378,o),
(377,236,cs),
(378,86,o),
(354,20,o),
(286,20,cs)
);
},
{
closed = 1;
nodes = (
(759,-12,o),
(804,72,o),
(827,127,c),
(791,144,l),
(766,89,o),
(723,50,o),
(654,50,cs),
(574,50,o),
(544,103,o),
(544,264,cs),
(544,414,o),
(570,449,o),
(613,449,cs),
(660,449,o),
(675,407,o),
(675,266,c),
(462,266,l),
(462,233,l),
(842,233,l),
(842,242,ls),
(842,388,o),
(764,482,o),
(623,482,cs),
(456,482,o),
(376,356,o),
(377,234,cs),
(378,115,o),
(458,-12,o),
(624,-12,cs)
);
}
);
width = 870;
},
{
anchors = (
{
name = bottom;
pos = (420,0);
},
{
name = top;
pos = (420,468);
}
);
layerId = "4CDCBC45-D394-4652-82F8-278E2907A602";
shapes = (
{
closed = 1;
nodes = (
(414,-11,o),
(482,74,o),
(482,234,cs),
(482,394,o),
(414,479,o),
(266,479,cs),
(118,479,o),
(48,394,o),
(48,234,cs),
(48,74,o),
(118,-11,o),
(266,-11,cs)
);
},
{
closed = 1;
nodes = (
(180,21,o),
(141,96,o),
(141,234,cs),
(141,372,o),
(180,448,o),
(265,448,cs),
(351,448,o),
(390,371,o),
(390,235,cs),
(390,98,o),
(352,21,o),
(266,21,cs)
);
},
{
closed = 1;
nodes = (
(730,-11,o),
(774,58,o),
(796,124,c),
(769,136,l),
(752,82,o),
(713,29,o),
(628,29,cs),
(506,29,o),
(482,133,o),
(483,247,cs),
(485,376,o),
(520,448,o),
(604,448,cs),
(679,448,o),
(708,390,o),
(708,262,c),
(466,262,l),
(465,230,l),
(801,230,l),
(801,236,ls),
(801,356,o),
(769,479,o),
(605,479,cs),
(460,479,o),
(390,383,o),
(390,228,cs),
(390,78,o),
(455,-11,o),
(601,-11,cs)
);
}
);
width = 847.625;
}
);
note = oe;
unicode = 339;
},
{
glyphname = p;
kernRight = b;
lastChange = "2022-11-03 08:56:38 +0000";
layers = (
{
anchors = (
{
name = bottom;
pos = (279,0);
},
{
name = top;
pos = (279,467);
}
);
layerId = "A270BFC0-E682-4EED-9FF7-BE35A5492496";
shapes = (
{
closed = 1;
nodes = (
(241,-200,l),
(241,-173,l),
(174,-173,o),
(170,-167,o),
(170,-117,cs),
(170,429,l),
(168,429,l),
(168,473,l),
(141,473,l),
(37,455,l),
(37,428,l),
(74,428,ls),
(98,428,o),
(104,420,o),
(104,386,cs),
(104,-117,ls),
(104,-167,o),
(101,-173,o),
(33,-173,c),
(33,-200,l)
);
},
{
closed = 1;
nodes = (
(415,-12,o),
(499,59,o),
(499,242,cs),
(499,398,o),
(438,479,o),
(316,479,cs),
(210,479,o),
(157,418,o),
(145,406,c),
(145,370,l),
(163,388,o),
(220,452,o),
(299,452,cs),
(390,452,o),
(423,367,o),
(423,236,cs),
(423,76,o),
(374,14,o),
(293,14,cs),
(210,14,o),
(158,79,o),
(131,129,c),
(131,81,l),
(159,45,o),
(203,-12,o),
(303,-12,cs)
);
}
);
width = 548;
},
{
anchors = (
{
name = bottom;
pos = (297,0);
},
{
name = top;
pos = (297,470);
}
);
layerId = "705D5379-5CC9-457D-BF30-EC6EB9252852";
shapes = (
{
closed = 1;
nodes = (
(289,-200,l),
(289,-167,l),
(218,-167,o),
(209,-158,o),
(209,-118,cs),
(209,419,l),
(206,419,l),
(206,475,l),
(178,475,l),
(34,453,l),
(34,419,l),
(52,419,ls),
(89,419,o),
(94,412,o),
(94,384,cs),
(94,-118,ls),
(94,-158,o),
(89,-167,o),
(30,-167,c),
(30,-200,l)
);
},
{
closed = 1;
nodes = (
(457,-11,o),
(542,78,o),
(542,250,cs),
(542,403,o),
(474,480,o),
(361,480,cs),
(301,480,o),
(238,458,o),
(207,419,c),
(207,377,l),
(222,389,o),
(254,415,o),
(301,415,cs),
(377,415,o),
(419,348,o),
(419,224,cs),
(419,100,o),
(377,29,o),
(293,29,cs),
(259,29,o),
(228,41,o),
(203,67,c),
(203,9,l),
(243,-6,o),
(270,-11,o),
(306,-11,cs)
);
}
);
width = 587;
},
{
anchors = (
{
name = bottom;
pos = (308,0);
},
{
name = top;
pos = (308,470);
}
);
layerId = "C3F6A16D-5E1F-403C-905F-9502D4908E23";
shapes = (
{
closed = 1;
nodes = (
(295,-200,l),
(295,-167,l),
(249,-167,o),
(241,-159,o),
(241,-117,cs),
(241,424,l),
(236,424,l),
(236,475,l),
(183,475,l),
(18,449,l),
(18,416,l),
(53,416,ls),
(77,416,o),
(82,409,o),
(82,383,cs),
(82,-117,ls),
(82,-161,o),
(74,-167,o),
(18,-167,c),
(18,-200,l)
);
},
{
closed = 1;
nodes = (
(484,-12,o),
(579,80,o),
(579,246,cs),
(579,401,o),
(503,482,o),
(380,482,cs),
(299,482,o),
(259,447,o),
(219,406,c),
(219,352,l),
(231,369,o),
(270,431,o),
(323,431,cs),
(388,431,o),
(412,355,o),
(412,233,cs),
(412,75,o),
(387,21,o),
(322,21,cs),
(243,21,o),
(201,113,o),
(175,161,c),
(175,33,l),
(219,7,o),
(263,-12,o),
(327,-12,cs)
);
}
);
width = 607;
},
{
anchors = (
{
name = bottom;
pos = (286,0);
},
{
name = top;
pos = (286,468);
}
);
layerId = "4CDCBC45-D394-4652-82F8-278E2907A602";
shapes = (
{
closed = 1;
nodes = (
(259,-200,l),
(259,-171,l),
(191,-171,o),
(185,-164,o),
(185,-117,cs),
(185,425,l),
(182,425,l),
(182,474,l),
(155,474,l),
(36,454,l),
(36,425,l),
(66,425,ls),
(95,425,o),
(100,417,o),
(100,385,cs),
(100,-117,ls),
(100,-164,o),
(97,-171,o),
(32,-171,c),
(32,-200,l)
);
},
{
closed = 1;
nodes = (
(431,-12,o),
(515,66,o),
(515,245,cs),
(515,400,o),
(452,479,o),
(333,479,cs),
(244,479,o),
(187,433,o),
(168,411,c),
(168,373,l),
(185,388,o),
(233,438,o),
(300,438,cs),
(385,438,o),
(422,360,o),
(422,232,cs),
(422,85,o),
(375,20,o),
(293,20,cs),
(228,20,o),
(184,65,o),
(158,106,c),
(158,54,l),
(191,26,o),
(228,-12,o),
(304,-12,cs)
);
}
);
width = 562.625;
}
);
note = p;
unicode = 112;
},
{
glyphname = thorn;
kernRight = b;
lastChange = "2022-11-03 08:56:38 +0000";
layers = (
{
anchors = (
{
name = bottom;
pos = (276,0);
},
{
name = top;
pos = (276,467);
}
);
layerId = "A270BFC0-E682-4EED-9FF7-BE35A5492496";
shapes = (
{
closed = 1;
nodes = (
(238,-200,l),
(238,-173,l),
(171,-173,o),
(167,-167,o),
(167,-117,cs),
(167,693,l),
(140,693,l),
(34,675,l),
(34,648,l),
(71,648,ls),
(95,648,o),
(101,640,o),
(101,606,cs),
(101,-117,ls),
(101,-167,o),
(98,-173,o),
(30,-173,c),
(30,-200,l)
);
},
{
closed = 1;
nodes = (
(412,-12,o),
(496,59,o),
(496,242,cs),
(496,398,o),
(435,479,o),
(313,479,cs),
(207,479,o),
(154,418,o),
(142,406,c),
(142,370,l),
(160,388,o),
(217,452,o),
(296,452,cs),
(387,452,o),
(420,367,o),
(420,236,cs),
(420,76,o),
(371,14,o),
(290,14,cs),
(207,14,o),
(155,79,o),
(128,129,c),
(128,81,l),
(156,45,o),
(200,-12,o),
(300,-12,cs)
);
}
);
width = 545;
},
{
anchors = (
{
name = bottom;
pos = (273,0);
},
{
name = top;
pos = (273,470);
}
);
layerId = "705D5379-5CC9-457D-BF30-EC6EB9252852";
shapes = (
{
closed = 1;
nodes = (
(265,-200,l),
(265,-167,l),
(194,-167,o),
(185,-158,o),
(185,-118,cs),
(185,690,l),
(157,690,l),
(10,668,l),
(10,634,l),
(28,634,ls),
(65,634,o),
(70,627,o),
(70,599,cs),
(70,-118,ls),
(70,-158,o),
(65,-167,o),
(6,-167,c),
(6,-200,l)
);
},
{
closed = 1;
nodes = (
(433,-11,o),
(518,78,o),
(518,250,cs),
(518,403,o),
(450,480,o),
(337,480,cs),
(277,480,o),
(214,458,o),
(183,419,c),
(183,377,l),
(198,389,o),
(230,415,o),
(277,415,cs),
(353,415,o),
(395,348,o),
(395,224,cs),
(395,100,o),
(353,29,o),
(269,29,cs),
(235,29,o),
(204,41,o),
(179,67,c),
(179,9,l),
(219,-6,o),
(246,-11,o),
(282,-11,cs)
);
}
);
width = 563;
},
{
anchors = (
{
name = bottom;
pos = (306,0);
},
{
name = top;
pos = (306,470);
}
);
layerId = "C3F6A16D-5E1F-403C-905F-9502D4908E23";
shapes = (
{
closed = 1;
nodes = (
(293,-200,l),
(293,-167,l),
(247,-167,o),
(239,-159,o),
(239,-117,cs),
(239,690,l),
(186,690,l),
(16,664,l),
(16,631,l),
(51,631,ls),
(75,631,o),
(80,624,o),
(80,598,cs),
(80,-117,ls),
(80,-161,o),
(72,-167,o),
(16,-167,c),
(16,-200,l)
);
},
{
closed = 1;
nodes = (
(482,-12,o),
(577,80,o),
(577,246,cs),
(577,401,o),
(501,482,o),
(378,482,cs),
(297,482,o),
(257,447,o),
(217,406,c),
(217,352,l),
(229,369,o),
(268,431,o),
(321,431,cs),
(386,431,o),
(410,355,o),
(410,233,cs),
(410,75,o),
(385,21,o),
(320,21,cs),
(241,21,o),
(199,113,o),
(173,161,c),
(173,33,l),
(217,7,o),
(261,-12,o),
(325,-12,cs)
);
}
);
width = 606;
},
{
anchors = (
{
name = bottom;
pos = (275,0);
},
{
name = top;
pos = (275,468);
}
);
layerId = "4CDCBC45-D394-4652-82F8-278E2907A602";
shapes = (
{
closed = 1;
nodes = (
(248,-200,l),
(248,-171,l),
(180,-171,o),
(174,-164,o),
(174,-117,cs),
(174,692,l),
(146,692,l),
(25,672,l),
(25,643,l),
(55,643,ls),
(84,643,o),
(89,635,o),
(89,603,cs),
(89,-117,ls),
(89,-164,o),
(86,-171,o),
(21,-171,c),
(21,-200,l)
);
},
{
closed = 1;
nodes = (
(420,-12,o),
(504,66,o),
(504,245,cs),
(504,400,o),
(441,479,o),
(322,479,cs),
(233,479,o),
(177,433,o),
(157,411,c),
(157,373,l),
(174,388,o),
(222,438,o),
(289,438,cs),
(374,438,o),
(411,360,o),
(411,232,cs),
(411,85,o),
(364,20,o),
(282,20,cs),
(218,20,o),
(173,65,o),
(147,106,c),
(147,54,l),
(180,26,o),
(217,-12,o),
(293,-12,cs)
);
}
);
width = 551.75;
}
);
note = p;
unicode = 254;
},
{
glyphname = q;
kernLeft = o;
lastChange = "2022-11-03 08:56:38 +0000";
layers = (
{
anchors = (
{
name = bottom;
pos = (271,0);
},
{
name = top;
pos = (271,467);
}
);
layerId = "A270BFC0-E682-4EED-9FF7-BE35A5492496";
shapes = (
{
closed = 1;
nodes = (
(337,-12,o),
(387,44,o),
(404,61,c),
(404,97,l),
(383,76,o),
(328,15,o),
(249,15,cs),
(159,15,o),
(126,100,o),
(126,232,cs),
(126,392,o),
(175,453,o),
(258,453,cs),
(338,453,o),
(392,387,o),
(418,338,c),
(418,386,l),
(396,414,o),
(350,479,o),
(248,479,cs),
(133,479,o),
(50,407,o),
(50,226,cs),
(50,69,o),
(112,-12,o),
(231,-12,cs)
);
},
{
closed = 1;
nodes = (
(381,36,l),
(381,49,l),
(372,49,l),
(372,36,l)
);
},
{
closed = 1;
nodes = (
(516,-200,l),
(516,-173,l),
(449,-173,o),
(445,-167,o),
(445,-117,cs),
(445,473,l),
(418,473,l),
(379,430,l),
(379,-117,ls),
(379,-167,o),
(376,-173,o),
(308,-173,c),
(308,-200,l)
);
}
);
width = 524;
},
{
anchors = (
{
name = bottom;
pos = (290,0);
},
{
name = top;
pos = (290,470);
}
);
layerId = "705D5379-5CC9-457D-BF30-EC6EB9252852";
shapes = (
{
closed = 1;
nodes = (
(292,-11,o),
(353,19,o),
(385,49,c),
(393,104,l),
(346,68,o),
(324,54,o),
(288,54,cs),
(209,54,o),
(168,122,o),
(168,245,cs),
(168,370,o),
(211,440,o),
(292,440,cs),
(326,440,o),
(363,428,o),
(391,395,c),
(449,435,l),
(388,463,o),
(353,480,o),
(287,480,cs),
(130,480,o),
(45,386,o),
(45,224,cs),
(45,81,o),
(111,-11,o),
(226,-11,cs)
);
},
{
closed = 1;
nodes = (
(383,42,l),
(383,55,l),
(374,55,l),
(374,42,l)
);
},
{
closed = 1;
nodes = (
(557,-200,l),
(557,-167,l),
(502,-167,o),
(494,-157,o),
(494,-118,cs),
(494,475,l),
(467,475,l),
(378,411,l),
(378,-118,ls),
(378,-157,o),
(371,-167,o),
(305,-167,c),
(305,-200,l)
);
}
);
width = 558;
},
{
anchors = (
{
name = bottom;
pos = (300,0);
},
{
name = top;
pos = (300,470);
}
);
layerId = "C3F6A16D-5E1F-403C-905F-9502D4908E23";
shapes = (
{
closed = 1;
nodes = (
(294,-11,o),
(337,11,o),
(392,69,c),
(384,118,l),
(369,94,o),
(334,40,o),
(283,40,cs),
(225,40,o),
(192,110,o),
(192,254,cs),
(192,379,o),
(217,449,o),
(286,449,cs),
(367,449,o),
(405,374,o),
(430,339,c),
(430,413,l),
(404,439,o),
(372,482,o),
(274,482,cs),
(119,482,o),
(29,392,o),
(29,224,cs),
(29,74,o),
(103,-11,o),
(226,-11,cs)
);
},
{
closed = 1;
nodes = (
(406,42,l),
(406,55,l),
(357,55,l),
(357,42,l)
);
},
{
closed = 1;
nodes = (
(590,-200,l),
(590,-167,l),
(536,-167,o),
(526,-159,o),
(526,-117,cs),
(526,475,l),
(473,475,l),
(367,419,l),
(367,-117,ls),
(367,-161,o),
(359,-167,o),
(303,-167,c),
(303,-200,l)
);
}
);
width = 605;
},
{
anchors = (
{
name = bottom;
pos = (278,0);
},
{
name = top;
pos = (278,468);
}
);
layerId = "4CDCBC45-D394-4652-82F8-278E2907A602";
shapes = (
{
closed = 1;
nodes = (
(320,-12,o),
(374,35,o),
(397,57,c),
(400,100,l),
(369,73,o),
(327,30,o),
(264,30,cs),
(178,30,o),
(142,108,o),
(142,237,cs),
(142,384,o),
(189,448,o),
(271,448,cs),
(334,448,o),
(381,402,o),
(408,359,c),
(430,404,l),
(393,432,o),
(351,479,o),
(263,479,cs),
(132,479,o),
(48,399,o),
(48,225,cs),
(48,74,o),
(112,-12,o),
(229,-12,cs)
);
},
{
closed = 1;
nodes = (
(382,38,l),
(382,51,l),
(373,51,l),
(373,38,l)
);
},
{
closed = 1;
nodes = (
(531,-200,l),
(531,-171,l),
(469,-171,o),
(463,-163,o),
(463,-117,cs),
(463,474,l),
(436,474,l),
(379,423,l),
(379,-117,ls),
(379,-163,o),
(374,-171,o),
(307,-171,c),
(307,-200,l)
);
}
);
width = 536.75;
}
);
note = q;
unicode = 113;
},
{
glyphname = r;
kernLeft = m;
kernRight = r;
lastChange = "2022-11-03 08:56:38 +0000";
layers = (
{
anchors = (
{
name = bottom;
pos = (145,0);
},
{
name = top;
pos = (206,467);
}
);
background = {
shapes = (
{
closed = 1;
nodes = (
(174,289,l),
(174,363,o),
(225,444,o),
(277,444,cs),
(284,444,o),
(289,442,o),
(289,438,cs),
(289,432,o),
(280,425,o),
(280,407,cs),
(280,382,o),
(298,367,o),
(321,367,cs),
(345,367,o),
(365,384,o),
(365,416,cs),
(365,449,o),
(344,479,o),
(298,479,cs),
(227,479,o),
(190,409,o),
(170,370,c),
(170,289,l)
);
}
);
};
layerId = "A270BFC0-E682-4EED-9FF7-BE35A5492496";
shapes = (
{
closed = 1;
nodes = (
(245,0,l),
(245,27,l),
(178,27,o),
(174,33,o),
(174,83,cs),
(174,375,l),
(171,375,l),
(171,473,l),
(144,473,l),
(41,455,l),
(41,428,l),
(78,428,ls),
(102,428,o),
(108,420,o),
(108,386,cs),
(108,83,ls),
(108,33,o),
(105,27,o),
(37,27,c),
(37,0,l)
);
},
{
closed = 1;
nodes = (
(174,288,l),
(174,372,o),
(231,445,o),
(275,445,cs),
(284,445,o),
(289,442,o),
(289,436,cs),
(289,424,o),
(265,414,o),
(265,386,cs),
(265,364,o),
(279,343,o),
(313,343,cs),
(351,343,o),
(365,369,o),
(365,404,cs),
(365,456,o),
(335,479,o),
(295,479,cs),
(224,479,o),
(189,405,o),
(170,371,c),
(170,288,l)
);
}
);
width = 372;
},
{
anchors = (
{
name = bottom;
pos = (157,0);
},
{
name = top;
pos = (198,470);
}
);
layerId = "705D5379-5CC9-457D-BF30-EC6EB9252852";
shapes = (
{
closed = 1;
nodes = (
(298,0,l),
(298,33,l),
(224,33,o),
(215,42,o),
(215,83,cs),
(215,388,l),
(212,388,l),
(212,475,l),
(184,475,l),
(40,452,l),
(40,418,l),
(70,418,ls),
(92,418,o),
(98,408,o),
(98,372,cs),
(98,83,ls),
(98,44,o),
(93,33,o),
(34,33,c),
(34,0,l)
);
},
{
closed = 1;
nodes = (
(215,275,l),
(215,369,o),
(275,442,o),
(309,442,cs),
(319,442,o),
(322,436,o),
(322,432,cs),
(322,422,o),
(298,415,o),
(298,380,cs),
(298,347,o),
(320,327,o),
(356,327,cs),
(398,327,o),
(421,354,o),
(421,397,cs),
(421,439,o),
(398,481,o),
(337,481,cs),
(261,481,o),
(226,415,o),
(210,380,c),
(210,272,l)
);
}
);
width = 432;
},
{
anchors = (
{
name = bottom;
pos = (169,0);
},
{
name = top;
pos = (244,470);
}
);
layerId = "C3F6A16D-5E1F-403C-905F-9502D4908E23";
shapes = (
{
closed = 1;
nodes = (
(314,0,l),
(314,33,l),
(253,33,o),
(242,41,o),
(242,83,cs),
(242,380,l),
(237,380,l),
(237,475,l),
(184,475,l),
(19,449,l),
(19,416,l),
(54,416,ls),
(78,416,o),
(83,409,o),
(83,383,cs),
(83,83,ls),
(83,39,o),
(75,33,o),
(19,33,c),
(19,0,l)
);
},
{
closed = 1;
nodes = (
(242,268,l),
(242,324,o),
(280,418,o),
(313,418,cs),
(318,418,o),
(323,416,o),
(323,412,cs),
(323,405,o),
(310,400,o),
(310,373,cs),
(310,332,o),
(340,309,o),
(382,309,cs),
(438,309,o),
(458,351,o),
(458,391,cs),
(458,446,o),
(420,479,o),
(367,479,cs),
(256,479,o),
(220,335,o),
(211,304,c),
(211,268,l)
);
}
);
width = 468;
},
{
anchors = (
{
name = bottom;
pos = (150,0);
},
{
name = top;
pos = (203,468);
}
);
layerId = "4CDCBC45-D394-4652-82F8-278E2907A602";
shapes = (
{
closed = 1;
nodes = (
(265,0,l),
(265,29,l),
(195,29,o),
(189,36,o),
(189,83,cs),
(189,380,l),
(186,380,l),
(186,474,l),
(159,474,l),
(41,454,l),
(41,424,l),
(75,424,ls),
(98,424,o),
(104,416,o),
(104,381,cs),
(104,83,ls),
(104,37,o),
(101,29,o),
(36,29,c),
(36,0,l)
);
},
{
closed = 1;
nodes = (
(189,283,l),
(189,371,o),
(248,444,o),
(288,444,cs),
(297,444,o),
(301,440,o),
(301,435,cs),
(301,423,o),
(277,414,o),
(277,384,cs),
(277,358,o),
(294,337,o),
(329,337,cs),
(369,337,o),
(386,363,o),
(386,401,cs),
(386,450,o),
(359,480,o),
(311,480,cs),
(238,480,o),
(203,409,o),
(185,374,c),
(185,282,l)
);
}
);
width = 394.5;
}
);
note = r;
unicode = 114;
},
{
glyphname = s;
kernLeft = s;
kernRight = s;
lastChange = "2022-11-03 08:56:38 +0000";
layers = (
{
anchors = (
{
name = bottom;
pos = (216,0);
},
{
name = top;
pos = (216,467);
}
);
layerId = "A270BFC0-E682-4EED-9FF7-BE35A5492496";
shapes = (
{
closed = 1;
nodes = (
(316,-14,o),
(390,43,o),
(390,131,cs),
(390,204,o),
(339,240,o),
(240,269,cs),
(216,276,ls),
(175,288,o),
(118,316,o),
(118,370,cs),
(118,419,o),
(163,452,o),
(225,452,cs),
(304,452,o),
(328,398,o),
(342,332,c),
(359,332,l),
(352,479,l),
(336,479,l),
(334,473,o),
(333,461,o),
(316,461,cs),
(295,461,o),
(279,479,o),
(223,479,cs),
(128,479,o),
(61,426,o),
(61,344,cs),
(61,273,o),
(112,245,o),
(177,224,cs),
(205,215,ls),
(256,199,o),
(329,176,o),
(329,104,cs),
(329,47,o),
(281,16,o),
(219,16,cs),
(147,16,o),
(95,57,o),
(69,162,c),
(52,162,l),
(63,-3,l),
(82,-3,l),
(87,9,o),
(90,16,o),
(105,16,cs),
(132,16,o),
(152,-9,o),
(217,-11,cs)
);
}
);
width = 439;
},
{
anchors = (
{
name = bottom;
pos = (226,0);
},
{
name = top;
pos = (226,470);
}
);
layerId = "705D5379-5CC9-457D-BF30-EC6EB9252852";
shapes = (
{
closed = 1;
nodes = (
(334,-11,o),
(403,49,o),
(403,140,cs),
(403,224,o),
(345,258,o),
(263,295,cs),
(232,309,ls),
(197,325,o),
(164,350,o),
(164,385,cs),
(164,419,o),
(195,440,o),
(236,440,cs),
(295,440,o),
(345,396,o),
(361,332,c),
(386,332,l),
(378,479,l),
(357,479,l),
(355,473,o),
(355,461,o),
(335,461,cs),
(310,461,o),
(289,480,o),
(227,480,cs),
(128,480,o),
(63,431,o),
(63,340,cs),
(63,277,o),
(94,245,o),
(185,200,cs),
(205,190,ls),
(274,156,o),
(300,143,o),
(300,100,cs),
(300,56,o),
(272,28,o),
(224,28,cs),
(157,28,o),
(97,82,o),
(72,162,c),
(47,162,l),
(56,-3,l),
(75,-3,l),
(82,9,o),
(89,16,o),
(106,16,cs),
(138,16,o),
(161,-11,o),
(230,-11,cs)
);
}
);
width = 443;
},
{
anchors = (
{
name = bottom;
pos = (228,0);
},
{
name = top;
pos = (228,470);
}
);
layerId = "C3F6A16D-5E1F-403C-905F-9502D4908E23";
shapes = (
{
closed = 1;
nodes = (
(355,-12,o),
(425,60,o),
(425,159,cs),
(425,229,o),
(390,276,o),
(287,303,cs),
(230,318,ls),
(193,328,o),
(142,341,o),
(142,385,cs),
(142,421,o),
(176,450,o),
(229,450,cs),
(294,450,o),
(336,408,o),
(357,333,c),
(390,333,l),
(383,479,l),
(356,479,l),
(352,468,o),
(347,461,o),
(333,461,cs),
(308,461,o),
(287,482,o),
(220,482,cs),
(101,482,o),
(30,417,o),
(30,324,cs),
(30,255,o),
(69,206,o),
(165,182,cs),
(241,163,ls),
(293,150,o),
(314,130,o),
(314,95,cs),
(314,40,o),
(264,21,o),
(215,21,cs),
(135,21,o),
(81,72,o),
(70,162,c),
(34,162,l),
(43,0,l),
(70,0,l),
(75,5,o),
(82,11,o),
(95,11,cs),
(122,11,o),
(145,-12,o),
(221,-12,cs)
);
}
);
width = 450;
},
{
anchors = (
{
name = bottom;
pos = (220,0);
},
{
name = top;
pos = (220,468);
}
);
layerId = "4CDCBC45-D394-4652-82F8-278E2907A602";
shapes = (
{
closed = 1;
nodes = (
(323,-13,o),
(395,45,o),
(395,134,cs),
(395,212,o),
(341,247,o),
(249,279,cs),
(222,288,ls),
(183,302,o),
(135,329,o),
(135,376,cs),
(135,419,o),
(175,448,o),
(229,448,cs),
(301,448,o),
(334,397,o),
(349,332,c),
(369,332,l),
(362,479,l),
(344,479,l),
(342,473,o),
(341,461,o),
(323,461,cs),
(301,461,o),
(283,479,o),
(225,479,cs),
(128,479,o),
(62,428,o),
(62,343,cs),
(62,275,o),
(105,245,o),
(180,215,cs),
(205,206,ls),
(263,183,o),
(318,164,o),
(318,103,cs),
(318,50,o),
(278,21,o),
(221,21,cs),
(151,21,o),
(96,66,o),
(70,162,c),
(50,162,l),
(60,-3,l),
(79,-3,l),
(85,9,o),
(90,16,o),
(105,16,cs),
(134,16,o),
(155,-10,o),
(222,-11,cs)
);
}
);
width = 440.5;
}
);
note = s;
unicode = 115;
},
{
glyphname = germandbls;
kernLeft = f;
lastChange = "2022-11-03 08:56:38 +0000";
layers = (
{
anchors = (
{
name = bottom;
pos = (288,0);
},
{
name = top;
pos = (288,500);
}
);
layerId = "A270BFC0-E682-4EED-9FF7-BE35A5492496";
shapes = (
{
closed = 1;
nodes = (
(470,-11,o),
(533,42,o),
(533,123,cs),
(533,196,o),
(483,240,o),
(436,275,cs),
(385,313,o),
(340,334,o),
(340,388,cs),
(340,440,o),
(383,471,o),
(452,481,c),
(468,502,o),
(477,529,o),
(477,556,cs),
(477,605,o),
(446,705,o),
(301,705,cs),
(156,705,o),
(102,610,o),
(102,451,cs),
(102,83,ls),
(102,34,o),
(99,27,o),
(30,27,c),
(30,0,l),
(240,0,l),
(240,27,l),
(172,27,o),
(168,34,o),
(168,83,cs),
(168,424,ls),
(168,555,o),
(183,678,o),
(290,678,cs),
(360,678,o),
(415,626,o),
(415,560,cs),
(415,532,o),
(405,504,o),
(394,487,c),
(309,468,o),
(283,424,o),
(283,360,cs),
(283,322,o),
(309,281,o),
(388,229,cs),
(443,193,o),
(475,157,o),
(475,95,cs),
(475,38,o),
(427,16,o),
(394,16,cs),
(376,16,o),
(369,23,o),
(369,28,cs),
(369,33,o),
(374,38,o),
(374,51,cs),
(374,71,o),
(361,83,o),
(340,83,cs),
(313,83,o),
(300,65,o),
(300,44,cs),
(300,12,o),
(329,-11,o),
(385,-11,cs)
);
},
{
closed = 1;
nodes = (
(126,440,l),
(126,467,l),
(30,467,l),
(30,440,l)
);
}
);
width = 569;
},
{
anchors = (
{
name = bottom;
pos = (303,0);
},
{
name = top;
pos = (303,500);
}
);
layerId = "705D5379-5CC9-457D-BF30-EC6EB9252852";
shapes = (
{
closed = 1;
nodes = (
(517,-11,o),
(578,43,o),
(578,129,cs),
(578,209,o),
(515,255,o),
(472,286,cs),
(432,313,o),
(389,345,o),
(389,390,cs),
(389,435,o),
(438,466,o),
(492,475,c),
(503,489,o),
(515,520,o),
(515,552,cs),
(515,602,o),
(492,704,o),
(312,704,cs),
(160,704,o),
(88,625,o),
(88,452,cs),
(88,67,ls),
(88,43,o),
(81,33,o),
(25,33,c),
(25,0,l),
(267,0,l),
(267,33,l),
(212,33,o),
(204,43,o),
(204,82,cs),
(204,460,ls),
(204,595,o),
(240,663,o),
(312,663,cs),
(369,663,o),
(409,617,o),
(409,554,cs),
(409,532,o),
(405,499,o),
(386,475,c),
(323,458,o),
(288,409,o),
(288,348,cs),
(288,295,o),
(321,245,o),
(386,203,cs),
(454,160,o),
(482,129,o),
(482,83,cs),
(482,50,o),
(461,28,o),
(429,28,cs),
(408,28,o),
(392,34,o),
(392,43,cs),
(392,49,o),
(399,62,o),
(399,71,cs),
(399,89,o),
(384,104,o),
(359,104,cs),
(326,104,o),
(311,79,o),
(311,53,cs),
(311,16,o),
(350,-11,o),
(416,-11,cs)
);
},
{
closed = 1;
nodes = (
(114,427,l),
(114,470,l),
(25,470,l),
(25,427,l)
);
}
);
width = 599;
},
{
anchors = (
{
name = bottom;
pos = (334,0);
},
{
name = top;
pos = (334,470);
}
);
layerId = "C3F6A16D-5E1F-403C-905F-9502D4908E23";
shapes = (
{
closed = 1;
nodes = (
(550,-12,o),
(621,44,o),
(621,126,cs),
(621,192,o),
(577,233,o),
(506,286,cs),
(465,316,o),
(432,342,o),
(432,387,cs),
(432,442,o),
(482,476,o),
(531,475,c),
(541,492,o),
(550,514,o),
(550,551,cs),
(550,661,o),
(468,704,o),
(340,704,cs),
(168,704,o),
(91,626,o),
(91,452,cs),
(91,83,ls),
(91,39,o),
(83,33,o),
(27,33,c),
(27,0,l),
(294,0,l),
(294,33,l),
(257,33,o),
(250,41,o),
(250,83,cs),
(250,513,ls),
(250,641,o),
(286,671,o),
(336,671,cs),
(389,671,o),
(415,638,o),
(415,555,cs),
(415,523,o),
(411,500,o),
(401,475,c),
(336,450,o),
(301,410,o),
(301,350,cs),
(301,303,o),
(322,257,o),
(398,203,cs),
(441,172,o),
(488,148,o),
(488,84,cs),
(488,49,o),
(476,21,o),
(449,21,cs),
(436,21,o),
(417,27,o),
(417,43,cs),
(417,58,o),
(436,59,o),
(436,89,cs),
(436,124,o),
(411,141,o),
(382,141,cs),
(344,141,o),
(323,111,o),
(323,79,cs),
(323,29,o),
(369,-12,o),
(447,-12,cs)
);
},
{
closed = 1;
nodes = (
(157,437,l),
(157,470,l),
(27,470,l),
(27,437,l)
);
}
);
width = 634;
},
{
anchors = (
{
name = bottom;
pos = (294,0);
},
{
name = top;
pos = (294,500);
}
);
layerId = "4CDCBC45-D394-4652-82F8-278E2907A602";
shapes = (
{
closed = 1;
nodes = (
(488,-11,o),
(550,42,o),
(550,125,cs),
(550,201,o),
(495,246,o),
(450,279,cs),
(403,313,o),
(358,338,o),
(358,389,cs),
(358,438,o),
(404,469,o),
(467,479,c),
(481,497,o),
(491,526,o),
(491,555,cs),
(491,604,o),
(463,705,o),
(305,705,cs),
(158,705,o),
(97,616,o),
(97,451,cs),
(97,77,ls),
(97,37,o),
(92,29,o),
(28,29,c),
(28,0,l),
(250,0,l),
(250,29,l),
(187,29,o),
(182,37,o),
(182,83,cs),
(182,438,ls),
(182,570,o),
(204,672,o),
(298,672,cs),
(363,672,o),
(413,623,o),
(413,558,cs),
(413,532,o),
(405,502,o),
(391,483,c),
(314,464,o),
(285,418,o),
(285,356,cs),
(285,312,o),
(314,268,o),
(387,219,cs),
(447,181,o),
(478,147,o),
(478,91,cs),
(478,43,o),
(440,21,o),
(407,21,cs),
(388,21,o),
(378,27,o),
(378,34,cs),
(378,39,o),
(383,47,o),
(383,59,cs),
(383,78,o),
(370,91,o),
(347,91,cs),
(318,91,o),
(304,70,o),
(304,47,cs),
(304,14,o),
(337,-11,o),
(397,-11,cs)
);
},
{
closed = 1;
nodes = (
(122,435,l),
(122,468,l),
(28,468,l),
(28,435,l)
);
}
);
width = 580.25;
}
);
note = germandbls;
unicode = 223;
},
{
glyphname = t;
kernLeft = t;
kernRight = t;
lastChange = "2022-11-03 08:56:38 +0000";
layers = (
{
anchors = (
{
name = bottom;
pos = (141,0);
},
{
name = center;
pos = (141,234);
},
{
name = top;
pos = (141,467);
},
{
name = topright;
pos = (269,467);
}
);
layerId = "A270BFC0-E682-4EED-9FF7-BE35A5492496";
shapes = (
{
closed = 1;
nodes = (
(231,-11,o),
(258,14,o),
(279,31,c),
(268,54,l),
(256,42,o),
(226,21,o),
(200,21,cs),
(178,21,o),
(161,35,o),
(161,89,cs),
(161,440,l),
(274,440,l),
(274,467,l),
(161,467,l),
(161,616,l),
(140,616,l),
(130,535,o),
(90,467,o),
(13,467,c),
(13,440,l),
(95,440,l),
(95,86,ls),
(95,-2,o),
(151,-11,o),
(181,-11,cs)
);
}
);
width = 295;
},
{
anchors = (
{
name = bottom;
pos = (178,0);
},
{
name = center;
pos = (146,235);
},
{
name = top;
pos = (146,470);
},
{
name = topright;
pos = (291,503);
}
);
layerId = "705D5379-5CC9-457D-BF30-EC6EB9252852";
shapes = (
{
closed = 1;
nodes = (
(244,-11,o),
(283,17,o),
(314,37,c),
(303,62,l),
(289,56,o),
(269,52,o),
(253,52,cs),
(205,52,o),
(183,81,o),
(183,141,cs),
(183,430,l),
(290,430,l),
(290,470,l),
(183,470,l),
(183,627,l),
(141,627,l),
(118,536,o),
(80,485,o),
(9,463,c),
(9,430,l),
(68,430,l),
(68,106,ls),
(68,31,o),
(112,-11,o),
(185,-11,cs)
);
}
);
width = 316;
},
{
anchors = (
{
name = bottom;
pos = (185,0);
},
{
name = center;
pos = (185,235);
},
{
name = top;
pos = (185,470);
},
{
name = topright;
pos = (386,470);
}
);
layerId = "C3F6A16D-5E1F-403C-905F-9502D4908E23";
shapes = (
{
closed = 1;
nodes = (
(300,-12,o),
(336,23,o),
(359,40,c),
(338,71,l),
(332,66,o),
(308,46,o),
(279,46,cs),
(242,46,o),
(231,78,o),
(231,141,cs),
(231,437,l),
(323,437,l),
(323,470,l),
(231,470,l),
(231,660,l),
(204,660,l),
(180,574,o),
(96,479,o),
(11,470,c),
(11,437,l),
(72,437,l),
(72,154,ls),
(72,27,o),
(123,-12,o),
(214,-12,cs)
);
}
);
width = 352;
},
{
anchors = (
{
name = bottom;
pos = (155,0);
},
{
name = center;
pos = (143,234);
},
{
name = top;
pos = (143,468);
},
{
name = topright;
pos = (277,481);
}
);
layerId = "4CDCBC45-D394-4652-82F8-278E2907A602";
shapes = (
{
closed = 1;
nodes = (
(236,-11,o),
(267,15,o),
(292,33,c),
(281,57,l),
(268,47,o),
(242,33,o),
(220,33,cs),
(188,33,o),
(169,52,o),
(169,109,cs),
(169,436,l),
(280,436,l),
(280,468,l),
(169,468,l),
(169,620,l),
(140,620,l),
(126,535,o),
(86,474,o),
(12,466,c),
(12,436,l),
(85,436,l),
(85,94,ls),
(85,10,o),
(136,-11,o),
(183,-11,cs)
);
}
);
width = 302.875;
}
);
note = t;
unicode = 116;
},
{
glyphname = u;
kernLeft = u;
kernRight = u;
lastChange = "2022-11-03 08:56:38 +0000";
layers = (
{
anchors = (
{
name = bottom;
pos = (270,0);
},
{
name = ogonek;
pos = (481,10);
},
{
name = top;
pos = (270,467);
},
{
name = topright;
pos = (514,467);
}
);
layerId = "A270BFC0-E682-4EED-9FF7-BE35A5492496";
shapes = (
{
closed = 1;
nodes = (
(326,-12,o),
(371,36,o),
(411,106,c),
(411,149,l),
(376,88,o),
(338,26,o),
(261,26,cs),
(188,26,o),
(166,82,o),
(166,140,cs),
(166,473,l),
(139,473,l),
(33,455,l),
(33,428,l),
(70,428,ls),
(94,428,o),
(100,420,o),
(100,386,cs),
(100,131,ls),
(100,35,o),
(141,-12,o),
(233,-12,cs)
);
},
{
closed = 1;
nodes = (
(527,0,l),
(527,27,l),
(459,27,o),
(456,33,o),
(456,83,cs),
(456,473,l),
(429,473,l),
(323,455,l),
(323,428,l),
(360,428,ls),
(384,428,o),
(390,420,o),
(390,386,cs),
(389,71,l),
(391,71,l),
(391,0,l)
);
}
);
width = 571;
},
{
anchors = (
{
name = bottom;
pos = (292,0);
},
{
name = ogonek;
pos = (526,10);
},
{
name = top;
pos = (292,470);
},
{
name = topright;
pos = (565,470);
}
);
layerId = "705D5379-5CC9-457D-BF30-EC6EB9252852";
shapes = (
{
closed = 1;
nodes = (
(301,-11,o),
(372,52,o),
(392,70,c),
(392,112,l),
(370,88,o),
(328,54,o),
(287,54,cs),
(231,54,o),
(200,92,o),
(200,159,cs),
(200,475,l),
(171,475,l),
(25,457,l),
(25,424,l),
(55,424,ls),
(79,424,o),
(85,415,o),
(85,378,cs),
(85,130,ls),
(85,38,o),
(130,-11,o),
(216,-11,cs)
);
},
{
closed = 1;
nodes = (
(569,0,l),
(569,33,l),
(513,33,o),
(505,43,o),
(505,83,cs),
(505,475,l),
(476,475,l),
(330,457,l),
(330,424,l),
(360,424,ls),
(384,424,o),
(389,415,o),
(389,378,cs),
(389,69,l),
(392,69,l),
(392,0,l)
);
}
);
width = 603;
},
{
anchors = (
{
name = bottom;
pos = (313,0);
},
{
name = ogonek;
pos = (561,10);
},
{
name = top;
pos = (313,470);
},
{
name = topright;
pos = (603,470);
}
);
layerId = "C3F6A16D-5E1F-403C-905F-9502D4908E23";
shapes = (
{
closed = 1;
nodes = (
(334,-12,o),
(380,43,o),
(408,78,c),
(402,106,l),
(361,65,o),
(341,47,o),
(307,47,cs),
(266,47,o),
(242,72,o),
(242,152,cs),
(242,475,l),
(187,475,l),
(19,449,l),
(19,416,l),
(54,416,ls),
(78,416,o),
(83,409,o),
(83,383,cs),
(83,152,ls),
(83,34,o),
(142,-12,o),
(234,-12,cs)
);
},
{
closed = 1;
nodes = (
(607,0,l),
(607,33,l),
(556,33,o),
(549,35,o),
(549,64,cs),
(549,475,l),
(494,475,l),
(326,449,l),
(326,416,l),
(361,416,ls),
(385,416,o),
(390,409,o),
(390,383,cs),
(390,61,l),
(395,61,l),
(395,0,l)
);
}
);
width = 627;
},
{
anchors = (
{
name = bottom;
pos = (278,0);
},
{
name = ogonek;
pos = (498,10);
},
{
name = top;
pos = (278,468);
},
{
name = topright;
pos = (533,468);
}
);
layerId = "4CDCBC45-D394-4652-82F8-278E2907A602";
shapes = (
{
closed = 1;
nodes = (
(317,-12,o),
(371,42,o),
(404,93,c),
(404,135,l),
(374,88,o),
(334,37,o),
(271,37,cs),
(204,37,o),
(179,86,o),
(179,147,cs),
(179,474,l),
(151,474,l),
(30,456,l),
(30,427,l),
(64,427,ls),
(88,427,o),
(94,418,o),
(94,383,cs),
(94,131,ls),
(94,36,o),
(137,-12,o),
(227,-12,cs)
);
},
{
closed = 1;
nodes = (
(543,0,l),
(543,29,l),
(479,29,o),
(474,37,o),
(474,83,cs),
(474,474,l),
(447,474,l),
(326,456,l),
(326,427,l),
(360,427,ls),
(384,427,o),
(390,418,o),
(390,383,cs),
(389,70,l),
(391,70,l),
(391,0,l)
);
}
);
width = 583;
}
);
note = u;
unicode = 117;
},
